<?xml version="1.0" encoding="utf-8"?>
<!-- Generator: Adobe Illustrator 16.0.4, SVG Export Plug-In . SVG Version: 6.00 Build 0)  -->
<!DOCTYPE svg PUBLIC "-//W3C//DTD SVG 1.1//EN" "http://www.w3.org/Graphics/SVG/1.1/DTD/svg11.dtd">
<svg version="1.1" id="Layer_1" xmlns="http://www.w3.org/2000/svg" xmlns:xlink="http://www.w3.org/1999/xlink" x="0px" y="0px"
	 width="800px" height="600px" viewBox="0 0 800 600" enable-background="new 0 0 800 600" xml:space="preserve">
<g>
	<g>
		<path fill="#129E49" d="M265.884,304.144c0,1.484-0.204,2.825-0.612,4.027s-0.971,2.267-1.691,3.187
			c-0.719,0.926-1.577,1.717-2.575,2.385c-1,0.668-2.099,1.213-3.302,1.643c-1.202,0.431-2.485,0.748-3.848,0.95
			c-1.363,0.203-2.882,0.307-4.557,0.307H238.22c-0.708,0-1.304-0.212-1.788-0.628c-0.482-0.421-0.724-1.104-0.724-2.049v-36.324
			c0-0.945,0.241-1.625,0.724-2.043c0.483-0.421,1.08-0.628,1.788-0.628h10.466c2.556,0,4.719,0.213,6.489,0.643
			c1.771,0.431,3.263,1.079,4.477,1.947c1.213,0.871,2.143,1.972,2.786,3.303c0.645,1.331,0.966,2.897,0.966,4.7
			c0,1.01-0.127,1.959-0.386,2.85c-0.258,0.893-0.633,1.702-1.127,2.432c-0.495,0.729-1.101,1.373-1.819,1.932
			c-0.72,0.559-1.54,1.009-2.464,1.353c1.18,0.215,2.271,0.591,3.268,1.126c1,0.537,1.869,1.229,2.61,2.078
			c0.74,0.847,1.325,1.842,1.754,2.979C265.669,301.451,265.884,302.729,265.884,304.144z M254.934,286.594
			c0-0.838-0.128-1.588-0.386-2.256c-0.259-0.663-0.645-1.217-1.159-1.657c-0.516-0.44-1.166-0.777-1.95-1.015
			c-0.783-0.235-1.829-0.354-3.139-0.354h-4.283v10.821h4.734c1.223,0,2.199-0.146,2.93-0.435c0.73-0.29,1.336-0.686,1.82-1.19
			c0.482-0.505,0.842-1.096,1.078-1.774C254.816,288.059,254.934,287.346,254.934,286.594z M257.091,304.436
			c0-0.965-0.161-1.831-0.482-2.593c-0.322-0.763-0.794-1.4-1.417-1.915c-0.622-0.515-1.417-0.916-2.382-1.192
			c-0.966-0.277-2.222-0.42-3.768-0.42h-5.023v11.85h6.118c1.182,0,2.173-0.124,2.979-0.371c0.806-0.243,1.503-0.608,2.095-1.094
			c0.59-0.479,1.051-1.083,1.384-1.801C256.926,306.182,257.091,305.355,257.091,304.436z"/>
	</g>
	<g>
		<path fill="#129E49" d="M336.646,295.322c0,3.458-0.429,6.545-1.288,9.271c-0.859,2.73-2.136,5.042-3.832,6.941
			c-1.696,1.9-3.795,3.35-6.296,4.35c-2.501,0.994-5.395,1.494-8.679,1.494c-3.244,0-6.071-0.42-8.486-1.271
			c-2.416-0.846-4.428-2.143-6.039-3.879c-1.61-1.742-2.816-3.949-3.622-6.635c-0.806-2.683-1.209-5.859-1.209-9.532
			c0-3.369,0.43-6.405,1.289-9.097c0.858-2.696,2.135-4.987,3.832-6.877c1.695-1.888,3.794-3.337,6.295-4.347
			c2.501-1.01,5.406-1.514,8.712-1.514c3.156,0,5.941,0.418,8.357,1.257c2.415,0.836,4.432,2.125,6.054,3.864
			c1.621,1.739,2.845,3.936,3.67,6.585C336.232,288.586,336.646,291.715,336.646,295.322z M327.758,295.773
			c0-2.192-0.172-4.181-0.516-5.975c-0.344-1.794-0.928-3.328-1.754-4.607c-0.828-1.276-1.928-2.264-3.303-2.961
			c-1.373-0.698-3.091-1.047-5.152-1.047c-2.083,0-3.821,0.394-5.217,1.175c-1.395,0.784-2.523,1.831-3.382,3.14
			c-0.858,1.311-1.464,2.84-1.819,4.589c-0.354,1.752-0.531,3.602-0.531,5.554c0,2.277,0.172,4.321,0.515,6.137
			c0.343,1.815,0.923,3.364,1.739,4.651c0.815,1.291,1.911,2.271,3.286,2.949c1.373,0.678,3.101,1.014,5.184,1.014
			c2.082,0,3.821-0.386,5.217-1.162c1.395-0.772,2.523-1.821,3.382-3.152s1.466-2.885,1.819-4.656
			C327.58,299.651,327.758,297.771,327.758,295.773z"/>
	</g>
	<g>
		<path fill="#129E49" d="M396.401,278.445c0,0.624-0.027,1.156-0.079,1.596c-0.054,0.44-0.134,0.794-0.242,1.062
			c-0.106,0.27-0.24,0.468-0.401,0.596c-0.161,0.129-0.339,0.193-0.532,0.193h-10.435v33.587c0,0.219-0.069,0.411-0.208,0.58
			c-0.141,0.172-0.371,0.311-0.692,0.42c-0.322,0.109-0.757,0.193-1.304,0.258c-0.549,0.064-1.229,0.099-2.046,0.099
			s-1.497-0.034-2.046-0.099c-0.547-0.064-0.982-0.148-1.304-0.258c-0.321-0.109-0.551-0.248-0.69-0.42
			c-0.141-0.169-0.21-0.361-0.21-0.58v-33.587h-10.435c-0.215,0-0.398-0.064-0.547-0.193c-0.151-0.128-0.279-0.327-0.386-0.596
			c-0.109-0.267-0.188-0.621-0.243-1.062c-0.054-0.44-0.082-0.972-0.082-1.596c0-0.643,0.027-1.19,0.082-1.643
			c0.054-0.45,0.134-0.809,0.243-1.079c0.106-0.267,0.235-0.46,0.386-0.579c0.148-0.117,0.332-0.176,0.547-0.176h29.371
			c0.193,0,0.371,0.059,0.532,0.176c0.161,0.119,0.294,0.312,0.401,0.579c0.108,0.27,0.188,0.628,0.242,1.079
			C396.374,277.255,396.401,277.802,396.401,278.445z"/>
	</g>
	<g>
		<path fill="#129E49" d="M450.336,313.1c0,0.643-0.027,1.182-0.078,1.623c-0.055,0.439-0.137,0.806-0.243,1.098
			c-0.108,0.287-0.239,0.495-0.403,0.623c-0.16,0.135-0.349,0.198-0.564,0.198h-19.096c-0.708,0-1.305-0.212-1.789-0.628
			c-0.48-0.421-0.723-1.104-0.723-2.049v-37.838c0-0.213,0.069-0.406,0.211-0.579c0.139-0.173,0.368-0.312,0.689-0.418
			c0.324-0.109,0.758-0.193,1.307-0.26c0.547-0.062,1.227-0.094,2.043-0.094c0.84,0,1.524,0.032,2.062,0.094
			c0.536,0.067,0.965,0.151,1.289,0.26c0.321,0.106,0.552,0.245,0.69,0.418c0.141,0.173,0.21,0.366,0.21,0.579v33.523h13.106
			c0.216,0,0.404,0.06,0.564,0.178c0.164,0.119,0.295,0.312,0.403,0.579c0.106,0.272,0.188,0.624,0.243,1.063
			C450.309,311.912,450.336,312.451,450.336,313.1z"/>
	</g>
	<path fill="#129E49" d="M316.932,260.077l3.801,4.091c0,0,0.888,1.017,2.365,1.017h4.59c0,0,2.067-0.186,0.661-1.742
		c-1.404-1.564-5.992-6.849-7.197-7.603c-0.928-0.567-3.034-0.715-4.221-0.715c-1.175,0-3.252,0.147-4.169,0.715
		c-1.198,0.753-5.725,6.038-7.119,7.603c-1.392,1.556,0.651,1.742,0.651,1.742h4.541c1.457,0,2.334-1.017,2.334-1.017
		L316.932,260.077z"/>
</g>
<text transform="matrix(1 0 0 1 234.6636 339.877)" fill="#129E49" font-family="'SourceSansPro-Regular'" font-size="12" letter-spacing="5">UPCYCLED GLASSWARE</text>
<g>
	<path fill="#129E49" d="M566.884,300.352c0,3.457-0.429,6.545-1.288,9.271c-0.859,2.73-2.136,5.042-3.832,6.941
		c-1.695,1.9-3.795,3.35-6.296,4.35c-2.501,0.994-5.395,1.494-8.679,1.494c-3.244,0-6.071-0.42-8.486-1.271
		c-2.415-0.846-4.428-2.143-6.039-3.879c-1.609-1.742-2.816-3.949-3.621-6.635c-0.806-2.683-1.209-5.859-1.209-9.531
		c0-3.37,0.43-6.405,1.289-9.097c0.858-2.696,2.135-4.987,3.832-6.877c1.695-1.888,3.794-3.337,6.295-4.347
		c2.502-1.01,5.406-1.514,8.713-1.514c3.155,0,5.941,0.418,8.356,1.257c2.415,0.836,4.433,2.125,6.054,3.864s2.846,3.936,3.67,6.585
		C566.471,293.615,566.884,296.745,566.884,300.352z M557.996,300.802c0-2.192-0.172-4.181-0.516-5.975
		c-0.344-1.794-0.928-3.328-1.754-4.607c-0.828-1.276-1.929-2.264-3.303-2.961c-1.373-0.698-3.092-1.047-5.152-1.047
		c-2.083,0-3.821,0.394-5.217,1.175c-1.395,0.784-2.523,1.831-3.382,3.14c-0.858,1.311-1.464,2.84-1.819,4.589
		c-0.354,1.752-0.531,3.602-0.531,5.554c0,2.277,0.172,4.321,0.516,6.137c0.342,1.815,0.922,3.364,1.738,4.651
		c0.815,1.291,1.912,2.271,3.286,2.949c1.373,0.678,3.101,1.014,5.184,1.014c2.082,0,3.821-0.386,5.217-1.162
		c1.396-0.772,2.523-1.821,3.382-3.152s1.466-2.885,1.819-4.656C557.818,304.68,557.996,302.8,557.996,300.802z"/>
</g>
<path fill="#129E49" d="M547.17,265.106l3.801,4.091c0,0,0.889,1.017,2.365,1.017h4.591c0,0,2.067-0.186,0.661-1.742
	c-1.404-1.564-5.992-6.849-7.197-7.603c-0.928-0.567-3.034-0.715-4.221-0.715c-1.176,0-3.252,0.147-4.169,0.715
	c-1.198,0.753-5.725,6.038-7.118,7.603c-1.393,1.556,0.65,1.742,0.65,1.742h4.541c1.457,0,2.334-1.017,2.334-1.017L547.17,265.106z"
	/>
</svg>
