<?xml version="1.0" encoding="UTF-8"?>
<svg width="14px" height="14px" viewBox="0 0 14 14" version="1.1" xmlns="http://www.w3.org/2000/svg" xmlns:xlink="http://www.w3.org/1999/xlink">
    <!-- Generator: Sketch 46.2 (44496) - http://www.bohemiancoding.com/sketch -->
    <title>email</title>
    <desc>Created with Sketch.</desc>
    <defs></defs>
    <g id="Page-1" stroke="none" stroke-width="1" fill="none" fill-rule="evenodd">
        <g id="email" fill-rule="nonzero" fill="#FFFFFF">
            <g id="noun_993049_cc" transform="translate(3.000000, -1.428571) scale(1, -1) translate(-3.000000, 1.428571) translate(-7.000000, -14.428571)">
                <path d="M18.6983924,0 L9.3016076,0 C8.58394227,0 8,0.634854432 8,1.41509083 L8,7.15633774 C8,7.93657414 8.58394227,8.57142857 9.3016076,8.57142857 L18.6983924,8.57142857 C19.4160577,8.57142857 20,7.93657414 20,7.15633774 L20,1.41509083 C20,0.634705475 19.4160577,0 18.6983924,0 Z M9.3016076,0.744784646 L18.6983924,0.744784646 C19.0383175,0.744784646 19.3149434,1.04552869 19.3149434,1.41509083 L19.3149434,2.11950814 L14.7299963,5.59824827 C14.6297041,5.67808918 14.3055353,5.88543723 14.0141122,5.88543723 C13.6096547,5.88543723 13.3316588,5.64233952 13.3312477,5.6420416 L8.68505663,2.16091817 L8.68505663,1.41509083 C8.68505663,1.04537973 8.9616825,0.744784646 9.3016076,0.744784646 Z M18.6983924,7.82649497 L9.3016076,7.82649497 C8.9616825,7.82649497 8.68505663,7.52575093 8.68505663,7.15618879 L8.68505663,3.06493777 L12.9036354,6.22386737 C12.9972141,6.30519785 13.4087961,6.63022187 14.0141122,6.63022187 C14.5849014,6.63022187 15.0828005,6.24114637 15.1293844,6.20331131 L19.3149434,3.02769854 L19.3149434,7.1564867 C19.3149434,7.52589989 19.0383175,7.82649497 18.6983924,7.82649497 Z" id="Shape"></path>
            </g>
        </g>
    </g>
</svg>