<?xml version="1.0" encoding="UTF-8"?>
<svg width="48px" height="48px" viewBox="0 0 48 48" version="1.1" xmlns="http://www.w3.org/2000/svg" xmlns:xlink="http://www.w3.org/1999/xlink">
    <!-- Generator: Sketch 46.2 (44496) - http://www.bohemiancoding.com/sketch -->
    <title>logosmall</title>
    <desc>Created with Sketch.</desc>
    <defs></defs>
    <g id="Page-1" stroke="none" stroke-width="1" fill="none" fill-rule="evenodd">
        <g id="logosmall" fill-rule="nonzero" fill="#129E49">
            <g id="Group" transform="translate(11.000000, 4.000000)">
                <path d="M25.4699167,25.6012698 C25.4699167,27.7968254 25.1978194,29.7568254 24.6529907,31.487619 C24.108162,33.2209524 23.298213,34.6888889 22.2225093,35.8946032 C21.1468056,37.1009524 19.8154954,38.0215873 18.229213,38.6565079 C16.6429306,39.287619 14.8073843,39.6050794 12.7244769,39.6050794 C10.6669398,39.6050794 8.87388889,39.3384127 7.34215278,38.7980952 C5.80978241,38.2609524 4.53365278,37.4374603 3.51186111,36.3352381 C2.4907037,35.2292063 1.72578704,33.8279365 1.21457407,32.1225397 C0.703361111,30.4190476 0.44775463,28.4025397 0.44775463,26.0704762 C0.44775463,23.9314286 0.720486111,22.0038095 1.26531481,20.2946032 C1.80950926,18.5828571 2.61945833,17.128254 3.6957963,15.928254 C4.77086574,14.7295238 6.10217593,13.8095238 7.68845833,13.168254 C9.27474074,12.5269841 11.1172639,12.2069841 13.214125,12.2069841 C15.2158472,12.2069841 16.9822593,12.472381 18.5146296,13.0050794 C20.0463657,13.535873 21.3256667,14.3542857 22.3544352,15.4584127 C23.3825694,16.5625397 24.1589028,17.9574603 24.6821667,19.6393651 C25.2073333,21.3244444 25.4699167,23.3111111 25.4699167,25.6012698 Z M19.8326204,25.887619 C19.8326204,24.495873 19.7235278,23.2330159 19.5053426,22.0939683 C19.2871574,20.9549206 18.91675,19.9809524 18.3928519,19.1688889 C17.8676852,18.3587302 17.17,17.7314286 16.2978935,17.2888889 C15.4270556,16.8457143 14.3373981,16.624127 13.0301898,16.624127 C11.7090278,16.624127 10.6066852,16.8742857 9.72125926,17.3701587 C8.83646759,17.8679365 8.12102315,18.5326984 7.57619444,19.3638095 C7.032,20.1961905 6.64763889,21.1669841 6.42247685,22.2774603 C6.19794907,23.3898413 6.08568519,24.5644444 6.08568519,25.8038095 C6.08568519,27.2495238 6.19477778,28.5473016 6.4123287,29.7003175 C6.62987963,30.8526984 6.99775,31.8361905 7.51530556,32.6533333 C8.03222685,33.4730159 8.727375,34.0952381 9.59948148,34.5257143 C10.4703194,34.9561905 11.5663194,35.1695238 12.8874815,35.1695238 C14.2080093,35.1695238 15.3109861,34.9244444 16.196412,34.431746 C17.0812037,33.9415873 17.7966481,33.2755556 18.3414769,32.4304762 C18.8863056,31.5853968 19.2713009,30.5987302 19.4951944,29.4742857 C19.7197222,28.3498413 19.8326204,27.1561905 19.8326204,25.887619 Z" id="Shape"></path>
                <path d="M12.9661296,3.22349206 L15.3769491,5.82095238 C15.3769491,5.82095238 15.9401713,6.46666667 16.8769722,6.46666667 L19.7882222,6.46666667 C19.7882222,6.46666667 21.0992361,6.34857143 20.2074676,5.36063492 C19.3169676,4.36761905 16.4069861,1.01206349 15.6427037,0.533333333 C15.0541111,0.173333333 13.7183611,0.0793650794 12.9654954,0.0793650794 C12.2202407,0.0793650794 10.9028843,0.172698413 10.3212685,0.533333333 C9.56142593,1.01142857 6.69013426,4.36698413 5.80597685,5.36063492 C4.92308796,6.34857143 6.21887963,6.46666667 6.21887963,6.46666667 L9.09905093,6.46666667 C10.0231667,6.46666667 10.579412,5.82095238 10.579412,5.82095238 L12.9661296,3.22349206 Z" id="Shape"></path>
            </g>
        </g>
    </g>
</svg>