<?xml version="1.0" encoding="UTF-8"?>
<svg width="160px" height="72px" viewBox="0 0 160 72" version="1.1" xmlns="http://www.w3.org/2000/svg" xmlns:xlink="http://www.w3.org/1999/xlink">
    <!-- Generator: Sketch 46.2 (44496) - http://www.bohemiancoding.com/sketch -->
    <title>logobig</title>
    <desc>Created with Sketch.</desc>
    <defs></defs>
    <g id="Page-1" stroke="none" stroke-width="1" fill="none" fill-rule="evenodd">
        <g id="logobig" fill-rule="nonzero" fill="#129E49">
            <g id="botl-logo" transform="translate(0.000000, 4.000000)">
                <path d="M22.6888889,37.017037 C22.6888889,38.1162963 22.5377778,39.1103704 22.2355556,40 C21.9333333,40.8911111 21.5162963,41.6792593 20.982963,42.3614815 C20.4503704,43.0466667 19.8148148,43.6333333 19.0755556,44.1281481 C18.3348148,44.622963 17.5207407,45.0259259 16.6296296,45.3451852 C15.7392593,45.6637037 14.7888889,45.8985185 13.7792593,46.0481481 C12.7696296,46.1985185 11.6444444,46.2755556 10.4037037,46.2755556 L2.19777778,46.2755556 C1.67333333,46.2755556 1.23185185,46.1185185 0.873333333,45.8103704 C0.516296296,45.4985185 0.337037037,44.9933333 0.337037037,44.2933333 L0.337037037,17.3866667 C0.337037037,16.6866667 0.515555556,16.182963 0.873333333,15.8733333 C1.23111111,15.5614815 1.67333333,15.4081481 2.19777778,15.4081481 L9.95037037,15.4081481 C11.8437037,15.4081481 13.4459259,15.5659259 14.757037,15.8844444 C16.0688889,16.2037037 17.1740741,16.6837037 18.0733333,17.3266667 C18.9718519,17.9718519 19.6607407,18.7874074 20.137037,19.7733333 C20.6148148,20.7592593 20.8525926,21.9192593 20.8525926,23.2548148 C20.8525926,24.002963 20.7585185,24.7059259 20.5666667,25.3659259 C20.3755556,26.0274074 20.0977778,26.6266667 19.7318519,27.1674074 C19.3651852,27.7074074 18.9162963,28.1844444 18.3844444,28.5985185 C17.8511111,29.0125926 17.2437037,29.3459259 16.5592593,29.6007407 C17.4333333,29.76 18.2414815,30.0385185 18.98,30.4348148 C19.7207407,30.8325926 20.3644444,31.3451852 20.9133333,31.9740741 C21.4614815,32.6014815 21.8948148,33.3385185 22.2125926,34.1807407 C22.5303704,35.022963 22.6888889,35.9688889 22.6888889,37.017037 Z M14.5785185,24.0177778 C14.5785185,23.397037 14.4837037,22.8414815 14.2925926,22.3466667 C14.1007407,21.8555556 13.8148148,21.4451852 13.4340741,21.1192593 C13.0518519,20.7933333 12.5703704,20.5437037 11.9896296,20.3674074 C11.4096296,20.1933333 10.6348148,20.1051852 9.66444444,20.1051852 L6.49185185,20.1051852 L6.49185185,28.1207407 L9.99851852,28.1207407 C10.9044444,28.1207407 11.6274074,28.0125926 12.1688889,27.7985185 C12.7096296,27.5837037 13.1585185,27.2903704 13.517037,26.917037 C13.8740741,26.542963 14.1407407,26.1051852 14.3155556,25.602963 C14.4911111,25.102963 14.5785185,24.5748148 14.5785185,24.0177778 Z M16.1762963,37.2333333 C16.1762963,36.5185185 16.057037,35.877037 15.8192593,35.3133333 C15.5807407,34.7488889 15.2311111,34.2762963 14.7696296,33.8948148 C14.3088889,33.5133333 13.72,33.2162963 13.0051852,33.0118519 C12.2896296,32.8066667 11.3592593,32.7007407 10.2140741,32.7007407 L6.49333333,32.7007407 L6.49333333,41.4785185 L11.0251852,41.4785185 C11.9007407,41.4785185 12.6348148,41.3874074 13.2318519,41.2037037 C13.8288889,41.0244444 14.3451852,40.7533333 14.7837037,40.3933333 C15.2207407,40.0385185 15.5622222,39.5911111 15.8088889,39.0592593 C16.0533333,38.5274074 16.1762963,37.9155556 16.1762963,37.2333333 Z" id="Shape"></path>
                <path d="M75.1051852,30.482963 C75.1051852,33.0444444 74.7874074,35.3311111 74.1511111,37.3511111 C73.5148148,39.3733333 72.5688889,41.0851852 71.3125926,42.4925926 C70.0562963,43.9 68.5014815,44.9740741 66.6488889,45.7148148 C64.7962963,46.4511111 62.6525926,46.8214815 60.22,46.8214815 C57.817037,46.8214815 55.722963,46.5096296 53.9340741,45.88 C52.1444444,45.2525926 50.6540741,44.2925926 49.4607407,43.0059259 C48.2681481,41.7162963 47.3748148,40.0814815 46.7777778,38.0911111 C46.1807407,36.1037037 45.8822222,33.7518519 45.8822222,31.0311111 C45.8822222,28.5355556 46.2007407,26.2866667 46.837037,24.2925926 C47.4725926,22.2955556 48.4185185,20.5985185 49.6755556,19.1985185 C50.9311111,17.8 52.4859259,16.7266667 54.3385185,15.9785185 C56.1911111,15.2303704 58.342963,14.857037 60.7918519,14.857037 C63.1296296,14.857037 65.1925926,15.1666667 66.9822222,15.7881481 C68.7711111,16.4074074 70.2651852,17.3622222 71.4666667,18.6503704 C72.6674074,19.9385185 73.5740741,21.5659259 74.1851852,23.5281481 C74.7992593,25.4933333 75.1051852,27.8111111 75.1051852,30.482963 Z M68.5214815,30.817037 C68.5214815,29.1933333 68.3940741,27.72 68.1392593,26.3911111 C67.8844444,25.0622222 67.4518519,23.9259259 66.84,22.9785185 C66.2266667,22.0333333 65.4118519,21.3014815 64.3933333,20.7851852 C63.3762963,20.2681481 62.1037037,20.0096296 60.577037,20.0096296 C59.0340741,20.0096296 57.7466667,20.3014815 56.7125926,20.88 C55.6792593,21.4607407 54.8437037,22.2362963 54.2074074,23.2059259 C53.5718519,24.177037 53.122963,25.3096296 52.86,26.6051852 C52.5977778,27.902963 52.4666667,29.2733333 52.4666667,30.7192593 C52.4666667,32.4059259 52.5940741,33.92 52.8481481,35.2651852 C53.1022222,36.6103704 53.5318519,37.7577778 54.1362963,38.7103704 C54.74,39.6674074 55.5518519,40.3925926 56.5703704,40.8948148 C57.5874074,41.397037 58.8674074,41.6466667 60.4103704,41.6466667 C61.9525926,41.6466667 63.2407407,41.36 64.2748148,40.7851852 C65.3081481,40.2133333 66.1437037,39.4362963 66.78,38.4511111 C67.4155556,37.4644444 67.8659259,36.3140741 68.1274074,35.0014815 C68.3896296,33.6888889 68.5214815,32.2962963 68.5214815,30.817037 Z" id="Shape"></path>
                <path d="M119.368889,17.9807407 C119.368889,18.442963 119.348889,18.837037 119.30963,19.162963 C119.26963,19.4888889 119.211111,19.7511111 119.13037,19.9496296 C119.052593,20.1496296 118.952593,20.2962963 118.834074,20.3911111 C118.714815,20.4866667 118.582963,20.5340741 118.44,20.5340741 L110.71037,20.5340741 L110.71037,45.4140741 C110.71037,45.5755556 110.658519,45.7177778 110.555556,45.842963 C110.451111,45.9711111 110.280741,46.0740741 110.043704,46.1548148 C109.805185,46.2348148 109.482222,46.297037 109.077037,46.3451852 C108.67037,46.3925926 108.166667,46.4185185 107.562222,46.4185185 C106.957778,46.4185185 106.452593,46.3933333 106.045926,46.3451852 C105.640741,46.2977778 105.318519,46.2355556 105.08,46.1548148 C104.842222,46.0740741 104.671111,45.9711111 104.568889,45.842963 C104.464444,45.7177778 104.413333,45.5755556 104.413333,45.4140741 L104.413333,20.5340741 L96.6837037,20.5340741 C96.5237037,20.5340741 96.3888889,20.4866667 96.2785185,20.3911111 C96.1666667,20.2962963 96.0718519,20.1488889 95.9918519,19.9496296 C95.9118519,19.7518519 95.8525926,19.4896296 95.8125926,19.162963 C95.7718519,18.837037 95.7518519,18.442963 95.7518519,17.9807407 C95.7518519,17.5044444 95.7718519,17.0992593 95.8125926,16.7637037 C95.8533333,16.4303704 95.9118519,16.1644444 95.9918519,15.9644444 C96.0711111,15.7666667 96.1659259,15.6237037 96.2785185,15.5355556 C96.3881481,15.4488889 96.5237037,15.4051852 96.6837037,15.4051852 L118.439259,15.4051852 C118.582222,15.4051852 118.714074,15.4488889 118.833333,15.5355556 C118.951852,15.6237037 119.051852,15.7666667 119.12963,15.9644444 C119.21037,16.1644444 119.268889,16.4296296 119.308889,16.7637037 C119.348889,17.0992593 119.368889,17.5044444 119.368889,17.9807407 Z" id="Shape"></path>
                <path d="M159.320741,43.6511111 C159.320741,44.1281481 159.300741,44.5274074 159.262222,44.8533333 C159.221481,45.1792593 159.160741,45.4503704 159.082963,45.6674074 C159.002222,45.88 158.905185,46.0333333 158.783704,46.1288889 C158.665185,46.2281481 158.525926,46.2748148 158.366667,46.2748148 L144.220741,46.2748148 C143.697037,46.2748148 143.254815,46.1177778 142.895556,45.8096296 C142.540741,45.4977778 142.360741,44.9925926 142.360741,44.2925926 L142.360741,16.2644444 C142.360741,16.1066667 142.411852,15.9637037 142.516296,15.8355556 C142.619259,15.7074074 142.78963,15.6044444 143.027407,15.5259259 C143.267407,15.4451852 143.588148,15.382963 143.994815,15.3333333 C144.4,15.2874074 144.904444,15.2637037 145.508889,15.2637037 C146.13037,15.2637037 146.637778,15.2874074 147.036296,15.3333333 C147.433333,15.382963 147.751111,15.4451852 147.991111,15.5259259 C148.228148,15.6044444 148.399259,15.7074074 148.501481,15.8355556 C148.605926,15.9637037 148.657778,16.1066667 148.657778,16.2644444 L148.657778,41.097037 L158.365926,41.097037 C158.525926,41.097037 158.664444,41.1407407 158.782963,41.2288889 C158.904444,41.317037 159.001481,41.46 159.082222,41.657037 C159.16,41.8592593 159.221481,42.1192593 159.261481,42.4451852 C159.300741,42.7711111 159.320741,43.1703704 159.320741,43.6511111 Z" id="Shape"></path>
                <path d="M60.5022222,4.37555556 L63.3177778,7.40592593 C63.3177778,7.40592593 63.9755556,8.15925926 65.0696296,8.15925926 L68.4696296,8.15925926 C68.4696296,8.15925926 70.0007407,8.02148148 68.9592593,6.86888889 C67.9192593,5.71037037 64.5207407,1.79555556 63.6281481,1.23703704 C62.9407407,0.817037037 61.3807407,0.707407407 60.5014815,0.707407407 C59.6311111,0.707407407 58.0925926,0.816296296 57.4133333,1.23703704 C56.5259259,1.79481481 53.1725926,5.70962963 52.14,6.86888889 C51.1088889,8.02148148 52.6222222,8.15925926 52.6222222,8.15925926 L55.9859259,8.15925926 C57.0651852,8.15925926 57.7148148,7.40592593 57.7148148,7.40592593 L60.5022222,4.37555556 Z" id="Shape"></path>
                <g id="Group" transform="translate(0.000000, 57.037037)">
                    <path d="M0.30962963,0.617777778 L1.0562963,0.617777778 L1.0562963,4.05851852 C1.0562963,4.40888889 1.09185185,4.70148148 1.16296296,4.93851852 C1.23407407,5.17555556 1.33037037,5.36518519 1.45185185,5.50814815 C1.57333333,5.65111111 1.71555556,5.75259259 1.87851852,5.81481481 C2.04148148,5.87703704 2.21777778,5.90814815 2.40740741,5.90814815 C2.60296296,5.90814815 2.78518519,5.87703704 2.95407407,5.81481481 C3.12296296,5.75259259 3.26962963,5.65037037 3.39407407,5.50814815 C3.51851852,5.36592593 3.6162963,5.1762963 3.68740741,4.93851852 C3.75851852,4.70222222 3.79407407,4.40888889 3.79407407,4.05851852 L3.79407407,0.617777778 L4.50518519,0.617777778 L4.50518519,4.04074074 C4.50518519,4.50814815 4.45185185,4.90296296 4.34518519,5.22296296 C4.23851852,5.54296296 4.09185185,5.80148148 3.90518519,6.00074074 C3.71851852,6.2 3.4962963,6.34148148 3.23851852,6.42740741 C2.98074074,6.51333333 2.7037037,6.5562963 2.40740741,6.5562963 C2.11111111,6.5562963 1.83407407,6.51333333 1.5762963,6.42740741 C1.31851852,6.34148148 1.0962963,6.19925926 0.90962963,6.00074074 C0.722962963,5.80222222 0.576296296,5.54296296 0.46962963,5.22296296 C0.362962963,4.90296296 0.30962963,4.50814815 0.30962963,4.04074074 L0.30962963,0.617777778 Z" id="Shape"></path>
                    <path d="M10.362963,0.617777778 L12.1585185,0.617777778 C12.4785185,0.617777778 12.7718519,0.648148148 13.0385185,0.707407407 C13.3051852,0.766666667 13.5318519,0.862222222 13.7185185,0.996296296 C13.9051852,1.12962963 14.0503704,1.30592593 14.1540741,1.52518519 C14.2577778,1.74444444 14.3096296,2.01407407 14.3096296,2.33407407 C14.3096296,2.64222222 14.2577778,2.90888889 14.1540741,3.13407407 C14.0503704,3.36 13.9037037,3.54666667 13.7140741,3.69407407 C13.5244444,3.84222222 13.2977778,3.95333333 13.0340741,4.02740741 C12.7703704,4.10148148 12.4785185,4.13777778 12.1585185,4.13777778 L11.1096296,4.13777778 L11.1096296,6.44962963 L10.362963,6.44962963 L10.362963,0.617777778 Z M12.0607407,3.53407407 C12.5762963,3.53407407 12.957037,3.43777778 13.202963,3.24518519 C13.4488889,3.05259259 13.5718519,2.74888889 13.5718519,2.33407407 C13.5718519,1.91333333 13.4459259,1.62148148 13.1940741,1.45851852 C12.9422222,1.29481481 12.5644444,1.21407407 12.0607407,1.21407407 L11.1096296,1.21407407 L11.1096296,3.53407407 L12.0607407,3.53407407 Z" id="Shape"></path>
                    <path d="M19.4385185,3.53407407 C19.4385185,3.06592593 19.5037037,2.64518519 19.6340741,2.27185185 C19.7644444,1.89851852 19.9466667,1.58148148 20.1807407,1.32148148 C20.4148148,1.06 20.6903704,0.86 21.0074074,0.720740741 C21.3244444,0.581481481 21.6696296,0.511851852 22.042963,0.511851852 C22.3925926,0.511851852 22.7022222,0.585185185 22.9718519,0.72962963 C23.2414815,0.874814815 23.4622222,1.04222222 23.6340741,1.23185185 L23.2162963,1.7037037 C23.0622222,1.53703704 22.8903704,1.40592593 22.7007407,1.30814815 C22.5111111,1.21037037 22.2948148,1.16148148 22.0518519,1.16148148 C21.7733333,1.16148148 21.52,1.2162963 21.2918519,1.32666667 C21.0637037,1.43555556 20.8696296,1.59259259 20.7096296,1.79703704 C20.5496296,2.00222222 20.4251852,2.24962963 20.3362963,2.54 C20.2474074,2.83037037 20.202963,3.1562963 20.202963,3.51703704 C20.202963,3.88444444 20.2459259,4.21481481 20.3318519,4.50814815 C20.4177778,4.80148148 20.5392593,5.05185185 20.6962963,5.26 C20.8533333,5.46740741 21.042963,5.62740741 21.2651852,5.73925926 C21.4874074,5.85185185 21.7377778,5.90888889 22.0162963,5.90888889 C22.2948148,5.90888889 22.5392593,5.85259259 22.7496296,5.73925926 C22.96,5.62740741 23.16,5.46740741 23.3496296,5.26 L23.7674074,5.71333333 C23.5422222,5.97925926 23.2844444,6.18740741 22.9940741,6.33555556 C22.7037037,6.48296296 22.3718519,6.55777778 21.9985185,6.55777778 C21.6311111,6.55777778 21.2918519,6.48888889 20.9807407,6.35333333 C20.6696296,6.21777778 20.4,6.02074074 20.1718519,5.76222222 C19.9437037,5.50444444 19.7644444,5.18740741 19.6340741,4.81111111 C19.5037037,4.43259259 19.4385185,4.00740741 19.4385185,3.53407407 Z" id="Shape"></path>
                    <path d="M30.042963,4.19111111 L28.282963,0.617777778 L29.082963,0.617777778 L29.8296296,2.26296296 C29.9244444,2.4762963 30.0177778,2.68666667 30.1096296,2.89407407 C30.2014815,3.10148148 30.2977778,3.31481481 30.3985185,3.53407407 L30.4340741,3.53407407 C30.5348148,3.31481481 30.6340741,3.10148148 30.7318519,2.89407407 C30.8296296,2.68740741 30.922963,2.47703704 31.0118519,2.26296296 L31.7674074,0.617777778 L32.5318519,0.617777778 L30.7807407,4.19111111 L30.7807407,6.44962963 L30.042963,6.44962963 L30.042963,4.19111111 L30.042963,4.19111111 Z" id="Shape"></path>
                    <path d="M37.1540741,3.53407407 C37.1540741,3.06592593 37.2192593,2.64518519 37.3496296,2.27185185 C37.48,1.89851852 37.6622222,1.58148148 37.8962963,1.32148148 C38.1303704,1.06 38.4059259,0.86 38.722963,0.720740741 C39.04,0.581481481 39.3851852,0.511851852 39.7585185,0.511851852 C40.1081481,0.511851852 40.4177778,0.585185185 40.6874074,0.72962963 C40.957037,0.874814815 41.1777778,1.04222222 41.3496296,1.23185185 L40.9318519,1.7037037 C40.7777778,1.53703704 40.6059259,1.40592593 40.4162963,1.30814815 C40.2266667,1.21037037 40.0103704,1.16148148 39.7674074,1.16148148 C39.4888889,1.16148148 39.2355556,1.2162963 39.0074074,1.32666667 C38.7792593,1.43555556 38.5851852,1.59259259 38.4251852,1.79703704 C38.2651852,2.00222222 38.1407407,2.24962963 38.0518519,2.54 C37.962963,2.83037037 37.9185185,3.1562963 37.9185185,3.51703704 C37.9185185,3.88444444 37.9614815,4.21481481 38.0474074,4.50814815 C38.1333333,4.80148148 38.2548148,5.05185185 38.4118519,5.26 C38.5688889,5.46740741 38.7585185,5.62740741 38.9807407,5.73925926 C39.202963,5.85185185 39.4533333,5.90888889 39.7318519,5.90888889 C40.0103704,5.90888889 40.2548148,5.85259259 40.4651852,5.73925926 C40.6755556,5.62740741 40.8755556,5.46740741 41.0651852,5.26 L41.482963,5.71333333 C41.2577778,5.97925926 41,6.18740741 40.7096296,6.33555556 C40.4192593,6.48296296 40.0874074,6.55777778 39.7140741,6.55777778 C39.3466667,6.55777778 39.0074074,6.48888889 38.6962963,6.35333333 C38.3851852,6.21777778 38.1155556,6.02074074 37.8874074,5.76222222 C37.6592593,5.50444444 37.48,5.18740741 37.3496296,4.81111111 C37.2192593,4.43259259 37.1540741,4.00740741 37.1540741,3.53407407 Z" id="Shape"></path>
                    <polygon id="Shape" points="46.8607407 0.617777778 47.6074074 0.617777778 47.6074074 5.81851852 50.1496296 5.81851852 50.1496296 6.45037037 46.8607407 6.45037037"></polygon>
                    <polygon id="Shape" points="55.4740741 0.617777778 58.8340741 0.617777778 58.8340741 1.24 56.2207407 1.24 56.2207407 3.07185185 58.4251852 3.07185185 58.4251852 3.70296296 56.2207407 3.70296296 56.2207407 5.81851852 58.922963 5.81851852 58.922963 6.45037037 55.4740741 6.45037037"></polygon>
                    <path d="M64.4518519,0.617777778 L65.9096296,0.617777778 C66.8103704,0.617777778 67.4948148,0.866666667 67.962963,1.36518519 C68.4311111,1.86296296 68.6651852,2.57703704 68.6651852,3.50740741 C68.6651852,3.96962963 68.6059259,4.38296296 68.4874074,4.74740741 C68.3688889,5.11185185 68.1940741,5.42 67.962963,5.67185185 C67.7318519,5.9237037 67.4474074,6.1162963 67.1096296,6.24962963 C66.7718519,6.38296296 66.3837037,6.45037037 65.9451852,6.45037037 L64.4518519,6.45037037 L64.4518519,0.617777778 L64.4518519,0.617777778 Z M65.8562963,5.84518519 C66.5437037,5.84518519 67.0562963,5.64148148 67.3940741,5.23185185 C67.7318519,4.82296296 67.9007407,4.24814815 67.9007407,3.50740741 C67.9007407,2.76666667 67.7318519,2.20074074 67.3940741,1.80962963 C67.0562963,1.41851852 66.5437037,1.22296296 65.8562963,1.22296296 L65.1985185,1.22296296 L65.1985185,5.84518519 L65.8562963,5.84518519 L65.8562963,5.84518519 Z" id="Shape"></path>
                    <path d="M80.0251852,3.53407407 C80.0251852,3.06592593 80.0918519,2.64518519 80.2251852,2.27185185 C80.3585185,1.89851852 80.5451852,1.58148148 80.7851852,1.32148148 C81.0251852,1.06 81.3096296,0.86 81.6385185,0.720740741 C81.9674074,0.581481481 82.3274074,0.511851852 82.7185185,0.511851852 C83.1155556,0.511851852 83.4503704,0.588148148 83.722963,0.738518519 C83.9955556,0.89037037 84.2177778,1.05407407 84.3896296,1.23185185 L83.962963,1.7037037 C83.8148148,1.54962963 83.6444444,1.42 83.4518519,1.31703704 C83.2592593,1.21407407 83.0177778,1.16148148 82.7274074,1.16148148 C82.4311111,1.16148148 82.1644444,1.2162963 81.9274074,1.32666667 C81.6903704,1.43555556 81.4874074,1.59259259 81.3185185,1.79703704 C81.1496296,2.00222222 81.0192593,2.24962963 80.9274074,2.54 C80.8348148,2.83037037 80.7896296,3.1562963 80.7896296,3.51703704 C80.7896296,3.88444444 80.8325926,4.21481481 80.9185185,4.50814815 C81.0044444,4.80148148 81.1288889,5.05185185 81.2918519,5.26 C81.4548148,5.46814815 81.6562963,5.62740741 81.8962963,5.73925926 C82.1362963,5.85185185 82.4133333,5.90888889 82.7274074,5.90888889 C82.9348148,5.90888889 83.1333333,5.87777778 83.322963,5.81555556 C83.5125926,5.75333333 83.6666667,5.66888889 83.7851852,5.56148148 L83.7851852,4.04222222 L82.5496296,4.04222222 L82.5496296,3.42888889 L84.4607407,3.42888889 L84.4607407,5.88222222 C84.2711111,6.07259259 84.0192593,6.23185185 83.7051852,6.36148148 C83.3911111,6.49185185 83.0385185,6.55777778 82.6474074,6.55777778 C82.2622222,6.55777778 81.9096296,6.48888889 81.5896296,6.35333333 C81.2696296,6.21703704 80.9940741,6.02074074 80.762963,5.76222222 C80.5318519,5.50444444 80.3511111,5.18740741 80.2207407,4.81111111 C80.0903704,4.43259259 80.0251852,4.00740741 80.0251852,3.53407407 Z" id="Shape"></path>
                    <polygon id="Shape" points="90.14 0.617777778 90.8866667 0.617777778 90.8866667 5.81851852 93.4288889 5.81851852 93.4288889 6.45037037 90.1407407 6.45037037 90.1407407 0.617777778"></polygon>
                    <path d="M101.446667,4.67185185 L99.322963,4.67185185 L98.762963,6.44962963 L98.0066667,6.44962963 L99.98,0.617777778 L100.815556,0.617777778 L102.788889,6.44962963 L102.005926,6.44962963 L101.446667,4.67185185 Z M101.26,4.07555556 L100.985185,3.18740741 C100.883704,2.86222222 100.785926,2.53703704 100.691852,2.21407407 C100.597037,1.89111111 100.502222,1.56074074 100.407407,1.22296296 L100.371852,1.22296296 C100.276296,1.56074074 100.182222,1.89111111 100.086667,2.21407407 C99.9925926,2.53777778 99.8940741,2.86222222 99.7933333,3.18740741 L99.5088889,4.07555556 L101.26,4.07555556 Z" id="Shape"></path>
                    <path d="M107.926667,5.17777778 C108.134074,5.39777778 108.377037,5.57333333 108.655556,5.70740741 C108.934074,5.84074074 109.226667,5.90740741 109.535556,5.90740741 C109.921481,5.90740741 110.22,5.82 110.434074,5.64518519 C110.646667,5.47037037 110.754074,5.24 110.754074,4.95555556 C110.754074,4.80740741 110.728889,4.68148148 110.678519,4.57777778 C110.628148,4.47407407 110.558519,4.38518519 110.46963,4.31111111 C110.380741,4.23703704 110.276296,4.17111111 110.157778,4.11111111 C110.039259,4.05111111 109.911852,3.98962963 109.775556,3.92444444 L108.940741,3.56 C108.802963,3.50074074 108.665926,3.42962963 108.526667,3.34666667 C108.387407,3.2637037 108.26,3.16296296 108.144444,3.04444444 C108.028889,2.92666667 107.934815,2.78518519 107.863704,2.62296296 C107.792593,2.45925926 107.757037,2.27111111 107.757037,2.05777778 C107.757037,1.83851852 107.802963,1.63481481 107.895556,1.44518519 C107.986667,1.25555556 108.115556,1.09037037 108.281481,0.951851852 C108.447407,0.812592593 108.641481,0.704444444 108.863704,0.627407407 C109.085926,0.55037037 109.33037,0.511851852 109.596296,0.511851852 C109.946667,0.511851852 110.267407,0.579259259 110.561481,0.712592593 C110.855556,0.845925926 111.105185,1.01925926 111.312593,1.23185185 L110.922222,1.71185185 C110.744444,1.54 110.545185,1.40518519 110.325926,1.30740741 C110.106667,1.20962963 109.863704,1.16074074 109.597037,1.16074074 C109.265926,1.16074074 109,1.2362963 108.802222,1.38814815 C108.602963,1.53851852 108.504444,1.74740741 108.504444,2.01481481 C108.504444,2.1562963 108.534074,2.27703704 108.593333,2.37481481 C108.652593,2.47185185 108.728148,2.55851852 108.820741,2.63259259 C108.911852,2.70666667 109.016296,2.77185185 109.131852,2.82814815 C109.246667,2.88444444 109.361481,2.9362963 109.473333,2.9837037 L110.30963,3.33851852 C110.475556,3.41037037 110.632593,3.49185185 110.780741,3.58296296 C110.928889,3.67555556 111.056296,3.78222222 111.163704,3.9037037 C111.26963,4.02518519 111.354815,4.16740741 111.417037,4.33037037 C111.479259,4.49333333 111.50963,4.68148148 111.50963,4.89481481 C111.50963,5.12592593 111.463704,5.34222222 111.371852,5.5437037 C111.28,5.74518519 111.147407,5.92148148 110.976296,6.07333333 C110.805185,6.2237037 110.594815,6.34222222 110.34963,6.42814815 C110.103704,6.51407407 109.826667,6.55703704 109.518519,6.55703704 C109.108889,6.55703704 108.731852,6.48 108.385926,6.32592593 C108.038519,6.17111111 107.737778,5.96148148 107.482963,5.69407407 L107.926667,5.17777778 Z" id="Shape"></path>
                    <path d="M116.842222,5.17777778 C117.04963,5.39777778 117.292593,5.57333333 117.57037,5.70740741 C117.84963,5.84074074 118.142222,5.90740741 118.45037,5.90740741 C118.836296,5.90740741 119.134815,5.82 119.348148,5.64518519 C119.561481,5.47037037 119.668148,5.24 119.668148,4.95555556 C119.668148,4.80740741 119.643704,4.68148148 119.592593,4.57777778 C119.541481,4.47407407 119.472593,4.38518519 119.384444,4.31111111 C119.294815,4.23703704 119.191111,4.17111111 119.072593,4.11111111 C118.954074,4.05111111 118.826667,3.98962963 118.69037,3.92444444 L117.854815,3.56 C117.717778,3.50074074 117.58,3.42962963 117.440741,3.34666667 C117.301481,3.2637037 117.174815,3.16296296 117.058519,3.04444444 C116.942963,2.92666667 116.84963,2.78518519 116.778519,2.62296296 C116.706667,2.45925926 116.671852,2.27111111 116.671852,2.05777778 C116.671852,1.83851852 116.717778,1.63481481 116.80963,1.44518519 C116.901481,1.25555556 117.03037,1.09037037 117.195556,0.951851852 C117.362222,0.812592593 117.555556,0.704444444 117.778519,0.627407407 C118,0.55037037 118.244444,0.511851852 118.511111,0.511851852 C118.860741,0.511851852 119.182222,0.579259259 119.475556,0.712592593 C119.768889,0.845925926 120.019259,1.01925926 120.226667,1.23185185 L119.836296,1.71185185 C119.658519,1.54 119.46,1.40518519 119.24,1.30740741 C119.021481,1.20962963 118.778519,1.16074074 118.511852,1.16074074 C118.18,1.16074074 117.914815,1.2362963 117.717037,1.38814815 C117.517037,1.53851852 117.419259,1.74740741 117.419259,2.01481481 C117.419259,2.1562963 117.448148,2.27703704 117.507407,2.37481481 C117.566667,2.47185185 117.642963,2.55851852 117.734815,2.63259259 C117.826667,2.70666667 117.93037,2.77185185 118.045926,2.82814815 C118.161481,2.88444444 118.276296,2.9362963 118.388148,2.9837037 L119.223704,3.33851852 C119.39037,3.41037037 119.546667,3.49185185 119.695556,3.58296296 C119.842963,3.67555556 119.97037,3.78222222 120.077778,3.9037037 C120.184444,4.02518519 120.268889,4.16740741 120.331111,4.33037037 C120.393333,4.49333333 120.424444,4.68148148 120.424444,4.89481481 C120.424444,5.12592593 120.378519,5.34222222 120.285926,5.5437037 C120.194815,5.74444444 120.062222,5.92148148 119.891111,6.07333333 C119.719259,6.2237037 119.50963,6.34222222 119.264444,6.42814815 C119.018519,6.51407407 118.740741,6.55703704 118.432593,6.55703704 C118.023704,6.55703704 117.645926,6.48 117.3,6.32592593 C116.952593,6.17111111 116.651852,5.96148148 116.397037,5.69407407 L116.842222,5.17777778 Z" id="Shape"></path>
                    <path d="M125.260741,0.617777778 L126.024444,0.617777778 L126.637778,3.79185185 C126.697037,4.11185185 126.754815,4.42518519 126.811111,4.73333333 C126.867407,5.04148148 126.925185,5.35555556 126.984444,5.67481481 L127.02,5.67481481 C127.085185,5.35481481 127.151852,5.04 127.220741,4.72888889 C127.288889,4.41777778 127.358519,4.10518519 127.428889,3.79111111 L128.237778,0.617037037 L128.913333,0.617037037 L129.722222,3.79111111 C129.787407,4.09925926 129.855556,4.41037037 129.926667,4.72444444 C129.997778,5.03851852 130.068889,5.35555556 130.14,5.67481481 L130.175556,5.67481481 C130.234815,5.35481481 130.291111,5.04 130.344444,4.72888889 C130.397778,4.41777778 130.451852,4.10518519 130.505185,3.79111111 L131.118519,0.617037037 L131.838519,0.617037037 L130.62963,6.44888889 L129.731111,6.44888889 L128.851111,2.93777778 C128.803704,2.71185185 128.756296,2.49185185 128.70963,2.27481481 C128.662222,2.05925926 128.617037,1.83777778 128.575556,1.61259259 L128.54,1.61259259 C128.492593,1.83777778 128.443704,2.05925926 128.394074,2.27481481 C128.343704,2.49185185 128.294074,2.71185185 128.246667,2.93777778 L127.375556,6.44888889 L126.495556,6.44888889 L125.260741,0.617777778 Z" id="Shape"></path>
                    <path d="M139.802222,4.67185185 L137.677778,4.67185185 L137.117778,6.44962963 L136.362222,6.44962963 L138.335556,0.617777778 L139.17037,0.617777778 L141.143704,6.44962963 L140.361481,6.44962963 L139.802222,4.67185185 Z M139.615556,4.07555556 L139.34,3.18740741 C139.238519,2.86222222 139.141481,2.53703704 139.046667,2.21407407 C138.952593,1.89111111 138.857037,1.56074074 138.762963,1.22296296 L138.726667,1.22296296 C138.631852,1.56074074 138.537037,1.89111111 138.442222,2.21407407 C138.347407,2.53777778 138.248889,2.86222222 138.148889,3.18740741 L137.863704,4.07555556 L139.615556,4.07555556 Z" id="Shape"></path>
                    <path d="M149.455556,6.44962963 L148.051111,3.98740741 L147.002222,3.98740741 L147.002222,6.44962963 L146.255556,6.44962963 L146.255556,0.617777778 L148.086667,0.617777778 C148.382222,0.617777778 148.656296,0.646666667 148.904444,0.702962963 C149.152593,0.759259259 149.367407,0.851851852 149.548148,0.982222222 C149.728889,1.11259259 149.86963,1.28148148 149.97037,1.48962963 C150.071111,1.69703704 150.121481,1.95185185 150.121481,2.25407407 C150.121481,2.70962963 150.002963,3.07407407 149.766667,3.34740741 C149.52963,3.62 149.211852,3.80666667 148.814815,3.90740741 L150.299259,6.45037037 L149.455556,6.45037037 L149.455556,6.44962963 Z M147.002222,3.38222222 L147.98,3.38222222 C148.435556,3.38222222 148.784444,3.28888889 149.024444,3.10222222 C149.263704,2.91555556 149.383704,2.63259259 149.383704,2.25333333 C149.383704,1.86740741 149.263704,1.59777778 149.024444,1.44444444 C148.784444,1.28962963 148.435556,1.21333333 147.98,1.21333333 L147.002222,1.21333333 L147.002222,3.38222222 Z" id="Shape"></path>
                    <polygon id="Shape" points="155.713333 0.617777778 159.073333 0.617777778 159.073333 1.24 156.46 1.24 156.46 3.07185185 158.665185 3.07185185 158.665185 3.70296296 156.46 3.70296296 156.46 5.81851852 159.162222 5.81851852 159.162222 6.45037037 155.713333 6.45037037"></polygon>
                </g>
            </g>
        </g>
    </g>
</svg>