<?xml version="1.0" encoding="UTF-8"?>
<svg width="160px" height="72px" viewBox="0 0 160 72" version="1.1" xmlns="http://www.w3.org/2000/svg" xmlns:xlink="http://www.w3.org/1999/xlink">
    <!-- Generator: Sketch 46.2 (44496) - http://www.bohemiancoding.com/sketch -->
    <title>logobig</title>
    <desc>Created with Sketch.</desc>
    <defs></defs>
    <g id="Page-1" stroke="none" stroke-width="1" fill="none" fill-rule="evenodd">
        <g id="logobig" fill="#129E49">
            <g id="Group" transform="translate(8.000000, 4.000000)" fill-rule="nonzero">
                <path d="M19.588463,31.2025397 C19.588463,32.1447619 19.4590741,32.9961905 19.2002963,33.7593651 C18.9415185,34.5225397 18.5844306,35.1987302 18.1277639,35.7828571 C17.6717315,36.3707937 17.127537,36.8730159 16.4945463,37.2971429 C15.860287,37.7212698 15.1632361,38.0673016 14.4002222,38.3403175 C13.6378426,38.6139683 12.824088,38.8152381 11.9595926,38.9434921 C11.0950972,39.072381 10.1316574,39.1384127 9.06927315,39.1384127 L2.04231481,39.1384127 C1.59325926,39.1384127 1.21524074,39.0038095 0.908259259,38.7396825 C0.602546296,38.472381 0.449055556,38.0387302 0.449055556,37.4387302 L0.449055556,14.375873 C0.449055556,13.775873 0.601912037,13.344127 0.908259259,13.0787302 C1.21460648,12.8114286 1.59325926,12.68 2.04231481,12.68 L8.68047222,12.68 C10.3016389,12.68 11.6735417,12.8152381 12.7961806,13.088254 C13.9194537,13.3619048 14.8657685,13.7733333 15.6357593,14.3244444 C16.4051157,14.8774603 16.9949769,15.5765079 17.4028056,16.4215873 C17.8119028,17.2666667 18.0155,18.2609524 18.0155,19.4057143 C18.0155,20.0469841 17.9349491,20.6495238 17.7706759,21.2152381 C17.607037,21.7822222 17.3691898,22.295873 17.0558657,22.7593651 C16.7419074,23.2222222 16.3575463,23.6311111 15.9021481,23.9860317 C15.4454815,24.3409524 14.9253889,24.6266667 14.3393333,24.8450794 C15.0877593,24.9815873 15.7797361,25.2203175 16.4120926,25.56 C17.0463519,25.9009524 17.5975231,26.3403175 18.0675093,26.8793651 C18.5368611,27.4171429 18.9079028,28.0488889 19.18,28.7707937 C19.4520972,29.4926984 19.588463,30.304127 19.588463,31.2025397 Z M12.6433241,20.0596825 C12.6433241,19.527619 12.5621389,19.0514286 12.3985,18.6273016 C12.2342269,18.2063492 11.9894028,17.8546032 11.6633935,17.5752381 C11.3361157,17.295873 10.9238472,17.0819048 10.426588,16.9307937 C9.92996296,16.7815873 9.26652778,16.7060317 8.43564815,16.7060317 L5.71911574,16.7060317 L5.71911574,23.5765079 L8.72169907,23.5765079 C9.49739815,23.5765079 10.1164352,23.4838095 10.5800787,23.3003175 C11.043088,23.1161905 11.4274491,22.8647619 11.7344306,22.5447619 C12.0401435,22.224127 12.2684769,21.8488889 12.418162,21.4184127 C12.5684815,20.9898413 12.6433241,20.5371429 12.6433241,20.0596825 Z M14.0114213,31.3879365 C14.0114213,30.7752381 13.9093056,30.2253968 13.7057083,29.7415873 C13.5014769,29.2571429 13.2021065,28.8526984 12.806963,28.5257143 C12.4124537,28.1987302 11.9082176,27.944127 11.2961574,27.7688889 C10.683463,27.5930159 9.88683333,27.5022222 8.90626852,27.5022222 L5.72038426,27.5022222 L5.72038426,35.0260317 L9.60078241,35.0260317 C10.3504769,35.0260317 10.9790278,34.9473016 11.4902407,34.7904762 C12.0014537,34.6361905 12.4435324,34.4044444 12.8190139,34.095873 C13.1932269,33.791746 13.4856204,33.408254 13.6968287,32.952381 C13.9067685,32.4965079 14.0114213,31.9714286 14.0114213,31.3879365 Z" id="Shape"></path>
                <path d="M64.4699167,25.6012698 C64.4699167,27.7968254 64.1978194,29.7568254 63.6529907,31.487619 C63.108162,33.2209524 62.298213,34.6888889 61.2225093,35.8946032 C60.1468056,37.1009524 58.8154954,38.0215873 57.229213,38.6565079 C55.6429306,39.287619 53.8073843,39.6050794 51.7244769,39.6050794 C49.6669398,39.6050794 47.8738889,39.3384127 46.3421528,38.7980952 C44.8097824,38.2609524 43.5336528,37.4374603 42.5118611,36.3352381 C41.4907037,35.2292063 40.725787,33.8279365 40.2145741,32.1225397 C39.7033611,30.4190476 39.4477546,28.4025397 39.4477546,26.0704762 C39.4477546,23.9314286 39.7204861,22.0038095 40.2653148,20.2946032 C40.8095093,18.5828571 41.6194583,17.128254 42.6957963,15.928254 C43.7708657,14.7295238 45.1021759,13.8095238 46.6884583,13.168254 C48.2747407,12.5269841 50.1172639,12.2069841 52.214125,12.2069841 C54.2158472,12.2069841 55.9822593,12.472381 57.5146296,13.0050794 C59.0463657,13.535873 60.3256667,14.3542857 61.3544352,15.4584127 C62.3825694,16.5625397 63.1589028,17.9574603 63.6821667,19.6393651 C64.2073333,21.3244444 64.4699167,23.3111111 64.4699167,25.6012698 Z M58.8326204,25.887619 C58.8326204,24.495873 58.7235278,23.2330159 58.5053426,22.0939683 C58.2871574,20.9549206 57.91675,19.9809524 57.3928519,19.1688889 C56.8676852,18.3587302 56.17,17.7314286 55.2978935,17.2888889 C54.4270556,16.8457143 53.3373981,16.624127 52.0301898,16.624127 C50.7090278,16.624127 49.6066852,16.8742857 48.7212593,17.3701587 C47.8364676,17.8679365 47.1210231,18.5326984 46.5761944,19.3638095 C46.032,20.1961905 45.6476389,21.1669841 45.4224769,22.2774603 C45.1979491,23.3898413 45.0856852,24.5644444 45.0856852,25.8038095 C45.0856852,27.2495238 45.1947778,28.5473016 45.4123287,29.7003175 C45.6298796,30.8526984 45.99775,31.8361905 46.5153056,32.6533333 C47.0322269,33.4730159 47.727375,34.0952381 48.5994815,34.5257143 C49.4703194,34.9561905 50.5663194,35.1695238 51.8874815,35.1695238 C53.2080093,35.1695238 54.3109861,34.9244444 55.196412,34.431746 C56.0812037,33.9415873 56.7966481,33.2755556 57.3414769,32.4304762 C57.8863056,31.5853968 58.2713009,30.5987302 58.4951944,29.4742857 C58.7197222,28.3498413 58.8326204,27.1561905 58.8326204,25.887619 Z" id="Shape"></path>
                <path d="M102.370079,14.8857143 C102.370079,15.2819048 102.352954,15.6196825 102.319972,15.8990476 C102.285722,16.1784127 102.234981,16.4031746 102.166481,16.5733333 C102.09925,16.7447619 102.014259,16.8704762 101.912144,16.951746 C101.810028,17.0336508 101.69713,17.0742857 101.574718,17.0742857 L94.9562222,17.0742857 L94.9562222,38.3993651 C94.9562222,38.5384127 94.9124583,38.6603175 94.8242963,38.767619 C94.7348657,38.8768254 94.5889861,38.9650794 94.3853889,39.0342857 C94.1811574,39.1034921 93.9052546,39.1568254 93.5583148,39.1980952 C93.2101065,39.2387302 92.7788102,39.2609524 92.2606204,39.2609524 C91.7424306,39.2609524 91.3111343,39.2393651 90.9629259,39.1980952 C90.6159861,39.1574603 90.3400833,39.104127 90.1358519,39.0342857 C89.9322546,38.9650794 89.786375,38.8768254 89.698213,38.767619 C89.6087824,38.6603175 89.5650185,38.5384127 89.5650185,38.3993651 L89.5650185,17.0742857 L82.9465231,17.0742857 C82.8101574,17.0742857 82.694088,17.0336508 82.5995833,16.951746 C82.5038102,16.8704762 82.422625,16.744127 82.3547593,16.5733333 C82.285625,16.4038095 82.2355185,16.1790476 82.2006343,15.8990476 C82.1663843,15.6196825 82.148625,15.2819048 82.148625,14.8857143 C82.148625,14.4774603 82.16575,14.1301587 82.2006343,13.8425397 C82.2348843,13.5568254 82.285625,13.3288889 82.3547593,13.1574603 C82.4219907,12.9879365 82.5038102,12.8653968 82.5995833,12.7898413 C82.6934537,12.7155556 82.8101574,12.6780952 82.9465231,12.6780952 L101.575352,12.6780952 C101.697764,12.6780952 101.810662,12.7155556 101.912778,12.7898413 C102.014894,12.8653968 102.09925,12.9879365 102.167116,13.1574603 C102.235616,13.3288889 102.286356,13.5561905 102.320606,13.8425397 C102.352954,14.1301587 102.370079,14.4774603 102.370079,14.8857143 Z" id="Shape"></path>
                <path d="M136.578852,36.8888889 C136.578852,37.2971429 136.561727,37.6393651 136.52938,37.9193651 C136.494495,38.1980952 136.442486,38.4311111 136.375255,38.6165079 C136.306755,38.7987302 136.223667,38.9307937 136.119648,39.0120635 C136.018167,39.0977778 135.898292,39.1377778 135.761926,39.1377778 L123.650111,39.1377778 C123.201056,39.1377778 122.822403,39.0031746 122.515421,38.7390476 C122.210977,38.471746 122.056852,38.0380952 122.056852,37.4380952 L122.056852,13.4139683 C122.056852,13.2787302 122.100616,13.1561905 122.190681,13.0463492 C122.278843,12.9365079 122.424088,12.848254 122.627685,12.7809524 C122.833185,12.711746 123.108454,12.6584127 123.456662,12.615873 C123.803602,12.5765079 124.234898,12.5561905 124.752454,12.5561905 C125.285231,12.5561905 125.719065,12.5765079 126.060296,12.615873 C126.400259,12.6584127 126.672356,12.711746 126.877856,12.7809524 C127.081454,12.848254 127.227968,12.9365079 127.315495,13.0463492 C127.404926,13.1561905 127.44869,13.2787302 127.44869,13.4139683 L127.44869,34.6984127 L135.761292,34.6984127 C135.898292,34.6984127 136.017532,34.7365079 136.119014,34.8114286 C136.223032,34.8869841 136.30612,35.0095238 136.37462,35.1790476 C136.441852,35.351746 136.493861,35.5752381 136.528745,35.8539683 C136.561727,36.1346032 136.578852,36.4768254 136.578852,36.8888889 Z" id="Shape"></path>
                <path d="M51.9661296,3.22349206 L54.3769491,5.82095238 C54.3769491,5.82095238 54.9401713,6.46666667 55.8769722,6.46666667 L58.7882222,6.46666667 C58.7882222,6.46666667 60.0992361,6.34857143 59.2074676,5.36063492 C58.3169676,4.36761905 55.4069861,1.01206349 54.6427037,0.533333333 C54.0541111,0.173333333 52.7183611,0.0793650794 51.9654954,0.0793650794 C51.2202407,0.0793650794 49.9028843,0.172698413 49.3212685,0.533333333 C48.5614259,1.01142857 45.6901343,4.36698413 44.8059769,5.36063492 C43.923088,6.34857143 45.2188796,6.46666667 45.2188796,6.46666667 L48.0990509,6.46666667 C49.0231667,6.46666667 49.579412,5.82095238 49.579412,5.82095238 L51.9661296,3.22349206 Z" id="Shape"></path>
            </g>
            <text id="UPCYCLED-GLASSWARE" font-family="Helvetica" font-size="12" font-weight="normal">
                <tspan x="8" y="65">UPCYCLED GLASSWARE</tspan>
            </text>
        </g>
    </g>
</svg>