<?xml version="1.0" encoding="UTF-8"?>
<svg width="14px" height="14px" viewBox="0 0 14 14" version="1.1" xmlns="http://www.w3.org/2000/svg" xmlns:xlink="http://www.w3.org/1999/xlink">
    <!-- Generator: Sketch 46.2 (44496) - http://www.bohemiancoding.com/sketch -->
    <title>phone</title>
    <desc>Created with Sketch.</desc>
    <defs></defs>
    <g id="Page-1" stroke="none" stroke-width="1" fill="none" fill-rule="evenodd">
        <g id="phone">
            <g id="noun_1223232_cc">
                <rect id="Rectangle" x="0" y="0" width="14" height="14"></rect>
                <g id="Group" transform="translate(4.000000, 1.000000)" fill-rule="nonzero" fill="#FFFFFF">
                    <path d="M0,10.4651163 C0,11.3162791 0.668181818,12 1.5,12 L5.04545455,12 C5.87727273,12 6.54545455,11.3162791 6.54545455,10.4651163 L6.54545455,1.53488372 C6.54545455,0.68372093 5.87727273,0 5.04545455,0 L1.5,0 C0.668181818,0 0,0.68372093 0,1.53488372 L0,10.4651163 Z M5.04545455,11.7209302 L1.5,11.7209302 C0.818181818,11.7209302 0.272727273,11.1627907 0.272727273,10.4651163 L0.272727273,9.90697674 L6.27272727,9.90697674 L6.27272727,10.4651163 C6.27272727,11.1627907 5.72727273,11.7209302 5.04545455,11.7209302 Z M1.5,0.279069767 L5.04545455,0.279069767 C5.67272727,0.279069767 6.19090909,0.76744186 6.25909091,1.39534884 L0.286363636,1.39534884 C0.354545455,0.76744186 0.872727273,0.279069767 1.5,0.279069767 Z M6.1500001,1.6744186 L6.1500001,9.36279095 L0.349999905,9.36279095 L0.349999905,1.6744186 L6.1500001,1.6744186 Z" id="Shape"></path>
                    <path d="M3.27272727,10.1860465 C2.94545455,10.1860465 2.67272727,10.4651163 2.67272727,10.8 C2.67272727,11.1348837 2.94545455,11.4139535 3.27272727,11.4139535 C3.6,11.4139535 3.87272727,11.1348837 3.87272727,10.8 C3.87272727,10.4651163 3.6,10.1860465 3.27272727,10.1860465 Z M3.27272727,11.1488372 C3.09545455,11.1488372 2.94545455,10.9953488 2.94545455,10.8139535 C2.94545455,10.6325581 3.09545455,10.4651163 3.27272727,10.4651163 C3.45,10.4651163 3.6,10.6186047 3.6,10.8 C3.6,10.9813953 3.45,11.1488372 3.27272727,11.1488372 Z" id="Shape"></path>
                </g>
            </g>
        </g>
    </g>
</svg>