<?xml version="1.0" encoding="UTF-8"?>
<svg width="200px" height="200px" viewBox="0 0 200 200" version="1.1" xmlns="http://www.w3.org/2000/svg" xmlns:xlink="http://www.w3.org/1999/xlink">
    <!-- Generator: Sketch 46.2 (44496) - http://www.bohemiancoding.com/sketch -->
    <title>clients/broaster</title>
    <desc>Created with Sketch.</desc>
    <defs></defs>
    <g id="Page-1" stroke="none" stroke-width="1" fill="none" fill-rule="evenodd">
        <g id="clients/broaster">
            <g id="Group" transform="translate(32.000000, 43.000000)">
                <path d="M50.6815308,19.094275 C47.1375308,21.4332785 45.5435132,22.6761799 45.5435132,22.6761799 C43.8321445,24.5591267 42.8307494,26.7650321 42.6938399,29.3271706 C42.5901798,29.4191649 42.4650055,29.4915859 42.353522,29.5953242 C33.2040562,39.2684248 29.5603079,50.6776728 31.6276412,63.8720014 C28.568692,63.88766 25.519522,63.9170198 22.4488377,63.9033186 C21.8307892,63.8954893 21.5158973,64.0227154 21.4063697,64.6960352 C21.206873,65.778436 20.8900254,66.8295196 20.6044713,68 C19.6950011,65.4359041 17.7821799,64.3417594 15.2982505,64.032502 C15.2904271,63.7780498 15.2982505,63.5294695 15.278692,63.2750172 C14.8210232,58.3425579 14.8933896,53.4140133 15.748096,48.5265726 C17.7528421,36.9666105 22.8145817,26.933362 31.265809,18.7889323 C45.3303255,5.25794385 62.1310761,0.317655292 81.1321577,4.37910488 C98.8071731,8.14108373 111.436096,18.7732737 119.138233,35.114981 C123.431323,44.2439452 124.761301,53.9444484 123.599526,63.965953 C122.03289,64.36329 120.462343,64.0070568 118.882016,64.0148861 C115.355619,64.0364167 111.827266,63.948337 108.308692,63.9111479 C108.500365,62.4059649 108.785919,60.9183978 108.850462,59.4171294 C109.286617,50.8577468 107.264268,42.9266654 102.533067,35.7511116 C98.4453409,29.5346471 93.0471952,24.8057496 86.2408376,21.7288346 C85.2785594,19.5659903 84.0131246,18.9122438 81.583959,19.3213247 C81.2025683,19.3898311 80.8192217,19.497484 80.4417427,19.5894782 C74.1243476,17.7730806 67.773703,17.6438971 61.3839414,19.0962323 C61.21965,18.6988953 61.0514469,18.3074303 60.8988906,17.902264 C60.4216633,16.6887224 59.6197648,15.9116644 58.2506699,15.9077497 C58.248714,15.9057924 55.3110275,16.0525918 50.6815308,19.094275 Z M57.5817692,15.3949306 C57.9181754,15.132649 56.8893984,12.6253155 56.6996809,11.1377485 C57.597416,12.284741 58.5831644,13.386715 59.3733277,14.6041712 C60.0656986,15.6630841 60.7874072,15.8040115 61.9589613,15.4810529 C63.0131644,15.1972407 63.2302637,14.8703674 62.9212394,13.8271131 C62.3716456,12.0028862 61.9550496,10.1375553 61.5423652,8.28201113 C61.3819855,7.54214224 61.0181975,7.57541677 60.4607803,7.74961871 C59.9600827,7.91011936 59.3635485,7.87293019 59.6236765,8.73806788 C60.0285374,10.135598 60.3571202,11.5585734 60.5331467,13.0696283 C59.5278399,11.809111 58.4931953,10.5779535 57.5348288,9.29394821 C57.1534381,8.76938508 56.8013851,8.6617322 56.1833366,8.83006216 C54.0984006,9.39377179 54.0827538,9.36636924 54.6127891,11.495939 C54.9413719,12.8230054 55.1252218,13.5667889 55.5105242,14.8801541 C55.6865507,15.4751809 55.4714072,15.5652178 54.9413719,15.8470727 C53.4216765,16.6554479 53.0539767,16.4381848 52.0760518,17.1663098 C51.6594558,17.4794818 51.5479723,17.8552882 50.6815308,17.6360678 C50.6424138,17.5871347 50.3001401,17.7476353 50.1202019,17.8533309 C49.4982416,18.1958628 48.8665021,18.5520959 48.256277,18.9239877 C47.8201224,19.184312 47.4778487,19.5190145 47.0788553,18.786975 C46.7541843,18.1743322 46.7541843,17.8494162 47.4309083,17.5597321 C47.9237825,17.3463837 48.3442902,16.9549187 48.8449878,16.7689728 C49.7388112,16.4381848 49.5627847,15.9723415 49.1657472,15.3459974 C48.9095308,14.9447458 48.7041666,15.0328254 48.3873189,15.2207286 C47.7790496,15.596535 47.1257957,15.9057924 46.5390408,16.3109587 C45.9738001,16.7082957 45.7664801,16.4499288 45.480926,15.9684268 C45.2090628,15.5025834 45.2012394,15.2363872 45.7214955,14.9799776 C46.366926,14.662891 46.9634602,14.2322794 47.604979,13.9210648 C48.1702196,13.6411673 48.2993057,13.3730137 47.9413851,12.7779869 C47.6128024,12.2436371 47.3761445,12.2181919 46.8676235,12.5294066 C45.6256589,13.3045073 44.3426213,14.0482909 43.0478487,14.7392266 C42.5139017,15.0269534 42.5393277,15.2696617 42.8072792,15.7178892 C43.8047626,17.3894448 44.7103211,19.1118909 45.7606125,20.7403854 C45.7606125,20.7403854 46.1498266,21.3451989 46.5331732,21.1886129 C47.0456059,20.9615631 49.2381136,19.48574 50.8145286,18.4816322 C54.0319017,16.4323129 57.2570981,15.6611268 57.5817692,15.3949306 Z M93.7708597,19.2332451 C93.7708597,18.7713164 93.7552129,18.5873278 93.7708597,18.4052966 C93.8666963,17.4090181 93.9390627,16.3951237 94.0642371,15.3949306 C94.3361003,13.1420494 94.3361003,13.1616226 92.3000605,12.0420327 C91.799363,11.7758364 91.5979104,11.8286842 91.3143122,12.3141008 C90.301182,14.1383278 89.2900076,15.9566829 88.177129,17.7300194 C87.707725,18.4894615 88.1204093,18.6675781 88.6543564,19.01011 C89.2724049,19.4035324 89.5794733,19.3780871 89.949129,18.6675781 C90.6102062,17.3581276 91.4042813,16.1113115 92.1299016,14.8370929 C92.2707228,15.1757101 92.2707228,15.4242904 92.255076,15.6709134 C92.1670627,16.6456613 92.0829612,17.6086652 91.9695219,18.5755838 C91.7093939,20.8891421 91.7093939,20.8695689 93.7121842,21.9265244 C94.1737647,22.1672754 94.365438,22.1183423 94.6216544,21.6603282 C95.6562989,19.8086987 96.6889877,17.9531545 97.8116455,16.1524154 C98.2732261,15.4105892 97.8507625,15.2403019 97.3500649,14.9838923 C96.8963078,14.7431413 96.5168729,14.2812126 96.0924535,15.132649 C95.4528906,16.4499288 94.6627272,17.6908729 93.7708597,19.2332451 Z M36.3295044,22.5058927 C37.2917825,22.7055398 37.5636456,21.7640664 38.1445331,21.3295403 C38.3127361,21.2042715 38.2560165,21.0046243 38.0995485,20.8695689 C37.5792924,20.3998108 36.9534205,20.3156459 36.2845198,20.4213414 C36.0791556,20.4546159 35.8757472,20.527037 35.6762505,20.6151166 C34.706149,21.0711734 33.976617,21.8071276 33.3800827,22.6840092 C32.1772351,24.4553885 32.4412748,26.3187619 34.1174381,27.8983233 C35.6449569,29.3271706 37.5636456,29.4426528 39.2104712,28.1625622 C40.1492792,27.426608 40.84165,26.4675187 41.559447,25.518216 C42.0327626,24.8977439 42.0034249,24.5023643 41.3599503,24.0326062 C40.8475176,23.6548425 40.3937604,23.1694259 39.9888995,22.664436 C39.3708509,21.9226098 38.8271247,21.7366639 38.1856059,22.6487774 C37.9000518,23.0539437 37.4834558,23.3710303 37.1353145,23.7311782 C36.7754381,24.0991553 36.3451512,24.3633942 36.9514646,24.9858236 C37.5616898,25.596509 37.8570231,25.2872516 38.2090761,24.8351095 C38.5689525,24.3790528 38.8505949,24.476919 39.239809,24.8605547 C39.5996854,25.2187452 39.7013896,25.4653682 39.3278222,25.8979371 C38.5259238,26.8648557 37.6575264,27.2191315 36.7030717,26.8648557 C35.6762505,26.4831773 34.6103123,25.1247936 34.6181357,24.1833203 C34.6181357,23.2379322 35.4395927,22.3923678 36.3295044,22.5058927 Z M68.7046875,9.88506039 C68.6401445,9.88506039 68.5834248,9.88506039 68.5012791,9.88506039 C68.5012791,10.6425452 68.4778089,11.394158 68.5051908,12.1477282 C68.5501754,13.3847577 69.1388862,14.2812126 70.3319546,14.6863789 C71.3665992,15.042612 72.4403608,15.1306917 73.5180341,14.89777 C75.0416411,14.5748113 75.6870716,13.9054062 75.8415838,12.3493327 C75.9980517,10.8872108 75.9824049,9.40551574 76.1427846,7.94535122 C76.2542681,6.90209694 75.4973542,7.22114093 75.0279502,7.13501862 C74.4822681,7.04302434 73.962012,6.99800587 73.9698354,7.87488751 C73.9854822,9.09625838 73.9092041,10.3235012 73.8211908,11.5370428 C73.7253542,12.8934691 73.12882,13.4963252 72.086352,13.3828003 C71.0966919,13.2673182 70.6546699,12.5959557 70.7348597,11.3119504 C70.8111378,10.0944942 70.8385197,8.86920866 70.9343564,7.65370978 C71.0380164,6.42450961 70.0679149,7.02540842 69.5828641,6.86295043 C69.0899899,6.69462048 68.6655705,6.80618801 68.7007758,7.51082504 C68.7438045,8.29766973 68.7046875,9.09234373 68.7046875,9.88506039 Z M107.845155,24.2087655 C107.772789,24.1206859 107.712158,24.0326062 107.631968,23.9543132 C106.48584,22.7564303 105.324065,21.5820352 104.193584,20.3743656 C103.845442,20.0063885 103.655725,20.2275662 103.415155,20.4702745 C101.811359,22.0283053 100.217341,23.5882934 98.6018089,25.1287083 C98.3377691,25.3909899 98.3221223,25.5514905 98.5939855,25.819644 C99.7635837,26.9940391 100.909712,28.1860501 102.05584,29.389805 C102.335526,29.6990624 102.525244,29.6755745 102.842091,29.3976343 C103.376038,28.9239617 103.632255,28.534454 102.930105,27.974659 C102.429407,27.5694927 102.001076,27.0625455 101.547319,26.6104034 C101.195266,26.2541702 100.782581,25.993846 101.394763,25.4320937 C101.960003,24.9173172 102.288586,24.9173172 102.732564,25.5358319 C103.041588,25.9684008 103.481654,26.3089753 103.855222,26.7023977 C104.211186,27.0723321 104.436109,27.4422666 105.02482,26.8648557 C105.590061,26.2991887 105.39252,25.9860167 104.94463,25.5749784 C104.547593,25.2070013 104.150555,24.8272802 103.798502,24.4240713 C103.538374,24.1265578 102.90859,23.922996 103.561844,23.3455851 C104.054718,22.9032296 104.379389,22.6507347 104.88791,23.3142679 C105.320153,23.8916788 105.893217,24.3516502 106.393915,24.8664267 C106.585588,25.0543299 106.730321,25.3988192 107.086286,25.0797752 C107.352281,24.8135789 107.733672,24.6354624 107.845155,24.2087655 Z M82.8161444,16.7082957 C83.1251687,16.7513569 83.0801842,16.3383613 83.160374,16.0565064 C83.7099678,14.2087915 84.1695926,12.3180155 84.8306698,10.5035751 C85.2355308,9.40355842 84.9030363,9.07081315 83.8918619,8.89856854 C83.3989877,8.81048891 82.97848,8.50514619 82.7652923,9.29199089 C82.1922283,11.394158 81.5702681,13.4884959 80.9502637,15.5867484 C80.8466036,15.9057924 80.789884,16.1347994 81.1790981,16.2522389 C81.662193,16.3872944 82.1394204,16.5203925 82.8161444,16.7082957 Z" id="Shape" fill="#B42527"></path>
                <path d="M94.3194254,87.6560741 C95.0834908,87.7421261 95.353161,87.2707958 95.4997208,86.6371401 C97.4225863,85.1097171 99.0112953,83.238086 100.648858,81.4349054 C100.244352,83.2126616 99.8476636,84.9943292 99.4158005,86.7701296 C99.2516535,87.4428998 99.3395894,87.6971443 100.140783,87.6971443 C105.094507,87.68541 110.052139,87.7303917 115,87.7519047 C114.824128,88.0589539 114.671706,88.3894718 114.458706,88.6789195 C100.811051,106.941501 82.6688928,114.711606 60.159251,111.161961 C45.4798145,108.84638 33.9308968,100.994134 25.2096075,88.9664114 C24.8422307,88.4481436 24.6214138,87.8027536 24,87.4820143 C24.6604965,84.8476496 25.365938,82.2230635 25.930682,79.5652301 C26.1475906,78.5912779 26.7592338,79.1936419 27.163739,79.0938998 C27.7362996,78.949176 27.7929694,79.4909125 27.7206666,79.8448991 C27.4197303,81.4837986 27.0679866,83.1109638 26.7279677,84.7420403 C26.7006099,84.9161001 26.598995,85.0803812 26.583362,85.2524852 C26.346912,87.2414599 26.6634814,87.5974022 28.633246,87.5974022 C30.3665607,87.5974022 32.0842424,87.6013137 33.8019241,87.5974022 C34.9235956,87.5934908 35.3202843,86.9168091 34.8200266,85.8744065 C34.5796684,85.3815632 34.3666681,84.9004543 34.8884212,84.4154339 C35.7892759,86.9930825 37.8801967,87.8829384 40.3580356,88.1391387 C42.368837,88.3484015 44.373776,88.2349694 46.3611278,87.8672926 C61.0014817,98.8995505 79.9585123,98.8174099 94.3194254,87.6560741 Z M96.4689701,94.0395681 C97.5417884,94.6810466 98.6282855,95.3107908 99.6932872,95.9718267 C101.539942,97.11006 101.522354,97.0905027 103.200953,95.7332279 C103.636725,95.3792413 103.589826,95.1778014 103.296706,94.7964346 C101.850649,92.9228478 100.377233,91.0570839 99.0034788,89.1248253 C98.4739091,88.3757817 98.1944683,88.8314662 97.7547887,89.1209138 C97.2857971,89.4338302 96.9985398,89.6724289 97.4831644,90.274793 C98.4563219,91.4756095 99.3298188,92.7370537 100.250215,93.9750291 C100.20527,94.025878 100.170095,94.0786826 100.131013,94.133443 C99.0249742,93.4763186 97.9130734,92.8211499 96.8070349,92.1640256 C95.0815367,91.1274901 95.101078,91.1431359 93.4713322,92.3713327 C92.9710746,92.7468323 92.8264688,92.963918 93.2661484,93.5291232 C94.7200223,95.3538168 96.1484925,97.2000234 97.4948892,99.1009904 C98.0244589,99.8461225 98.3117162,99.4002167 98.7572582,99.1146805 C99.2809655,98.7704725 99.5017823,98.5025378 98.9858916,97.8923509 C98.0322754,96.7345603 97.164641,95.4965849 96.259878,94.2918569 C96.3399974,94.2038492 96.3966672,94.1197529 96.4689701,94.0395681 Z M56.2294924,97.2489166 C56.1689143,97.1609089 56.1337399,97.0689897 56.0653453,96.9946721 C55.2934633,96.1380635 54.2831773,96.3082118 53.8278646,97.3662603 C53.6793506,97.6967782 53.4878457,98.0155617 53.3999098,98.3539026 C53.2005884,99.1655294 52.8273493,99.2281127 52.1062747,98.8663031 C50.8321809,98.2189574 50.8087313,98.2619834 51.3969249,96.9340445 C51.5415307,96.5996151 51.6607327,96.2534514 51.8366045,95.9483579 C52.4169816,94.9822286 51.5004939,95.0232989 51.0510436,94.7690544 C50.5898686,94.5108984 50.1853633,94.2253622 49.8570692,95.0624135 C49.0285174,97.131573 48.131571,99.1655294 47.1701383,101.172106 C46.7812661,101.987644 46.9063305,102.31425 47.7348823,102.656503 C48.4911312,102.979198 48.8800034,102.936172 49.1164534,102.104988 C49.2317471,101.694285 49.5326834,101.33052 49.6206193,100.919817 C49.8492527,100.004536 50.269391,99.9967135 51.0823097,100.30963 C52.1394949,100.720333 52.3759449,101.205353 51.7428062,102.148014 C51.5102646,102.505912 51.4301452,102.955729 51.2093283,103.325361 C50.6641256,104.19566 51.4301452,104.221085 51.8932744,104.449905 C52.393532,104.684592 52.8468906,105.099206 53.2064508,104.183926 C54.0799476,102.01698 55.0648299,99.9008829 55.9969507,97.7613172 C56.0653453,97.5989918 56.1415564,97.4366664 56.2294924,97.2489166 Z M81.7778088,97.8591035 C81.3010007,97.9510227 81.0215599,98.0488091 80.7440732,98.0488091 C79.6712549,98.0488091 79.0908779,98.551431 78.7743085,99.6055681 C78.5534917,100.383948 78.2896839,101.207309 77.6682701,102.034581 C77.5197561,101.260113 77.400554,100.679262 77.2950309,100.090588 C77.0194984,98.6863762 76.8025898,98.5827227 75.4053857,99.0520972 C75.0770916,99.1694409 74.9285776,99.2946074 74.9930639,99.6583727 C75.4737803,102.083475 75.9505884,104.514444 76.4137176,106.949324 C76.6189014,108.023018 77.3223888,107.268108 77.7581601,107.275931 C78.0786377,107.283754 78.7352259,107.403053 78.5359045,106.528843 C78.2838215,105.478617 77.9750687,104.412746 77.9750687,103.047648 C78.6003908,103.790825 79.1807679,104.301269 79.5246951,104.936881 C80.3981919,106.509286 81.6273407,106.894564 83.2492699,106.255041 C83.2981232,106.235484 83.3293893,106.163122 83.3645636,106.112273 C83.3645636,106.079026 83.3723802,106.028177 83.3606554,106.012531 C82.3835896,104.862563 81.4377899,103.691082 80.4138249,102.584141 C80.0327693,102.169527 80.0015032,101.835097 80.2301366,101.365723 C80.7440732,100.25487 81.2130648,99.1381492 81.7778088,97.8591035 Z M93.2817815,102.073696 C93.2251117,101.181884 92.6056519,100.796606 91.8161828,101.146681 C91.2201727,101.404837 90.6183001,101.659082 90.0457396,101.944618 C89.576748,102.185172 89.3481146,102.116722 89.0764903,101.598454 C88.6876181,100.843543 88.775554,100.440664 89.6099682,100.205976 C90.02229,100.086677 90.3955291,99.8382996 90.7922178,99.6857529 C91.3647784,99.4706229 91.7771002,99.304386 91.4175399,98.4927592 C91.061888,97.6654865 90.6534745,97.8610593 90.1082718,98.1329054 C89.6920417,98.3402125 89.250408,98.5025378 88.8380862,98.723535 C88.2733422,99.0325399 87.929415,99.0364514 87.6284788,98.3284781 C87.3568545,97.6557079 87.4760565,97.3936404 88.1287365,97.1667761 C88.7970495,96.9320888 89.4262798,96.5781021 90.0945929,96.3121232 C90.735548,96.0637459 90.3877126,95.6902019 90.2137949,95.3870642 C90.0457396,95.0858822 90.141492,94.4170234 89.4008761,94.7670986 C88.0349382,95.40271 86.6455506,95.9933397 85.2678878,96.5859251 C84.8477495,96.7580291 84.7519971,96.9712033 84.943502,97.3936404 C85.9518339,99.6212139 86.9386703,101.846832 87.9098737,104.088095 C88.1013786,104.530089 88.2772505,104.588761 88.7032512,104.389277 C90.0691891,103.753666 91.4703015,103.172815 92.8362395,102.548938 C93.0257902,102.466797 93.3775339,102.462886 93.2817815,102.073696 Z M64.1574042,104.009866 C64.2101658,104.332561 64.2609732,104.913412 64.4094872,105.45906 C64.8022677,106.925855 65.8829024,107.760951 67.5927676,107.888073 C68.9176688,107.983904 70.2152122,107.854826 70.9362867,106.487773 C71.1199751,106.124007 71.5166638,105.668323 71.0652594,105.241974 C70.7213322,104.919279 69.1345774,105.124631 68.9665221,105.50013 C68.7183474,106.041867 68.3138421,106.237439 67.7725477,106.196369 C67.2117119,106.15921 66.7954819,105.865851 66.6117935,105.359318 C66.1467102,104.039202 66.2385544,102.71713 66.8756013,101.496756 C67.375859,100.518893 68.638228,100.530627 69.0935406,101.496756 C69.5937983,102.517646 70.5825889,102.157792 71.1277916,102.022847 C71.7081687,101.868345 71.2802139,101.03716 71.0398557,100.548229 C70.8913417,100.241179 70.6353505,99.9497761 70.3559096,99.7385575 C68.489714,98.3089208 65.5389753,99.0833889 64.6420289,101.232733 C64.3059182,102.040449 64.1808538,102.893146 64.1574042,104.009866 Z M45.6771818,94.843372 C46.5584951,93.3394177 46.4627427,92.1835828 45.3762455,91.0590396 C43.9829497,89.6078899 42.3610204,89.2539033 40.8192106,90.1730951 C39.4532726,90.9964563 38.4683903,92.1816271 38.0130776,93.7286074 C37.3447646,96.0148527 39.4102817,98.5885898 41.7884599,98.4849363 C42.4724059,98.4575561 43.0293334,98.1602856 43.5061416,97.690911 C43.6175271,97.583346 43.7914448,97.4855596 43.734775,97.2684739 C43.6097105,96.8421253 42.116754,96.0754802 41.7278818,96.2788759 C41.2158993,96.5565891 40.7547243,96.4998731 40.334586,96.1361078 C39.9300807,95.7801654 39.7620254,95.3107908 39.9222642,94.7768773 C40.3267695,93.4469827 41.1201469,92.4006686 42.3453874,91.7552786 C43.1231318,91.3543544 44.2838859,91.8960909 44.1275554,92.6392673 C43.8402981,94.0747712 45.0166853,94.2077606 45.6771818,94.843372 Z M59.0317171,106.564046 C59.5476078,106.771353 59.5847363,106.413455 59.6648557,106.032088 C60.2139667,103.726286 60.7376739,101.424394 61.3336841,99.132282 C61.6131249,98.0664106 60.7650318,98.2874078 60.2804071,98.121171 C59.7840577,97.9451556 59.3267909,97.8062989 59.1665521,98.6687747 C58.7542304,100.741846 58.2051194,102.783625 57.7204948,104.846917 C57.3667969,106.301978 57.4547329,106.401721 59.0317171,106.564046 Z" id="Shape" fill="#B42527"></path>
                <path d="M62.8632896,55.1938062 C59.3289164,56.682983 56.5355589,59.1073629 54.3493686,62.2842734 C53.9788608,62.8183915 53.561797,63.336625 53.2766418,63.9144256 C52.7315491,65.0045031 52.052608,65.4452994 50.9158667,64.529952 C51.511395,63.336625 52.3513421,62.2286775 53.18159,61.1048454 C53.6064131,60.534987 53.7868175,60.0663927 53.4163096,59.3515879 C51.833407,56.3494074 52.1631784,53.2161794 52.9041941,50.0710379 C53.6626682,46.8762572 54.8847622,43.8383365 56.0874578,40.7984302 C56.360974,40.1034811 56.8342929,39.5594351 57.2998525,39.0094325 C57.5384518,38.735424 57.7964494,38.4713433 57.9865529,38.1695368 C58.2096336,37.8061776 58.5394049,37.357439 58.2329115,36.9821664 C57.9186588,36.6068939 57.4375806,36.8372199 57.0399151,37.0059933 C54.7218163,37.974951 53.4376478,39.9108809 52.4250557,42.0930213 C52.075886,42.8733499 51.7771519,43.6755199 51.4144034,44.5392424 C50.9255658,43.7986251 50.8731904,43.7708272 51.1796838,43.0083686 C51.6045069,41.9679304 51.5288535,41.1697317 50.8382734,40.1928317 C49.8761169,38.8525725 49.9634094,37.2303626 50.5007427,35.6836043 C50.9255658,34.4604937 51.1486465,33.2294409 50.9507837,31.9328642 C50.8945285,31.4940535 50.7471013,31.0909829 50.5531182,30.6998258 C50.3183985,30.2590295 50.048762,29.8976559 49.472632,30.0465736 C48.91978,30.1954913 48.7936909,30.5806917 48.7723528,31.1128242 C48.6288052,33.8469528 48.446461,36.5810815 47.9265862,39.269542 C47.5968148,40.9612469 47.1040976,42.5755146 46.2369928,44.1877967 C47.0827594,44.2096379 47.3659748,43.550429 47.8237751,43.1791276 C48.3358906,42.7720859 48.7219171,41.9182912 49.4939701,42.2697369 C50.221407,42.5973558 49.8508991,43.4372516 49.8838763,44.0587347 C49.9595297,45.172639 49.5890219,46.1912359 49.2592505,47.2475587 C48.273816,50.3093062 46.5357269,52.7317005 43.8529398,54.4611312 C43.0013537,55.0091482 42.6133874,55.9920049 42.3864271,56.941107 C41.6667495,59.8678358 40.5261286,62.7111708 40.6173006,65.8046874 C40.62506,66.2931374 40.578504,66.2931374 39.4126652,67 C38.5028842,64.0315742 39.288516,61.1584557 39.9383596,58.2813661 C40.2797699,56.812045 40.8054643,55.4578869 40.7181719,53.8277346 C40.578504,51.2385525 41.6201936,48.8975666 43.055669,46.711455 C44.8403141,43.997182 46.0003334,40.9890449 46.4814116,37.7267549 C46.6365981,36.7041868 46.8829568,35.6994888 46.8674381,34.6451516 C46.8596788,33.9025488 46.7568677,33.2433398 45.9421384,32.9177065 C45.635645,32.7985724 45.3504898,32.5523618 45.1235295,32.3021801 C44.5861961,31.7084949 43.3311251,31.8812394 43.4416955,30.6084897 C43.5134692,29.7249114 43.3854404,28.8353765 43.6395583,27.9319425 C44.7452623,23.9568332 47.4881842,21.3855212 50.750981,19.3344283 C52.7296092,18.0974188 54.8847622,17.1860426 57.2532966,17.0232259 C58.8439585,16.9140196 59.1135951,17.1463312 59.7382209,18.6672771 C60.2192991,19.842734 60.7081367,21.0142198 61.292026,22.1440086 C61.5985194,22.7436505 61.4433329,22.9719909 60.8982402,23.1665767 C60.1184279,23.4306574 59.367713,23.8039444 58.7353279,24.3340913 C58.0990631,24.8642383 57.8061486,24.6140566 57.4278814,24.0283137 C56.5821148,22.6741556 55.635477,21.3914779 54.7994096,20.0293775 C54.275655,19.1755828 53.7887573,19.5528409 53.2262061,19.9201712 C52.5104083,20.4006789 53.1738307,20.7223411 53.377513,21.0340755 C54.2523771,22.3227098 55.1388801,23.607373 56.0835781,24.8463681 C56.5491377,25.4658657 56.533619,25.8451094 55.8973543,26.3415017 C54.3745865,27.5169586 53.1738307,29.0041498 52.1243818,30.6422443 C51.7829714,31.1862903 51.707318,31.6767258 51.9420376,32.4749246 C52.2912073,32.0281716 52.5550244,31.7164372 52.801383,31.3888183 C55.2649692,28.0570334 58.0874242,25.1501602 61.9476891,23.5398637 C63.6256434,22.8369722 65.3501537,22.4398584 67.1638963,22.5669348 C69.3578458,22.7237948 70.7816822,24.5028647 70.5392033,26.7545 C70.0018699,31.97059 67.1289793,35.6855898 63.2240983,38.7433662 C61.6547745,39.9664768 59.9651812,40.9751459 58.1999344,41.8607097 C57.4880162,42.2200977 57.0399151,42.7343601 56.75282,43.4868908 C55.4841701,46.725354 54.5782688,50.0531678 54.4192026,53.5457838 C54.3629475,54.9257543 54.506495,56.3116816 55.105903,57.6082582 C55.3522616,58.1384051 55.5559439,58.2873228 56.0001653,57.8226996 C58.1902352,55.5551797 60.8613834,54.153368 63.8273859,53.2737609 C64.4869287,53.0712328 64.7488059,52.5649127 64.9602476,51.9454151 C65.1193138,51.4827775 65.0805171,51.323932 64.5819804,51.2306103 C63.8429046,51.0836781 63.1154677,50.8930635 62.4151885,50.6289828 C61.4898888,50.2775371 61.4375134,49.9201347 62.1921079,49.2807814 C63.6120646,48.0735554 65.0262018,46.8484593 66.0310346,45.015779 C64.2463895,44.6206507 62.5490369,44.1758833 60.8206469,43.8740768 C59.9302642,43.7172168 59.9981583,43.3617999 60.3958238,42.8117973 C62.1610705,40.3496916 64.4733498,38.8545581 67.4800888,38.6818136 C68.1202333,38.6401166 68.4422453,38.435603 68.6963633,37.873687 C69.7050757,35.5307154 71.3597521,33.8350394 73.7127678,32.9316055 C74.2248834,32.7370197 74.1783274,32.4788957 74.1783274,32.0321427 C74.193846,27.8703899 75.6933359,24.3618893 78.7776682,21.6118761 C79.7747416,20.7163844 80.979377,20.2676458 82.32756,20.331184 C83.7707947,20.3947222 84.63208,21.2227045 84.8124843,22.6900401 C84.9152954,23.5656761 84.804725,24.4393265 84.6941546,25.3070202 C84.6708766,25.4082842 84.6553579,25.5055771 84.6417791,25.6048555 C84.7251919,25.5969133 84.8202436,25.588971 84.9075361,25.5810287 C86.1082918,25.2057561 87.2838298,25.1759726 88.1586938,26.2422232 C89.2275411,27.5586555 89.1693461,29.1054138 88.5873966,30.5906195 C88.2964219,31.3431502 88.0636421,31.8276291 88.5951559,32.6675248 C89.3458708,33.850924 88.6106746,35.0700634 87.9821692,36.1323429 C87.568985,36.8272921 87.1596806,37.3415544 87.8541403,38.1754935 C88.3119405,38.7274817 88.1160175,39.5713485 87.8890572,40.2841678 C87.407979,41.8567386 86.4613412,43.0520512 85.0549633,43.8522355 C84.5583664,44.1361719 84.2673916,44.4896032 84.0501305,45.0276924 C82.2616057,49.3065938 81.716513,53.6966871 82.5913771,58.3032074 C83.064696,60.7851687 84.3449849,62.5582819 86.3798682,63.8508874 C87.9336734,64.8277874 87.9336734,64.8357297 87.3012883,66.7756307 C86.2072232,65.4036024 84.8008453,64.7026966 83.1519884,64.355222 C82.1102989,64.1308527 81.7805275,63.1162269 81.4701544,62.258461 C80.7698752,60.3245167 80.4323445,58.3071785 80.3334131,56.2600568 C80.1219715,51.955343 80.9289414,47.8392582 82.488566,43.8502499 C83.260619,41.8587241 83.7843735,39.8116024 83.2392809,37.6592455 C82.3644168,34.1388315 78.9774708,32.3756461 75.0784093,33.3863008 C74.1802672,33.6166268 73.3286811,33.9442457 72.5178315,34.5935268 C73.6351745,35.2269234 73.3674778,36.164112 73.0823225,37.0735026 C72.892219,37.6930002 72.6885367,38.3859638 72.2869916,38.8426447 C71.8291913,39.3469792 71.1133934,38.4753144 70.4790685,38.910154 C72.6419808,39.7401219 74.5371962,40.9155788 75.7340724,43.0043975 C75.9241758,43.3518721 76.2073913,43.3995258 76.533283,43.421367 C76.7680026,43.4412227 76.9794442,43.5663136 76.9581061,43.808553 C76.91349,44.0984461 76.6438534,44.0289512 76.4324117,44.0468213 C74.6109098,44.2235369 73.9474874,44.9343707 73.8757137,46.8008056 C73.8194585,48.1212091 74.1181926,49.3403485 74.9639592,50.3708588 C75.1870398,50.6448674 75.5400892,50.86328 75.0745296,51.236567 C74.6283683,51.5840416 74.4111072,51.2306103 74.1919062,50.9566017 C73.3461396,49.8565964 72.9833911,48.5818611 72.9523538,47.1899772 C72.9523538,47.0152471 72.9135572,46.8385314 72.88058,46.495028 C70.3646184,48.5997312 67.478149,49.5309631 64.322043,50.1703164 C65.8971862,50.7719438 67.4703897,50.7520881 70.1977929,50.1584029 C70.9970035,49.9836729 70.9970035,49.9836729 71.6837039,50.734218 C70.1182598,51.2683361 68.5508759,51.4093115 66.9699131,51.3537155 C66.2987314,51.3338599 65.96896,51.5324168 65.7303607,52.1975824 C65.196907,53.6708747 64.4617108,55.0508452 63.5926663,56.3414651 C63.388984,56.6452572 63.1756025,57.2111444 62.7178022,56.9073523 C62.2522426,56.5995891 62.6790056,56.2004897 62.8574701,55.8669141 C62.9447625,55.7080686 63.0398143,55.5591509 63.1406855,55.4062621 C63.2609551,55.3288249 63.4180814,55.2116763 63.307511,55.0845999 C63.158144,54.9257543 62.9835592,55.0568019 62.8632896,55.1938062 Z M59.528719,37.7565384 C61.6586542,36.4520195 63.5441705,35.030352 65.0572391,33.1599459 C66.0834101,31.883225 66.8768012,30.4556008 67.1037615,28.7718382 C67.2511887,27.6897031 66.8923199,27.2925893 65.8273523,27.3283295 C65.035901,27.3461996 64.2696675,27.5268864 63.5538696,27.8803177 C60.3104712,29.4806864 57.6199247,31.7462207 55.6626346,34.8655498 C55.2533302,35.5227732 54.851785,36.2216935 54.8032892,37.1151996 C55.8217008,36.5929949 56.6674674,35.8901034 57.8119681,35.8980457 C59.17179,35.9020169 59.5248394,36.223679 59.528719,37.7565384 Z M61.3967769,43.0381522 C64.8147602,43.7648705 68.1182934,44.4518774 71.4024284,45.1905091 C72.5158917,45.4367196 73.5090855,45.5697528 73.9901637,44.1917678 C74.021201,44.1024172 74.1298316,43.997182 74.2248834,43.9634274 C75.2743323,43.5027753 74.8727871,42.9090902 74.3451529,42.3352607 C72.1104669,39.8394004 69.2880119,39.209975 66.153244,39.8155735 C64.2037132,40.1928317 62.6343895,41.2491544 61.3967769,43.0381522 Z M48.8829232,43.8780479 C47.5987546,45.2202926 46.2563911,46.0582028 45.071154,47.084742 C43.4921311,48.4567702 42.4989373,51.4132826 42.9276401,53.5338704 C46.1361216,51.1889133 48.1322083,48.1092956 48.8829232,43.8780479 Z M64.2386302,49.1278926 C64.8147602,49.0047873 65.2531621,48.9015377 65.6973836,48.8379995 C67.0960022,48.651356 67.9068518,47.8472005 68.1299324,46.4215619 C68.1978265,46.0740873 68.4131478,45.7087426 67.9398289,45.4923156 C67.4820287,45.2858164 67.1638963,45.3831093 66.8709817,45.8318479 C66.1163872,46.9715646 65.2570418,48.033844 64.2386302,49.1278926 Z M69.8214656,37.9054561 C70.6672322,37.947153 70.6672322,37.947153 70.9426883,37.2720595 C71.1405511,36.7796384 71.4586835,36.4023803 72.0231745,36.3586977 C72.3801035,36.3229575 72.7059952,36.237578 72.546929,35.7928106 C72.3801035,35.2924471 71.994077,35.4790906 71.6875836,35.6458784 C70.7855619,36.1402851 70.2268904,36.9444406 69.8214656,37.9054561 Z M46.454254,44.3942959 C46.419337,44.2473638 46.3902395,44.154042 46.2563911,44.1877967 C46.097325,44.2175802 46.0177919,44.3367144 46.0100325,44.485632 C46.0100325,44.555127 46.0022732,44.7258859 46.1613394,44.6405064 C46.2719098,44.5789538 46.3669615,44.4717331 46.454254,44.3942959 Z" id="Shape" fill="#262760"></path>
                <path d="M124.167746,63.8471351 C125.329966,53.7581783 123.999479,43.9923835 119.704745,34.8019744 C111.99966,18.3502752 99.365904,7.64652268 81.6841236,3.8592229 C62.6757695,-0.227592783 45.8685886,4.74397712 31.7986891,18.3660392 C23.3461837,26.5652871 18.2825068,36.6660668 16.2750368,48.3038361 C15.4180467,53.224173 15.3456525,58.1878609 15.8054532,63.1515488 C15.8250192,63.4077137 15.8171928,63.6579671 15.8250192,63.9141321 C15.7291458,63.9436896 15.592184,64.0303915 15.5393558,63.989011 C14.8447633,63.5160912 13.5416688,64.138769 13.3577485,63.4963862 C13.0486059,62.410641 13.0564323,61.1672559 13.0251268,59.9987498 C13.0055608,58.3041204 12.9840382,56.5917564 13.0173004,54.901068 C13.0701285,53.0606216 13.3342693,51.2142637 13.5475386,49.3856402 C13.8840735,46.6899971 14.4534436,44.025882 15.2184736,41.4386163 C16.4296081,37.3143611 18.0124963,33.3319819 20.0982302,29.5643871 C21.8552556,26.4135586 23.8392465,23.4302226 26.1245535,20.6675825 C28.1124575,18.2753963 30.3429798,16.0940535 32.6674188,14.0151766 C36.764536,10.3776348 41.2999312,7.45341374 46.2383858,5.15778198 C51.2179289,2.84835673 56.4303072,1.3626002 61.8598679,0.619721944 C65.1313006,0.160595592 68.4242558,-0.0975398252 71.7348204,0.0344836323 C79.1796776,0.335970035 86.3251752,1.89463503 93.1537038,4.94890905 C100.371596,8.16673451 106.628797,12.7028241 111.937049,18.5236792 C118.922106,26.1770987 123.551418,35.0817853 125.721285,45.2909426 C126.803284,50.3472439 127.11634,55.4271913 126.963725,60.5642831 C126.940246,61.033262 126.852199,61.4943588 126.787631,61.9613672 C126.484359,64.1643855 126.484359,64.1643855 124.167746,63.8471351 Z" id="Shape" fill="#262760"></path>
                <path d="M133.273783,76.0234337 C135.411631,76.8900338 135.826784,77.7368936 135.361191,79.9024069 C135.008117,81.5132172 134.689962,83.1299496 134.383446,84.75063 C134.303908,85.1395144 134.216609,85.6211782 134.375686,85.9330753 C134.980957,87.1569753 134.16423,86.9872085 133.46196,86.9872085 C131.851785,86.9793124 130.24161,86.9398318 128.646954,86.9970787 C127.851567,87.0326113 127.65369,86.7463766 127.715769,86.0080886 C127.787548,84.811825 128.28418,83.7122891 128.487877,82.5476101 C128.639195,81.7165425 128.858411,80.885475 128.96899,80.0484853 C129.075688,79.1897813 128.369539,78.4238568 127.479092,78.3271292 C125.562402,78.1218299 125.459583,78.186973 124.962951,80.0958621 C124.439159,82.1389854 123.901787,84.1860568 123.428435,86.2370763 C123.304277,86.7542727 123.154899,86.9970787 122.609767,86.9911566 C120.935573,86.9714163 119.249739,86.9635201 117.573605,86.9931306 C116.873275,87.0089229 116.960574,86.649649 117.084732,86.1818034 C117.944139,82.9128061 118.789966,79.6477568 119.633853,76.3767854 C120.547579,72.8432678 121.478765,69.3156722 122.345931,65.7722844 C122.505009,65.1445422 122.755265,64.9905677 123.350836,65.0004378 C126.458668,65.0261002 129.56844,65.0024118 132.676273,65.014256 C133.745196,65.0221522 134.77532,65.2254775 135.793805,65.6439723 C137.3807,66.3151433 138.104309,67.5054847 137.987911,69.1932822 C137.753175,72.4603055 136.453395,74.9594303 133.273783,76.0234337 Z M128.018404,74.2448306 C130.105812,74.2448306 130.89732,73.595374 131.409472,71.4417049 C131.743147,70.0243498 131.473491,69.4064777 130.408447,69.1459054 C128.427738,68.6563455 127.872906,68.8873072 127.502372,70.346117 C127.304495,71.1554702 127.085278,71.9510052 126.881582,72.7623324 C126.511047,74.2448306 126.518807,74.2527268 128.018404,74.2448306 Z" id="Shape" fill="#262760"></path>
                <path d="M15.8465892,75.3252002 C18.4266032,77.1264458 18.6591954,78.3403714 17.1405053,82.2433977 C16.0909087,84.9226769 13.835351,86.2505309 11.1400182,86.6944584 C7.60031722,87.2660641 4.03129786,86.8378509 0.477914959,86.9537434 C-0.126042861,86.9753505 -0.0224513905,86.6944584 0.0733218562,86.2957093 C1.05059988,82.245362 2.00442324,78.1930504 2.99733771,74.1446673 C3.67361411,71.380924 4.42807274,68.6446806 5.07307624,65.8829016 C5.24507717,65.1620105 5.53435147,64.9852252 6.21844609,65.0009394 C8.70268683,65.0343322 11.1927912,65.0245108 13.6731229,65.0087966 C14.8341292,65.0009394 15.9560443,65.193439 17.058414,65.4920097 C19.6853373,66.2070079 20.6274333,68.465931 19.5817458,71.3337812 C18.907424,73.1880625 17.6408717,74.4648451 15.8465892,75.3252002 Z M8.46814011,82.8896461 C8.5130949,82.8857176 8.68900494,82.8483962 8.86491499,82.8483962 C11.1927912,82.8798247 11.7361578,81.0825077 11.933568,79.2773335 C12.0586596,78.1537647 11.2006095,77.7510871 9.04082503,77.6135875 C8.43100354,77.5801947 8.21209326,77.7864442 8.10850179,78.3168001 C7.85636406,79.4109046 7.59249899,80.4971519 7.33645215,81.5833993 C6.99049573,82.9367889 6.98267751,82.9367889 8.46814011,82.8896461 Z M10.4070597,73.5023474 C12.9030278,73.6025258 13.5265312,72.1214579 13.7239413,70.5716402 C13.7688961,70.1709269 13.7317596,69.7643208 13.3721212,69.4952143 C12.5785715,68.89218 11.6462483,69.0336082 10.7725617,69.1043224 C10.0239667,69.1553937 10.2721953,69.954856 10.1041035,70.4105692 C9.84805668,71.0784247 9.80310189,71.8248515 9.55487327,72.4966356 C9.18937129,73.5102046 9.5626915,73.7203826 10.4070597,73.5023474 Z" id="Shape" fill="#262760"></path>
                <path d="M23.7229998,87 C24.3468571,87.3195205 24.570504,87.9624581 24.9373635,88.4787565 C33.6929456,100.458828 45.2872745,108.283184 60.0244317,110.589966 C82.6245449,114.124175 100.836077,106.385543 114.537396,88.192357 C114.751234,87.9059576 114.906217,87.5766956 115.080819,87.2688648 C116.046032,87.2688648 117.007321,87.2688648 118,87.2688648 C108.383181,102.940956 89.445777,115.423688 65.2408988,113.868948 C54.6274776,113.183148 44.8517515,109.633353 36.2040693,103.385168 C30.1047852,98.9703296 24.9589435,93.631999 21,87.138329 C22.0142586,87.0915699 22.8696101,87.0448108 23.7229998,87 Z" id="Shape" fill="#262760"></path>
                <path d="M17,86.9678336 C17.8675146,84.2792886 18.3002927,81.6084833 18.9778549,78.9987813 C19.9961564,75.0073564 20.9204609,70.9922787 21.8995969,66.9909984 C22.3774154,65.0238666 22.3930815,65.0021847 24.4355594,65.035693 C27.2848454,65.0790566 30.1302148,64.8543542 32.9638347,65.1795814 C34.1485893,65.3155855 35.3039699,65.621102 36.1421104,66.5317382 C37.2583255,67.7301512 37.0487904,69.2459071 36.8118395,70.6532539 C36.3829779,73.1092122 35.2236807,75.0861994 32.4938493,76.0480835 C33.8470154,76.6334925 34.7732781,77.3233684 34.6616566,78.724802 C34.5892006,79.5033763 34.4129561,80.2799794 34.2719605,81.0546115 C34.0075937,82.4934955 33.7295191,83.9422349 33.4729854,85.3771768 C33.4494862,85.5230363 33.4044459,85.700433 33.4729854,85.808842 C34.3111259,87.3679616 33.0754562,86.9441807 32.3685199,86.9560071 C30.8919827,86.9836022 29.411529,86.9323542 27.9310752,86.9836022 C27.2770123,87.0131683 27.2045562,86.7411601 27.2378469,86.1912304 C27.3259691,84.5690365 27.93695,83.0532806 28.2091499,81.4764214 C28.3051052,80.961971 28.3579785,80.42781 28.4147684,79.9251861 C28.534223,78.9337359 27.9134508,78.4409674 26.8540255,78.3956327 C25.1718697,78.3305872 25.1562036,78.3227029 24.7430081,80.0178266 C24.2377739,82.0500039 23.7521224,84.0979498 23.2586378,86.1419536 C23.1333084,86.660346 22.9825215,87.0151393 22.2951679,86.9875443 C20.575805,86.926441 18.8427341,86.9678336 17,86.9678336 Z M26.1216317,74.3253648 C26.7110716,74.3253648 27.2123893,74.3253648 27.7097905,74.3253648 C29.2059104,74.3174805 29.9618034,73.7931748 30.4866204,72.411452 C31.4422572,69.8411714 30.8763165,69.0389443 28.160193,69.0448575 C27.5061301,69.0606261 27.3005116,69.3247501 27.1653908,69.8746797 C26.8481507,71.3155348 26.4956617,72.7504767 26.1216317,74.3253648 Z" id="Shape" fill="#262760"></path>
                <path d="M42.3099354,86.9901838 C40.8101891,87.0276211 39.3584501,86.8680199 37.96624,86.1685328 C36.6796459,85.5202758 36.2187764,84.4424746 36.0536315,83.1282271 C35.8289576,81.341087 36.3570373,79.6406438 36.7698995,77.9362598 C37.3728705,75.3806691 37.9355154,72.8034041 38.6229791,70.2655469 C39.5523993,66.7996378 41.8817108,64.8351629 46.2062032,64.1731131 C47.84229,63.9130222 49.5033406,63.9307557 51.1451883,64.330744 C54.1677244,65.0637277 55.5100069,67.0715511 54.8244634,70.1906722 C54.065949,73.644759 53.2383041,77.094905 52.2666375,80.4957913 C51.0741376,84.6848321 48.3089204,86.7773821 44.0036309,86.9842727 C43.4352251,87.0157988 42.8648991,86.9901838 42.3099354,86.9901838 Z M42.1524716,80.7460304 C42.1083049,82.6474529 42.9129063,83.2838876 44.308957,82.8996623 C45.0444279,82.6947422 45.5052975,82.1903234 45.8509496,81.5164513 C46.4289568,80.3755978 46.609464,79.1165211 46.9128698,77.890941 C47.5619277,75.2230382 48.226348,72.5571059 48.8024349,69.8754104 C49.0693552,68.6360376 48.4721451,68.0350698 47.2393191,68.0646256 C46.039138,68.092211 45.1462033,68.8133723 44.7256598,70.3128361 C44.1630149,72.3285411 43.7021454,74.3757722 43.2028701,76.4092106 C42.8168919,77.9835491 42.4347542,79.559858 42.1524716,80.7460304 Z" id="Shape" fill="#262760"></path>
                <path d="M121,65.2231092 C120.819991,66.6785437 120.752966,68.4215439 119.904627,69.2881534 C119.155866,70.0452141 117.417056,69.4603015 116.118694,69.4876887 C114.808842,69.5131197 113.516225,69.5052948 112.206373,69.4876887 C111.739115,69.4837763 111.457612,69.5483319 111.350373,70.1449817 C111.162704,71.2150391 110.812261,72.2537968 110.494373,73.4040595 C112.775124,73.4040595 114.956296,73.4314467 117.145128,73.3884097 C117.997298,73.3766723 118.46264,73.4960023 118.020278,74.509329 C117.811544,74.9866489 117.72537,75.5285244 117.581745,76.037144 C117.068529,77.8994741 117.055124,77.8994741 115.14971,77.8994741 C113.41473,77.8994741 111.685496,77.9112115 109.962006,77.8955617 C109.521559,77.8936055 109.3224,77.9659859 109.220905,78.496124 C108.958552,79.8165787 108.577469,81.1096462 108.211706,82.5376935 C110.967375,82.5376935 113.646444,82.5650807 116.306363,82.5181312 C117.043634,82.5083501 117.122148,82.7000605 116.903839,83.361266 C116.585951,84.368724 116.327428,85.3977005 116.107204,86.4364582 C116.00571,86.8844347 115.823786,86.9959398 115.400573,86.9959398 C110.825666,86.9842024 106.241183,86.972465 101.658616,86.9998522 C100.764316,87.0096334 101.00369,86.5323134 101.112844,86.0412999 C101.861604,82.8311279 102.60845,79.6209558 103.36487,76.4088275 C104.176826,72.913046 105.025165,69.4290019 105.802651,65.9273517 C105.95968,65.2485402 106.191394,64.9942304 106.901854,65.000099 C110.743321,65.0353112 114.588618,65.0040115 118.43583,65.0274863 C119.263105,65.0313987 120.1057,65.1565974 121,65.2231092 Z" id="Shape" fill="#262760"></path>
                <path d="M84.7836488,71.2048195 C84.4626052,71.2048195 84.1375982,71.2087562 83.8086276,71.2008827 C83.2279747,71.1772619 82.5046358,71.3524492 82.1102675,71.0768737 C81.6802276,70.7816143 82.1637747,70.0808653 82.1558477,69.5572719 C82.1399937,68.7207036 81.7535524,68.2069522 80.8895092,68.0553857 C79.8253092,67.8703564 78.7135472,68.4392229 78.2914343,69.4155474 C77.849504,70.4253346 78.0833506,71.1969459 79.1693498,71.9036001 C80.3227286,72.6555274 81.5335781,73.3129717 82.7265918,74.0215943 C85.3702469,75.6140267 86.0083706,77.1277233 85.3306119,80.1314958 C84.4526965,83.9560895 81.6762641,86.4402053 77.7365442,86.8693157 C75.816228,87.0740289 73.8899666,87.1055232 72.0191942,86.4598893 C69.5301156,85.5918266 68.5630214,83.8183017 69.1813275,81.2711972 C69.7084732,79.0823407 69.7084732,79.0823407 72.0330664,79.0823407 C72.322402,79.0823407 72.6216463,79.0784039 72.9109819,79.0823407 C73.6779193,79.0862775 74.6450135,78.8047968 75.1602686,79.1669817 C75.7983923,79.6374284 74.9779476,80.4956491 74.9660571,81.2200189 C74.9660571,81.737707 74.9938016,82.2258693 75.4496042,82.5801806 C76.2740124,83.2376249 77.7999602,83.064406 78.6501312,82.2101221 C79.6172254,81.2416712 79.7638749,79.8795411 78.9989193,78.9878577 C78.5886969,78.507569 78.0615513,78.1926256 77.5086429,77.8855559 C76.3057204,77.2084276 75.0889256,76.5450781 74.0009446,75.684889 C72.3362743,74.3837792 71.8130921,72.6830849 72.2391685,70.6595737 C72.9902519,67.1125239 75.2534109,65.065392 78.7452552,64.3036227 C80.4634328,63.9237222 82.2053915,63.8902595 83.9552771,64.260318 C87.1300413,64.9295727 88.6302264,67.4392777 87.752311,70.54147 C87.6215155,71.0749053 87.3797419,71.2382822 86.8664685,71.2107246 C86.1768194,71.1693883 85.4832067,71.2048195 84.7836488,71.2048195 Z" id="Shape" fill="#262760"></path>
                <path d="M67.9914843,76.0577393 C67.9914843,79.3967661 67.9686189,82.7417131 67.9991061,86.0807399 C68.0143497,86.781304 67.8390482,87.0339018 67.1321256,86.9964068 C65.7582951,86.9391776 64.3901808,86.9628587 63.023972,86.99246 C62.4294711,87.0082473 62.2351151,86.8266927 62.297995,86.1853312 C62.4066057,85.2144085 62.3989839,84.2296719 62.4580529,83.2548023 C62.4885401,82.8344639 62.3875512,82.6765903 61.9550137,82.6825105 C60.8612845,82.7101384 59.7770825,82.7101384 58.6909751,82.6825105 C58.2336667,82.6726434 58.1021906,82.9272146 57.968809,83.2982176 C57.6048677,84.2790074 57.1723302,85.2361161 56.8369707,86.2247996 C56.6502365,86.781304 56.3987169,87.0260081 55.783256,86.9964068 C54.4208581,86.9510181 53.0546493,86.954965 51.6827242,86.99246 C50.9948562,87.0200878 50.8309873,86.9233903 51.1720632,86.2011185 C53.2966417,81.7194815 55.3812057,77.2062698 57.4943515,72.706872 C58.5728371,70.3920503 59.6722827,68.0870956 60.7202811,65.7624068 C60.9851388,65.1802478 61.3014438,64.9829058 61.9035665,65.00264 C63.6260947,65.0440819 65.3543393,65.0519755 67.0654348,65.00264 C67.7799792,64.9710653 67.9286044,65.2197162 67.9209826,65.9104133 C67.9019281,69.2948287 67.9095499,72.6792441 67.9095499,76.0577393 C67.9305099,76.0577393 67.9609971,76.0577393 67.9914843,76.0577393 Z M59.7294462,78.7475109 C60.0381294,78.7593514 60.2439182,78.7869793 60.4516124,78.7830324 C61.2176039,78.7593514 62.1493698,79.0001087 62.6924235,78.6350259 C63.2164226,78.2699432 62.9153613,77.2220572 62.985863,76.4800512 C63.201179,74.2185118 63.3364661,71.9352648 63.5022404,69.6638583 C63.4431714,69.6559646 63.3860078,69.6401772 63.3345606,69.6322835 C62.1474643,72.6535897 60.9451244,75.6748958 59.7294462,78.7475109 Z" id="Shape" fill="#262760"></path>
                <path d="M89.2581588,86.9873756 C90.160809,83.2382593 91.039653,79.5839074 91.9125454,75.9275812 C92.3628786,74.0619072 92.7993248,72.1843877 93.2913188,70.3305592 C93.4857357,69.6079807 93.2595772,69.4559628 92.5751502,69.487551 C91.5554531,69.5349332 90.5258367,69.487551 89.5061396,69.5072936 C89.0597741,69.5191391 88.9248726,69.373044 89.0379518,68.9327844 C89.3137065,67.8074573 89.6033481,66.6841043 89.8354581,65.5489059 C89.9247312,65.0592898 90.2084213,65.0079591 90.6111421,65.0079591 C95.1720053,65.0079591 99.7467554,65.0198047 104.315554,65.0000621 C104.920627,64.9961136 105.099173,65.1797196 104.950385,65.7621258 C104.686533,66.7828172 104.434585,67.797586 104.218345,68.8340715 C104.113202,69.3375074 103.90093,69.5448045 103.347437,69.5171648 C102.444787,69.4678084 101.522298,69.5902124 100.611712,69.4816282 C99.5840799,69.3592242 99.2626968,69.7817154 99.0385221,70.7135653 C97.8521819,75.8683535 96.5666494,81.0053733 95.3723738,86.1601614 C95.213666,86.8472033 94.9379114,87.0130409 94.283242,86.9992211 C92.6445848,86.9577617 90.9979922,86.9873756 89.2581588,86.9873756 Z" id="Shape" fill="#262760"></path>
                <path d="M94,87.471187 C79.6252292,98.7656008 60.6524875,98.8487207 46,87.6829449 C46.023469,87.6572173 46.0449823,87.6354478 46.0723628,87.6176363 C47.8833883,86.4796851 49.3502017,87.0753778 51.0986432,88.1044816 C63.1421587,95.1498843 75.4008067,95.3675793 87.6438088,88.6803839 C89.7540643,87.5206631 91.7665322,87.2376596 94,87.471187 Z" id="Shape" fill="#262760"></path>
                <path d="M87,21 C93.9061895,24.0575728 99.3835121,28.7567433 103.531195,34.9341297 C108.333775,42.0645763 110.383802,49.945801 109.94125,58.4513773 C109.87576,59.9432084 109.584033,61.4214243 109.391533,62.9171453 C106.914831,63.1213725 106.922769,63.1213725 107.170836,60.8087427 C108.667177,46.4642136 103.410138,35.0411058 91.6676315,26.4285533 C91.3778891,26.216546 91.0742549,26.022044 90.9393063,25.6641601 C90.4153885,24.3298758 89.3893828,23.6277232 87.9704387,23.4721216 C87.3889693,23.4098809 87.055567,23.2931796 87.1528094,22.5754669 C87.2163146,22.0736515 87.0615207,21.5251556 87,21 Z" id="Shape" fill="#262760"></path>
                <path d="M31.5435638,63.7278412 C29.5452044,50.4655799 33.0692744,38.9958883 41.9115894,29.2695742 C42.0193534,29.1652863 42.1403515,29.0924816 42.240553,29 C42.3105051,29.8834949 42.189507,30.8024082 42.8946991,31.5127459 C43.1858508,31.8079001 42.7944975,31.9574449 42.665937,32.0971512 C38.4461279,36.8392951 35.6537184,42.3744199 34.2546777,48.6533332 C33.2129596,53.3561232 32.9841976,58.0864609 33.8444185,62.8541848 C33.9994473,63.6865196 33.9654166,64.160734 32.9218079,63.9501906 C32.4737368,63.8616444 31.9973067,63.8537736 31.5435638,63.7278412 Z" id="Shape" fill="#262760"></path>
                <path d="M62,18.9109036 C68.3723317,17.574974 74.7017652,17.6938033 81,19.3646155 C80.2375821,19.7895203 79.4186166,20.1460083 78.7946429,20.7455562 C78.5158046,21.024625 78.2233169,21.0318268 77.8430829,20.9652103 C73.1554803,20.1262034 68.4522783,20.0271789 63.7549261,20.9075961 C63.2635468,21.0030197 62.9593596,20.894993 62.760468,20.4196758 C62.5557266,19.9011479 62.2554392,19.4150279 62,18.9109036 Z" id="Shape" fill="#262760"></path>
                <path d="M117.969676,79.0042194 C117.98197,79.1540079 118.006557,79.1898727 117.998361,79.229957 C117.361133,81.9978794 117.361133,82.0147569 114.621665,81.9978794 C113.00503,81.9894406 111.388396,81.902943 109.763565,81.9535757 C108.931685,81.9831115 108.962419,81.5506236 109.032084,80.9704569 C109.04028,80.9430309 109.07921,80.9092757 109.087406,80.8713012 C109.570962,79 109.570962,79 111.456011,79 C113.627916,79.0042194 115.814163,79.0042194 117.969676,79.0042194 Z" id="Shape" fill="#B42527"></path>
                <path d="M101.334008,81.6541618 C99.6376518,83.5071177 97.9939271,85.4304137 96,87 C96.4190283,84.7692179 96.7469636,82.564562 98.562753,80.8161112 C100.283401,79.1621169 101.491903,77.0478982 102.734818,75 C102.817814,75.028136 102.908907,75.0643108 103,75.098476 C102.44332,77.2850444 101.894737,79.4675934 101.334008,81.6541618 Z" id="Shape" fill="#262760"></path>
                <path d="M120,70 C119.48905,72 119.48905,72 117.723781,72 C115.82939,72 113.922088,72 112.016631,72 C112.009252,71.9345525 111.990806,71.8806545 112.005563,71.8325313 C112.433507,70 112.433507,70 114.303918,70 C116.163261,70 118.026293,70 120,70 Z" id="Shape" fill="#B42527"></path>
                <path d="M75.7108991,39.9849511 C76.1891945,39.104199 76.3619709,37.993507 77.7483955,38.4184853 C78.0728778,38.519084 78.00756,38.2542425 78.0644497,38.1023179 C78.1950855,37.7327716 78.2203698,37.350907 77.9696334,37.0285805 C77.8094993,36.8150649 77.5250505,36.8458604 77.3354179,36.9669895 C76.9245474,37.2420962 76.5494964,37.5726348 76.1533751,37.8662189 C75.9721706,37.9955601 75.7425045,38.165962 75.5444439,37.9586054 C75.3632394,37.7697262 75.4327714,37.523362 75.5865844,37.3385888 C76.0606658,36.7288374 76.5663526,36.1539876 77.3965217,36.0266994 C78.4163234,35.8829869 78.9641508,36.3202834 78.9978633,37.3180585 C79.0357898,38.4821294 78.5617084,39.5230182 78.1424098,40.5782782 C77.8748172,41.2208782 77.3269898,41.7998341 77.6198667,42.5881996 C77.6535792,42.6887983 77.5419067,42.9105261 77.4302342,42.961852 C77.2089962,43.0891401 77.0973237,42.8694654 77.0025075,42.7195938 C76.3240443,41.7423491 75.5212666,40.8800744 74.5330703,40.1820424 C74.2570496,39.9890571 73.8293228,39.804284 74.0716311,39.4101012 C74.360294,38.9666457 74.6805623,39.39573 74.9523689,39.5189121 C75.1967842,39.6215639 75.4117011,39.7919658 75.7108991,39.9849511 Z" id="Shape" fill="#262760"></path>
                <path d="M18.9505095,76 C17.6885095,74.6397727 17.6805095,74.6329545 18.9425095,73.6494318 C19.2245095,73.4278409 19.4925095,73.2011364 19.8205095,73 C19.5445095,73.9613636 19.2685095,74.9278409 18.9505095,76 Z" id="Shape" fill="#B42527"></path>
                <path d="M35.7815514,77 C34.6575514,75.805153 34.6575514,75.805153 36.3635514,75 C36.1595514,75.6924316 35.9755514,76.2979066 35.7815514,77 Z" id="Shape" fill="#B42527"></path>
                <path d="M47.4560632,43.2138006 C47.3660632,43.2918006 47.2680632,43.4018006 47.1560632,43.4638006 C46.9920632,43.5498006 47.0000632,43.3778006 47.0000632,43.3078006 C47.0080632,43.1578006 47.0900632,43.0358006 47.2540632,43.0078006 C47.3880632,42.9718006 47.4200632,43.0638006 47.4560632,43.2138006 Z" id="Shape" fill="#FFFFFF"></path>
                <path d="M64,54.183291 C64.124,54.045291 64.304,53.913291 64.458,54.073291 C64.572,54.201291 64.412,54.319291 64.286,54.397291 C64.194,54.323291 64.088,54.255291 64,54.183291 Z" id="Shape" fill="#FFFFFF"></path>
                <path d="M86.274,25.276 C86.184,25.284 86.086,25.292 86,25.3 C86.016,25.198 86.032,25.1 86.054,25 C86.13,25.092 86.204,25.182 86.274,25.276 Z" id="Shape" fill="#FFFFFF"></path>
                <path d="M96.1631411,94.3772689 C96.0891411,94.2892689 95.9251411,94.2192689 96.0391411,94.0692689 C96.1491411,93.9112689 96.2611411,94.0652689 96.3751411,94.1212689 C96.2991411,94.2032689 96.2411411,94.2892689 96.1631411,94.3772689 Z" id="Shape" fill="#B42527"></path>
                <path d="M100.122,94 C100.244,94.032 100.332,94.098 100.25,94.208 C100.234,94.238 100.082,94.182 100,94.164 C100.04,94.106 100.074,94.054 100.122,94 Z" id="Shape" fill="#B42527"></path>
            </g>
        </g>
    </g>
</svg>