<?xml version="1.0" encoding="UTF-8"?>
<svg width="200px" height="200px" viewBox="0 0 200 200" version="1.1" xmlns="http://www.w3.org/2000/svg" xmlns:xlink="http://www.w3.org/1999/xlink">
    <!-- Generator: Sketch 46.2 (44496) - http://www.bohemiancoding.com/sketch -->
    <title>clients/indianmotor</title>
    <desc>Created with Sketch.</desc>
    <defs></defs>
    <g id="Page-1" stroke="none" stroke-width="1" fill="none" fill-rule="evenodd">
        <g id="clients/indianmotor">
            <g id="Group" transform="translate(17.000000, 68.000000)">
                <path d="M154.262459,63 C153.22337,63 152.177652,63 151.135249,63 C150.863461,62.7754683 150.493897,62.9164152 150.215481,62.7656348 C149.348745,62.2985432 148.445549,62.1182622 147.474407,62.162513 C146.96232,62.1805411 146.448576,61.982232 145.92986,61.923231 C142.027062,61.4463059 138.149122,60.8087669 134.281125,60.1007544 C130.708117,59.4451873 127.108594,59.1337929 123.475925,59.4206035 C122.151791,59.5271332 120.817714,59.5926899 119.455463,59.6762747 C119.490265,59.2731009 119.692448,58.9699011 119.839942,58.6503122 C120.655304,56.9327263 121.863432,55.5199792 123.151106,54.167872 C123.464325,53.8302549 123.789144,53.4975546 123.992984,53.0812695 C124.118934,52.8436264 124.186881,52.6043444 123.999613,52.3699792 C123.825603,52.153642 123.595247,52.1077523 123.340032,52.1601977 C122.967153,52.2306712 122.667193,52.4306191 122.36889,52.6502341 C121.371232,53.350052 120.388489,54.0597034 119.394145,54.7431322 C115.794621,57.2342872 112.021088,59.3665193 107.896219,60.7727107 C107.168691,61.0201873 106.439506,61.3233871 105.630773,61.285692 C105.644031,61.0496878 105.786554,60.9595473 105.899246,60.8694069 C108.731468,58.5454214 111.122864,55.7395942 113.781076,53.2271332 C116.348139,50.7966181 118.500893,47.9940687 120.439863,45.0063215 C120.542612,44.8260406 120.670219,44.6441207 120.738166,44.4425338 C120.844229,44.1163892 120.70005,43.9508585 120.365287,44.0114984 C120.06367,44.0639438 119.848229,44.278642 119.639416,44.5048127 C117.431974,46.9484391 115.1831,49.3592872 112.790047,51.6193548 C108.216066,55.94282 103.148229,59.4615765 97.2434852,61.5577523 C96.3601766,61.8625911 95.4702392,62.1920135 94.492468,62.1510406 C94.5670438,61.7331165 94.7543118,61.4135276 94.9399226,61.0922997 C95.3575469,60.3793704 95.8298601,59.7123309 96.3734346,59.0993757 C99.7525454,55.2757804 103.067024,51.376795 107.051027,48.1825442 C107.954222,47.449948 108.806043,46.6583507 109.5402,45.7307232 C109.841818,45.355411 110.131835,44.9702653 110.287615,44.5031738 C110.420195,44.0754162 110.232926,43.8705515 109.808673,43.9705255 C109.248526,44.0934443 108.799415,44.4441727 108.365218,44.8063736 C107.498482,45.5258585 106.65329,46.2682882 105.778267,46.9943288 C96.1165625,55.1299168 90.2002183,58.5519771 79.3535874,62.2903486 C78.3824452,62.6197711 77.411303,62.8639698 76.3921008,62.8246358 C76.2595217,62.819719 76.0904833,62.8738033 76.0109358,62.721384 C75.9131587,62.5443809 76.0755681,62.4280177 76.1700308,62.3034599 C76.6489729,61.6544485 77.2571797,61.1414672 77.868701,60.6399584 C81.9952268,57.2277315 86.1416394,53.8171436 90.2714796,50.3934443 C92.220393,48.7774714 94.1494195,47.130359 96.0917039,45.4816077 C96.6651087,45.0046826 96.9750124,44.3802549 96.7396844,44.0868887 C96.3054877,43.5394901 95.7685422,43.8705515 95.309487,44.0295265 C94.4941252,44.3065036 93.758311,44.757206 93.030783,45.2210198 C90.1405577,47.0598855 87.3630247,49.0773933 84.504287,50.9539542 C78.2863253,55.0430541 71.7153716,58.3372789 64.6853627,60.6645421 C63.2087625,61.1513007 61.7106182,61.5577523 60.1544706,61.624948 C59.630783,61.644615 59.0954947,61.6511707 58.591694,61.3414152 C58.9148556,61.007076 59.2910489,60.8120447 59.6572988,60.6039022 C62.1978466,59.1190427 64.7516523,57.6325442 67.0850452,55.8182622 C71.0624194,52.7485692 74.9867619,49.6247919 78.9343058,46.5239594 C79.1381463,46.353512 79.3386722,46.1781478 79.4811948,45.9503382 C79.6784063,45.6307492 79.7794979,45.2898543 79.5872581,44.937487 C79.3801032,44.5867586 79.0503126,44.4998959 78.6840627,44.517924 C78.3609011,44.5408689 78.0791704,44.6703434 77.8007542,44.817846 C75.4773048,46.092924 73.1787139,47.3909469 70.9198968,48.7889438 C66.3823757,51.6078824 61.7984519,54.3645421 56.9344547,56.5705255 C52.3157289,58.6634235 47.6157984,60.5203174 42.6639675,61.6380593 C41.2470279,61.9609261 39.7986008,62.101873 38.2805696,61.9953434 C38.6103602,61.3610822 39.0611293,60.9251301 39.5268135,60.5022893 C41.0962191,59.0813476 42.7501439,57.7521852 44.468701,56.5393861 C49.1653171,53.2287721 54.1701796,50.4868626 59.1899573,47.7744537 C59.7501042,47.4745317 60.2969932,47.1582206 60.7626774,46.7239074 C61.0178922,46.4993757 61.2482485,46.2568158 61.3940855,45.9405047 C61.5631239,45.5406087 61.4487744,45.3127992 61.0377791,45.2472425 C60.7146174,45.196436 60.4163144,45.257076 60.1080679,45.3439386 C59.0689789,45.6487773 58.0845787,46.1076743 57.1333234,46.6173777 C53.4923688,48.5431061 49.947534,50.639282 46.2734346,52.4863424 C44.5134465,53.369719 42.8678079,54.526795 41.0431875,55.2757804 C37.0392974,56.9163371 33.012206,58.5175598 28.8591644,59.7156087 C25.6258906,60.646514 22.3561576,61.4266389 18.9770467,61.5135016 C18.3356951,61.5266129 17.6761139,61.5315297 17.0413913,61.3561655 C17.1441401,60.9956035 17.4208991,60.8907128 17.6429691,60.7366545 C22.1771757,57.7538241 26.9036221,55.105333 31.5770368,52.3814516 C35.3936588,50.1590791 39.3478317,48.1907388 43.1296517,45.9093652 C43.4279547,45.7307232 43.7444874,45.5766649 43.9997023,45.3275494 C44.122338,45.2095473 44.2913764,45.0817118 44.2416592,44.8834027 C44.1869703,44.6818158 43.9997023,44.6457596 43.810777,44.6146202 C43.5456187,44.5654527 43.2638881,44.5572581 42.9887863,44.5802029 C40.9172373,44.776873 38.9915253,45.5061915 37.1304456,46.4190687 C34.2302769,47.8367326 31.3201647,49.2658689 28.4398829,50.7245057 C22.6561179,53.6401405 16.7845192,56.3296046 10.6626774,58.394641 C7.19241838,59.5631894 3.73210281,60.8153226 0,60.7317378 C0,60.6956816 0,60.6579865 0,60.6252081 C0.719241838,59.9581686 1.56940558,59.4959938 2.34996527,58.9256504 C6.32733949,56.0280437 10.3809467,53.2418835 14.5273593,50.6114204 C27.5433165,42.3430801 41.0597598,35.048257 54.7833581,28.1434964 C71.780004,19.5965401 89.1909596,12.0886576 107.196864,6.1066077 C114.83508,3.56628512 122.594274,1.57991675 130.527478,0.275338189 C131.061109,0.185197711 131.617942,0.245837669 132.126714,0 C133.52211,0 134.917505,0 136.311243,0 C136.359303,0.0327783559 136.423936,0.0803069719 136.480282,0.0835848075 C138.467312,0.288449532 140.378109,0.768652445 142.144726,1.76183663 C142.520919,1.97817378 142.885512,1.76183663 143.02472,1.30949532 C143.266677,0.486758585 143.364454,0.426118626 144.21296,0.590010406 C145.210618,0.786680541 146.155245,1.14068678 147.126387,1.41930281 C149.269197,2.02406348 151.438523,2.55015609 153.503443,3.42697711 C154.35195,3.78426119 154.461328,4.01698751 154.144795,4.91675338 C154.002273,5.31664932 154.103364,5.50676379 154.439784,5.6739334 C155.261774,6.06727367 156.083765,6.45897503 156.874268,6.89656608 C157.676372,7.3407128 157.951474,8.22736733 157.601796,9.10418835 C157.157656,10.187513 157.157656,10.1907908 158.128798,10.8086629 C158.261377,10.8922477 158.390642,10.9692768 158.536479,11.044667 C161.381959,12.5065817 163.359045,14.8748179 164.93508,17.6577003 C165.084231,17.9182882 165.203553,18.1952653 165.233383,18.5082986 C165.271499,18.8737773 165.110747,19.1048647 164.799186,19.2097555 C164.39482,19.3490635 163.977196,19.4015088 163.572829,19.2359781 C163.552942,19.2261446 163.546313,19.1671436 163.552942,19.1343652 C163.620889,18.7311915 163.342473,18.8819719 163.203265,18.9311394 C162.711065,19.0868366 162.608316,19.498205 162.886732,20.1144381 C163.23641,20.8880073 163.753468,21.5550468 164.162806,22.2778096 C164.539,22.9366545 164.464424,23.2037981 163.83633,23.6004162 C163.448536,23.8478928 163.105488,24.1510926 162.793927,24.4870708 C162.658033,24.6345734 162.457507,24.7853538 162.603344,25.0443028 C162.72598,25.2622789 162.933135,25.2721124 163.150233,25.2278616 C163.529741,25.160666 163.897648,25.0574142 164.277156,25.0115245 C164.701409,24.9541623 164.979825,25.0672477 165.057716,25.617924 C165.155493,26.5308012 165.34939,27.4305671 165.964225,28.1582466 C166.413337,28.6876171 166.763015,29.2776275 167,29.9381113 C167,30.1905047 167,30.4445369 167,30.6969303 C166.413337,31.9212019 165.39745,32.4604058 164.161149,32.6980489 C163.349102,32.8488293 162.585115,33.1421956 161.817813,33.433923 C160.062796,34.1009625 158.884499,35.2777055 158.276293,37.1673777 C157.46756,39.6552549 156.095366,41.8137097 154.146452,43.5476847 C153.51173,44.1081946 153.072561,44.8129292 152.79746,45.6291103 C152.41298,46.7747138 152.492528,47.7662591 153.28966,48.785666 C155.195485,51.2194589 156.209715,54.0351197 156.203086,57.1998699 C156.196457,58.0193288 156.17657,58.8453434 155.947871,59.6877471 C155.805349,59.5844953 155.692657,59.5009105 155.581622,59.4337149 C154.888896,59.0272633 154.018845,59.2239334 153.594592,59.8795005 C153.221713,60.4498439 153.390751,61.1103278 154.043703,61.6659209 C154.141481,61.7495057 154.240915,61.8199792 154.342007,61.8970083 C154.943584,62.3755723 154.923698,62.6312435 154.262459,63 Z M122.370547,36.6822581 C122.408663,36.6822581 122.425236,36.6724246 122.438494,36.6658689 C122.484896,36.5937565 122.121961,36.6822581 122.370547,36.6822581 Z M133.586742,46.0208117 C133.616572,46.0470343 133.641431,46.0667014 133.671261,46.0962019 C133.069683,47.4106139 133.47405,48.5808012 134.17009,49.7001821 C134.315927,49.9279917 134.445192,50.1263007 134.383874,50.4360562 C134.12203,51.6898283 134.607601,52.692846 135.732867,53.2566337 C135.895276,53.3434964 136.10906,53.5516389 136.279756,53.2812175 C136.425593,53.0665193 136.244954,52.9173777 136.114032,52.7698751 C135.777612,52.3699792 135.550571,51.91436 135.475995,51.3800728 C135.388161,50.7835068 135.650005,50.180385 135.582058,49.6329865 C135.507482,49.0905047 135.048427,48.6168574 134.927449,48.0170135 C134.716979,46.8894381 134.907562,45.8470864 135.487596,44.8440687 C135.358331,44.8325963 135.270497,44.8129292 135.182663,44.8260406 C134.658976,44.9210978 134.697092,44.6490375 134.859502,44.2933923 C135.083229,43.8066337 135.439536,43.4362383 135.862132,43.1477888 C136.104089,42.9789802 136.178664,42.7855879 136.228381,42.4971384 C136.322844,42.0169355 136.228381,41.6596514 135.878704,41.3433403 C135.681493,41.1614204 135.562171,40.9204995 135.480967,40.6615505 C135.297013,40.0436785 135.114717,39.4208897 134.927449,38.8079344 C134.71035,38.1179501 134.75841,37.460744 135.108088,36.8264828 C135.406391,36.3151405 135.648348,35.7808533 135.835616,35.2187045 C136.158777,34.2451873 136.612861,33.3405047 137.156435,32.4751561 C137.716582,31.5835848 138.250213,30.6805411 138.633036,29.6889958 C138.749042,29.3841571 138.843505,29.0842352 138.823618,28.748257 C138.803731,28.4483351 138.65458,28.2336368 138.399365,28.1156348 C138.147465,27.9959938 138.026486,28.2516649 137.90385,28.3991675 C137.123291,29.3251561 136.415649,30.3019511 135.903563,31.4213319 C135.156148,33.0831946 134.408733,34.7417794 133.672919,36.4118366 C132.708405,38.6309313 131.992478,40.9418054 131.352784,43.2723465 C131.220204,43.7361602 131.145629,44.2294745 131.220204,44.7162331 C131.258321,44.9505983 131.339526,45.1652966 131.621256,45.2095473 C131.869842,45.2406868 132.018994,45.116129 132.130029,44.9161811 C132.337184,44.5703694 132.466448,44.199974 132.560911,43.8131894 C132.729949,43.0805931 132.897331,42.346358 133.084599,41.6170395 C133.182376,41.2171436 133.326556,40.8270812 133.556912,40.4829084 C133.644745,40.3534339 133.730922,40.1895421 133.906589,40.1993757 C134.11043,40.2157648 134.11043,40.4239074 134.15849,40.5681322 C134.28444,40.8975546 134.378902,41.2564776 134.534683,41.5727888 C134.715322,41.9530177 134.657319,42.2103278 134.360673,42.5168054 C133.351414,43.5526015 133.134316,44.9555151 132.729949,46.3010666 C133.104485,46.312539 133.331527,46.1011186 133.586742,46.0208117 Z M82.3349608,30.5592612 C82.3681056,30.5871228 82.4095366,30.6117066 82.4476531,30.6330125 C81.256098,32.437461 80.0562568,34.2386316 78.8033839,36.1299428 C79.6121167,36.1299428 80.3181006,36.1135536 81.027399,36.1348595 C81.3091297,36.1479709 81.4715391,36.0398023 81.6190334,35.8119927 C82.3349608,34.730307 83.0757468,33.6584547 83.7850452,32.5685744 C83.9855711,32.2653746 84.1960405,32.0883715 84.5589759,32.017898 C85.1539248,31.9048127 85.6461248,31.6081686 85.9344845,30.9526015 C85.7654461,30.9739074 85.6461248,30.9886576 85.5301181,30.9886576 C85.0743773,30.9919355 84.9699712,30.8083767 85.1738117,30.3789802 C85.397539,29.9217222 85.7273296,29.5972164 86.2327875,29.5234651 C86.5692071,29.4693809 86.9387715,29.4595473 87.1492408,29.7693028 C87.3795971,30.0921696 87.1111243,30.3740635 86.9420859,30.6313736 C86.582465,31.1853278 86.2046145,31.7278096 85.848308,32.2752081 C85.2749032,33.1585848 84.6766399,34.0272112 84.1910688,34.9613944 C83.8679071,35.5759886 84.0286593,35.985718 84.6766399,36.185666 C85.1008931,36.3151405 85.5384043,36.3528356 85.9709437,36.2545005 C86.6769277,36.0938866 87.3365089,35.8283819 87.9646026,35.4743757 C88.4882902,35.1777315 88.9357448,34.9515609 89.366627,35.6415453 C89.5406371,35.9119667 89.906887,36.0201353 90.2300486,36.1020812 C91.1531309,36.3479188 92.061298,36.3085848 92.9263769,35.8890219 C93.370517,35.6710458 93.7483676,35.4039022 94.1593629,35.9332726 C94.2405676,36.0398023 94.4410936,36.0611082 94.5902451,36.1020812 C95.4602957,36.3413632 96.2375409,36.1151925 96.9501538,35.5825442 C97.0926764,35.4694589 97.235199,35.2695109 97.4556118,35.5612383 C97.8467203,36.0840531 98.426754,36.2184443 99.0415898,36.2020552 C100.04422,36.1741935 100.922556,35.7579084 101.769406,35.2318158 C101.986504,35.0777575 102.129026,35.0597294 102.309666,35.3154006 C102.598025,35.7431582 103.032222,35.9824402 103.517793,36.1086368 C104.614885,36.3954475 105.653974,36.2545005 106.631746,35.6710458 C106.744438,35.6038502 106.842215,35.428486 107.036112,35.6038502 C108.027141,36.5216441 109.077831,36.284001 110.110291,35.6939906 C110.776501,35.3121228 111.268701,34.7270291 111.760901,34.132102 C112.718785,32.9651925 113.666726,31.7950052 114.619639,30.6280957 C114.800278,30.4150364 114.949429,30.1380593 115.380312,30.1626431 C114.046234,32.1621228 112.75193,34.1075182 111.417853,36.1086368 C112.226585,36.1086368 112.945827,36.0938866 113.661754,36.1151925 C113.933542,36.125026 114.092637,36.0217742 114.253389,35.7890479 C114.980917,34.6745838 115.744904,33.5814256 116.480718,32.4686004 C116.636499,32.2293184 116.810509,32.1031217 117.09224,32.0424818 C117.700447,31.9261186 118.23242,31.6491415 118.529066,30.9657128 C118.331855,30.9771852 118.179389,30.9968522 118.036866,30.9902966 C117.751821,30.9771852 117.625871,30.842794 117.713704,30.5363163 C117.894344,29.9692508 118.529066,29.4644641 119.095842,29.4611863 C119.357686,29.4611863 119.642731,29.4841311 119.80514,29.7381634 C119.964235,30.005307 119.80514,30.2511446 119.64936,30.4805931 C119.027895,31.4311655 118.393173,32.376821 117.768393,33.333949 C117.456832,33.8075963 117.146929,34.2943548 116.898343,34.8056972 C116.518835,35.5989334 116.943088,36.3102237 117.801538,36.3528356 C118.171103,36.3725026 118.524094,36.3036681 118.872115,36.205333 C120.098472,35.866077 121.130932,35.2318158 121.911492,34.1829084 C121.523698,34.2779657 121.164077,34.4385796 120.781254,34.5467482 C120.48958,34.6270552 120.105101,34.9007544 119.874744,34.569693 C119.647703,34.2582986 119.955949,33.9255983 120.12333,33.6486212 C120.860802,32.4636837 121.603245,31.2934964 122.337402,30.1151145 C122.511412,29.8414152 122.673822,29.5726327 122.761655,29.2497659 C122.894234,28.708923 122.726853,28.3385276 122.241282,28.1058012 C121.891605,27.9337149 121.513754,27.8779917 121.124303,27.8829084 C120.3338,27.8894641 119.568155,28.050078 118.822398,28.3057492 C118.628501,28.3729448 118.459462,28.4417794 118.272194,28.2221644 C118.000407,27.91077 117.617585,27.8484912 117.219847,27.8484912 C116.598382,27.8550468 116.079667,28.1254683 115.582495,28.4729188 C114.523519,29.2120708 113.653468,30.1724766 112.81822,31.1705775 C111.954798,32.2211238 111.099663,33.2913371 110.121891,34.2435484 C109.999256,34.371384 109.816959,34.590999 109.642949,34.4271072 C109.493798,34.2877992 109.691009,34.110796 109.785472,33.9682102 C110.788102,32.3932102 111.805647,30.8116545 112.804962,29.2432102 C113.086692,28.8105359 113.355165,28.3811394 113.671698,27.8763528 C113.121494,27.8763528 112.649181,27.8435744 112.195098,27.8878252 C111.757587,27.930437 111.240528,27.6272373 110.922338,28.1959417 C110.880907,28.2664152 110.793073,28.2041363 110.738384,28.1631634 C110.158351,27.7468783 109.518656,27.8271852 108.87399,27.9419095 C105.844557,28.4958637 103.776322,30.3625911 102.394185,33.1012227 C102.082624,33.7158169 101.653399,34.0681842 101.10651,34.3484391 C100.876154,34.4680801 100.594423,34.6155827 100.383954,34.3697451 C100.150283,34.1239074 100.407155,33.9059313 100.539734,33.712539 C101.684886,31.9507024 102.848268,30.2019771 103.993421,28.4434183 C104.099484,28.2926379 104.268522,28.1631634 104.248636,27.9058533 C103.594026,27.9058533 102.960961,27.9238814 102.319609,27.8960198 C102.02462,27.8861863 101.847296,27.991077 101.684886,28.2467482 C100.972273,29.3759625 100.244745,30.4904266 99.5105885,31.6098075 C98.9239258,32.5046566 98.2908604,33.3552549 97.4937283,34.0698231 C97.2932023,34.2419095 97.0893619,34.4205515 96.8275181,34.491025 C96.7048824,34.5205255 96.5855612,34.5139698 96.4977275,34.3992456 C96.4098938,34.291077 96.4297807,34.1616025 96.4977275,34.0468783 C96.5723033,33.9092092 96.6667659,33.7797347 96.7595713,33.6437045 C98.6339089,30.7870708 100.514875,27.9337149 102.394185,25.0738033 C102.488647,24.9197451 102.642771,24.7837149 102.675915,24.5345994 C101.963303,24.5345994 101.273891,24.5509886 100.587794,24.5247659 C100.289491,24.5132934 100.115481,24.6149063 99.9464424,24.8672997 C99.2537164,25.9047347 98.5510469,26.9306972 97.8367768,27.9533819 C97.7622011,28.071384 97.7174556,28.3401665 97.4605835,28.1582466 C96.8772353,27.7452393 96.2342265,27.8288241 95.5995038,27.9468262 C92.4855513,28.5253642 90.4272601,30.5051769 89.0186067,33.3110042 C88.7700208,33.8207076 88.431944,34.1435744 87.9662598,34.3582726 C87.7491615,34.4516909 87.4806887,34.630333 87.2867917,34.4090791 C87.0962092,34.1763528 87.3481096,33.9764048 87.4608018,33.792846 C88.2562767,32.4833507 89.0848963,31.1968002 89.8753994,29.8823881 C90.4935497,28.828564 90.1952466,28.1664412 89.0368364,27.9566597 C88.0590652,27.7862123 87.1376402,28.0402445 86.2145579,28.3139438 C86.0654064,28.3581946 85.9427707,28.4860302 85.7356158,28.3401665 C84.8523072,27.7026275 84.3120472,27.7140999 83.4221098,28.3598335 C82.7625285,28.8367586 82.2172968,29.4513528 81.6322914,30.005307 C81.1980947,30.4117586 80.7324104,30.7346254 80.1590057,30.8903226 C80.0065396,30.9362123 79.7347524,30.8067378 79.7347524,31.0558533 C79.7347524,31.3180801 79.9518507,31.4983611 80.2136946,31.5622789 C80.5119976,31.6294745 80.7937283,31.5344173 81.0655155,31.4180541 C81.5461149,31.2033559 81.9173365,30.8526275 82.3349608,30.5592612 Z M66.6011313,32.0736212 C67.5324998,32.8799688 68.5235288,33.1389178 69.6206212,32.9914152 C70.6464523,32.8504683 71.3259204,32.3243757 71.4137541,31.6147242 C71.5082167,30.8559053 71.0093877,30.1265869 70.0548179,29.7283299 C68.6726804,29.148153 67.2424829,29.1252081 65.7990275,29.3579344 C64.7831398,29.5283819 63.8567431,29.9168054 63.0960703,30.6543184 C61.8945718,31.8064776 61.7553637,33.4847294 62.7397638,34.8368366 C63.2767093,35.567794 63.9926367,36.0430801 64.8146274,36.3135016 C69.1781383,37.7573881 73.0709934,36.8871228 76.4567332,33.6797607 C77.6085144,32.5849636 78.4371341,31.2246618 79.2011214,29.8299428 C79.5027389,29.2776275 79.8325295,28.9711498 80.4738811,28.9580385 C81.0406569,28.9498439 81.5875459,28.7154787 82.079746,28.3909729 C83.5977771,27.4010666 83.7784162,25.7277315 82.4774834,24.4608481 C82.2222685,24.2182882 82.260385,24.0871748 82.4426814,23.8511707 C83.2066687,22.7924298 84.123122,21.8877471 85.1008931,21.0486212 C85.2881612,20.8978408 85.5185174,20.7880333 85.6477821,20.5241675 C83.6789818,20.2652185 81.7383547,20.1816337 79.8026992,20.4848335 C78.2266647,20.7241155 76.7633224,21.2420135 75.624799,22.467924 C75.4822765,22.6252601 75.3082663,22.5990375 75.1392279,22.608871 C74.0686514,22.6793444 72.9864741,22.7596514 71.9374417,23.0284339 C70.9994443,23.2742716 70.1144785,23.6299168 69.4283815,24.3756243 C68.2766002,25.6326743 68.732341,27.4944849 70.3315769,27.9845213 C71.2728888,28.2713319 72.2258013,28.2188866 73.1339684,27.7944069 C73.6493699,27.551847 73.9045847,27.2633975 74.0437928,26.8028616 C73.3510668,26.9356139 72.6782276,27.1109781 71.9755582,26.9438085 C71.5910787,26.8421956 71.2215143,26.6979709 71.1055076,26.2669355 C70.9662995,25.7932882 71.12208,25.3835588 71.4584996,25.0459417 C71.6656545,24.8230489 71.9076114,24.6493236 72.1711124,24.5034599 C72.8737819,24.1166753 73.6278257,23.9396722 74.398442,23.8101977 C74.7481195,23.7495578 74.7547484,23.8626431 74.6868016,24.1805931 C74.2956932,25.9702914 74.8226952,27.3207596 76.3175251,28.2942768 C76.5893123,28.4712799 76.6091992,28.5941988 76.4799345,28.8777315 C75.7524065,30.4740375 74.7878932,31.8933403 73.55325,33.1094173 C71.9158976,34.7155567 70.0017862,35.6235172 67.7114816,35.4432362 C66.6309616,35.3563736 65.6631339,34.9843392 64.991952,34.0468783 C64.1252158,32.8340791 64.4483775,31.4213319 65.7327379,30.7297086 C66.3807185,30.3806191 67.0502431,30.283923 67.762856,30.3806191 C68.1539645,30.442898 68.5334723,30.6133455 68.5649598,31.0902706 C68.5947901,31.5737513 68.2351692,31.7474766 67.8556614,31.8867846 C67.4778109,32.0162591 67.0734445,31.9687305 66.6011313,32.0736212 Z M88.5694949,21.7664672 C89.1097549,21.7271332 89.5754391,21.5435744 90.0427806,21.332154 C92.5286395,20.2193288 95.0178128,19.1130593 97.5036717,17.9969563 C103.637114,15.2435744 109.719182,12.3869407 116.157557,10.4136837 C120.956922,8.94029657 125.741371,7.42429761 130.723033,6.75070239 C131.493649,6.64908949 132.27918,6.59992196 133.008366,6.26394381 C133.164146,6.19347034 133.392845,6.13119147 133.387873,5.941077 C133.387873,5.75096254 133.145916,5.72473985 132.990136,5.67065557 C132.776352,5.6001821 132.559254,5.54773673 132.335526,5.50348595 C131.377642,5.32812175 130.423072,5.41990114 129.483418,5.56740375 C127.279289,5.91977107 125.12985,6.53764308 122.957209,7.02112383 C118.070011,8.11755983 113.325335,9.68108741 108.686722,11.5937045 C105.3623,12.9671176 102.067709,14.4913111 98.766488,15.9597815 C96.0088419,17.1873309 93.2578247,18.4263528 90.5001786,19.676847 C89.7047038,20.0374089 88.930773,20.4471384 88.2960504,21.0895942 C88.1634713,21.2207076 87.9977473,21.3780437 88.0955245,21.5976587 C88.1817009,21.8238293 88.4103999,21.7468002 88.5694949,21.7664672 Z M147.051811,28.2959157 C147.035239,28.7826743 147.045182,29.2694329 147.146274,29.7496358 C147.191019,29.9708897 147.159532,30.2331165 147.469435,30.2855619 C147.751166,30.3265349 147.974893,30.223283 148.142274,29.9774454 C148.372631,29.6332726 148.458807,29.2235432 148.521782,28.8138137 C148.965922,26.4373829 148.884718,24.0478408 148.596358,21.6648543 C148.460464,20.4700832 148.424005,19.2474506 148.036211,18.1067638 C147.669961,17.0594953 147.832371,16.1728408 148.447207,15.3140479 C149.007353,14.5191727 149.512811,13.676769 149.978496,12.8114204 C150.298343,12.2115765 150.409378,11.5576483 150.359661,10.8840531 C150.346403,10.725078 150.298343,10.5513528 150.117704,10.4956296 C149.955294,10.4448231 149.812772,10.5447971 149.713337,10.6677159 C149.526069,10.885692 149.36366,11.1167794 149.20125,11.3511446 C146.398859,15.3353538 143.859968,19.5113163 141.16364,23.5741935 C141.001231,23.8200312 140.633323,24.1412591 140.901796,24.4116805 C141.231587,24.741103 141.543148,24.3248179 141.791734,24.1183143 C142.742989,23.3431061 143.483775,22.3679501 144.125127,21.3075702 C144.587496,20.5405567 145.08964,19.8145161 145.653101,19.1278096 C145.750878,19.0081686 145.837055,18.8180541 146.006093,18.8360822 C146.186732,18.860666 146.180103,19.0753642 146.226506,19.2228668 C146.436975,20.1455775 146.673961,21.0699272 146.8546,22.0024714 C147.258966,24.083897 147.225821,26.1899063 147.051811,28.2959157 Z M109.644607,19.3490635 C110.256128,19.3490635 110.784787,19.1851717 111.301846,18.9737513 C113.149668,18.1969043 115.004118,17.4315297 116.861883,16.6645161 C121.419291,14.7781217 126.112593,13.3801249 130.951732,12.5049428 C131.437303,12.421358 131.8831,12.2476327 132.246036,11.8772373 C132.589084,11.5314256 132.507879,11.2069199 132.052139,11.0741675 C131.8831,11.0282778 131.705776,11.0282778 131.536737,11.0282778 C130.674973,11.0282778 129.834752,11.1610302 128.996189,11.2954214 C124.513357,12.0149063 120.204535,13.378486 115.958688,14.9813476 C113.673355,15.8466961 111.455969,16.8874089 109.319788,18.0936524 C109.014856,18.2657388 108.597231,18.5001041 108.711581,18.9311394 C108.822616,19.3834807 109.308187,19.319563 109.644607,19.3490635 Z M134.52474,18.3673517 C134.761725,18.4132414 134.861159,18.2640999 134.955622,18.062513 C135.403076,17.0726067 135.845559,16.0728668 136.324501,15.092794 C136.473653,14.7797607 136.357646,14.712565 136.100774,14.6289802 C135.893619,14.5617846 135.764354,14.6715921 135.621832,14.7551769 C134.443535,15.4386056 133.210549,15.9581426 131.909616,16.308871 C130.041907,16.8152966 128.129453,17.1152185 126.245172,17.5003642 C123.442781,18.0739854 120.678506,18.7754422 118.098184,20.1062435 C117.745192,20.2881634 117.375628,20.4700832 117.120413,20.7995057 C116.80388,21.2239854 116.923201,21.5894641 117.42203,21.7386056 C117.862856,21.8598855 118.285452,21.7697451 118.709705,21.6369927 C120.071956,21.2174298 121.42592,20.7700052 122.801429,20.3701093 C125.310489,19.6407908 127.743316,18.6443288 130.303751,18.121514 C131.579825,17.8576483 132.8675,17.5413371 134.120373,18.2673777 C134.234723,18.3329344 134.388846,18.3329344 134.52474,18.3673517 Z M136.554858,48.7463319 C136.911164,48.3710198 137.221068,48.028486 137.688409,47.926873 C138.099405,47.8400104 138.517029,47.7793704 138.901508,47.6072841 C139.257815,47.449948 139.51303,47.5613944 139.682068,47.9055671 C139.837849,48.2202393 140.018488,48.5349116 140.16101,48.864334 C140.273702,49.1544225 140.384738,49.103616 140.565377,48.9233351 C140.944884,48.5201613 141.077464,48.0235692 140.82722,47.5433663 C140.552119,47.010718 140.606808,46.6632674 141.082435,46.3109001 C141.510003,45.9913111 141.642582,45.5176639 141.548119,44.9702653 C141.496745,44.6850937 141.435427,44.4031998 141.422169,44.1180281 C141.374109,43.1969563 141.823221,42.8380333 142.655155,43.1281217 C143.266677,43.3444589 143.806937,43.7099376 144.360455,44.0508325 C145.775737,44.9276535 147.189362,45.8028356 148.740538,46.4190687 C149.463094,46.7009625 150.190622,46.9058273 150.961238,46.9402445 C151.2844,46.9599116 151.337432,46.8369927 151.201538,46.5649324 C151.020899,46.2076483 150.757398,45.9159209 150.427607,45.7028616 C148.88306,44.6768991 147.365029,43.5984912 145.58184,43.0117586 C145.015064,42.823283 144.494691,42.5381113 143.962717,42.2726067 C143.545093,42.0611863 143.321365,41.7792924 143.35451,41.269589 C143.384341,40.8483871 143.309765,40.4288241 142.966716,40.0961238 C142.626982,40.5927159 142.24416,41.0122789 141.771847,41.3253122 C140.739387,42.0087409 140.247187,42.9724246 140.315133,44.2376691 C140.321762,44.378616 140.301876,44.519563 140.295247,44.6687045 C140.265416,45.2931322 139.952198,45.7192508 139.392051,45.9191988 C139.012543,46.05359 138.621435,46.1404527 138.24027,46.2518991 C137.517714,46.4665973 136.959224,46.8861602 136.599603,47.5761446 C136.418964,47.9367066 136.317872,48.307102 136.554858,48.7463319 Z M130.703146,40.0846514 C130.689888,39.8175078 130.683259,39.4864464 130.651771,39.1668574 C130.621941,38.8128512 130.421415,38.5506243 130.078367,38.4899844 C129.725375,38.4260666 129.606053,38.7456556 129.508276,39.0029657 C129.188429,39.7830905 128.890126,40.5632154 128.692915,41.38923 C128.155969,43.5788241 127.272661,45.6258325 126.342949,47.6613684 C125.996586,48.4316597 125.416553,49.0495317 125.035388,49.7985172 C124.818289,50.2393861 124.967441,50.6425598 125.404952,50.7769511 C125.703255,50.8703694 125.91041,50.678616 126.107621,50.5065297 C127.085392,49.6657648 128.137739,48.9462799 129.321008,48.4382154 C129.524849,48.3480749 129.732004,48.2333507 129.907671,48.0956816 C130.254034,47.8187045 130.386613,47.4401145 130.124769,47.0549688 C129.74029,46.473153 129.78835,45.8683923 129.9143,45.2456035 C130.224204,43.5509625 130.635199,41.8727107 130.703146,40.0846514 Z M122.277741,42.4332206 C122.277741,42.9904527 122.589302,43.1969563 123.079845,42.8921176 C124.345976,42.0890479 125.47787,41.108975 126.468899,39.9682882 C126.954471,39.4045005 127.433413,38.8325182 128.006818,38.3523153 C128.417813,38.0097815 128.870239,37.760666 129.415471,37.7164152 C130.305408,37.6459417 130.4065,37.5394121 130.461189,36.623257 C130.542394,35.4596254 130.590454,34.2894381 130.885442,33.1503902 C130.966647,32.8340791 130.99482,32.5784079 130.6584,32.3784599 C130.335239,32.1899844 130.063451,32.1440947 129.75189,32.3997659 C129.276263,32.7881894 128.923271,33.2765869 128.648169,33.8190687 C127.864295,35.3580125 126.82852,36.7068418 125.683368,37.9688085 C125.000585,38.7325442 124.321117,39.5028356 123.631706,40.2649324 C123.243912,40.7090791 122.864404,41.1483091 122.547871,41.648179 C122.403692,41.8759886 122.295971,42.1234651 122.277741,42.4332206 Z M157.855354,34.2353538 C156.877583,33.6797607 155.956158,33.4372008 154.9585,33.5601197 C153.844835,33.7027055 152.799117,34.0501561 151.766657,34.5156087 C150.22211,35.2121488 148.828372,34.8728928 147.736251,33.5470083 C147.674933,33.4667014 147.606986,33.3765609 147.529096,33.3077263 C147.189362,33.015999 147.002094,33.0733611 146.887744,33.5158689 C146.819798,33.7944849 146.75848,34.0763788 146.683904,34.3549948 C146.304396,35.7546306 145.593441,36.9870968 144.917287,38.2507024 C144.846026,38.3801769 144.655443,38.5211238 144.784708,38.6735432 C144.87917,38.7899063 145.083011,38.717794 145.23382,38.6915713 C145.742592,38.5752081 146.185075,38.3211759 146.534752,37.9376691 C147.282167,37.1050989 148.226794,36.7887877 149.265883,36.6281738 C149.993411,36.5216441 150.715967,36.4577263 151.443495,36.4872268 C152.023529,36.5150884 152.540587,36.3856139 153.01953,36.0348855 C153.579676,35.6218783 154.214399,35.367846 154.850779,35.1302029 C155.800377,34.7761967 156.758261,34.4828304 157.855354,34.2353538 Z M123.025156,25.8113163 C123.219053,25.7768991 123.416265,25.7768991 123.591932,25.7162591 C125.290602,25.1557492 127.055562,24.7640479 128.598452,23.7528356 C128.910013,23.5463319 129.258033,23.3562175 129.599424,23.1890479 C130.414786,22.7694849 131.201975,22.7104839 131.972591,23.3873569 C132.552625,23.9052549 132.895673,23.7823361 133.18569,23.0333507 C133.508852,22.2024194 133.810469,21.3567378 134.088886,20.5061394 C134.163461,20.2996358 134.370616,20.057076 134.065684,19.8325442 C133.770696,19.6063736 133.498908,19.6325963 133.20392,19.8292664 C131.624571,20.8830905 129.927558,21.6615765 128.134425,22.189308 C126.311462,22.728512 124.66748,23.6561394 123.071559,24.682102 C122.867719,24.8148543 122.673822,24.9754683 122.504783,25.1475546 C122.168364,25.4884495 122.213109,25.6277575 122.667193,25.7408429 C122.788171,25.7719823 122.905835,25.7867326 123.025156,25.8113163 Z M142.189471,52.5355099 C142.169584,51.6996618 142.141411,50.9424818 141.642582,50.3164152 C141.480173,50.1066337 141.299534,49.9656868 141.011174,50.1099116 C140.732758,50.2508585 140.82722,50.4524454 140.868651,50.6950052 C141.130495,51.9684443 140.820591,53.0730749 139.910767,53.98923 C139.781502,54.1137877 139.541203,54.2006504 139.66881,54.4563215 C139.781502,54.6808533 139.973742,54.8234391 140.222328,54.7644381 C140.70127,54.6628252 141.009517,54.9201353 141.299534,55.2544745 C141.568006,55.5511186 141.85968,55.8395682 142.14804,56.1296566 C143.478803,57.4653746 144.610698,59.0043184 145.890086,60.4023153 C146.307711,60.8694069 146.793282,61.246358 147.326913,61.5462799 C147.456177,61.6200312 147.625216,61.6970604 147.764424,61.5659469 C147.873802,61.4495838 147.832371,61.2791363 147.787625,61.1529396 C147.645103,60.7694329 147.482693,60.3826483 147.315312,60.0138918 C146.244736,57.7702133 144.599097,56.0329605 142.676699,54.566129 C142.239188,54.2203174 141.886196,53.9187565 142.143068,53.2631894 C142.232559,53.0255463 142.17787,52.7289022 142.189471,52.5355099 Z M156.628997,25.3622529 C156.60911,26.0538762 156.703572,26.7291103 156.9273,27.3764828 C156.995247,27.5698751 156.972045,27.8927419 157.290235,27.8779917 C157.606768,27.8566857 157.742662,27.6239594 157.782435,27.333871 C157.857011,26.8045005 158.044279,26.3374089 158.309437,25.8867066 C158.52985,25.5327003 158.611055,25.0852758 158.483447,24.7197971 C158.286236,24.1494537 158.302808,23.5922216 158.340925,23.0202393 C158.382356,22.249948 158.652486,21.6877992 159.438017,21.4468783 C159.777751,21.3452653 160.085998,21.1141779 160.409159,20.933897 C160.613,20.8158949 160.742265,20.6372529 160.820155,20.4012487 C160.992508,19.8456556 160.775409,19.5424558 160.253379,19.7112643 C159.398244,19.9816857 158.901072,19.1655047 159.111541,18.3952133 C159.189431,18.1247919 159.338583,17.8756764 159.438017,17.6101717 C159.529165,17.3790843 159.554024,17.1430801 159.217604,17.1693028 C158.738662,17.2266649 158.354183,16.9972164 157.954788,16.7694069 C157.860325,16.7136837 157.76752,16.5629032 157.643227,16.7038502 C157.537164,16.8218522 157.402927,16.94641 157.477503,17.1266909 C158.057537,18.52141 157.691287,19.876795 157.348239,21.2370968 C157.001876,22.587565 156.665456,23.9495057 156.628997,25.3622529 Z M140.86368,60.3695369 C140.921683,60.3941207 141.032718,60.4170656 141.090721,60.2449792 C141.158668,60.0368366 141.113923,59.8680281 140.9714,59.7074142 C140.243872,58.9174558 139.851106,57.9439386 139.544517,56.9212539 C139.388737,56.4099116 139.214727,55.8985692 139.049003,55.3937825 C138.977741,55.2102237 138.909795,54.9725806 138.712583,54.944719 C138.49217,54.9086629 138.437481,55.1725286 138.331418,55.3315036 C138.16238,55.5937305 137.985055,55.8149844 137.635378,55.783845 C137.265813,55.7494277 137.075231,55.5068678 136.962538,55.1905567 C136.826645,54.7841051 136.725553,54.3612643 136.602918,53.9531738 C136.564801,53.8171436 136.538285,53.6450572 136.382505,53.6073621 C136.220095,53.5680281 136.145519,53.7335588 136.070944,53.8450052 C135.578744,54.5104058 135.721266,55.2479188 135.896934,55.9641259 C136.039456,56.5049688 136.556515,56.5508585 136.994026,56.640999 C137.265813,56.6934443 137.398392,56.8278356 137.472968,57.1048127 C137.666865,57.8341311 137.7779,58.5831165 137.877335,59.3304631 C137.95191,59.9565297 138.175638,60.1843392 138.787159,60.1745057 C139.461655,60.1630333 140.134494,60.1646722 140.86368,60.3695369 Z M152.340062,57.9390219 C152.340062,58.1471644 152.44281,58.2618887 152.724541,58.1783039 C153.109021,58.0619407 153.495157,57.9865505 153.899524,58.1111082 C154.055304,58.1619147 154.25583,58.3880853 154.416582,58.1520812 C154.552476,57.9406608 154.572363,57.7013788 154.471271,57.4407908 C154.280689,56.9540323 154.154739,56.4476067 154.166339,55.923153 C154.211085,54.1301769 153.700655,52.453564 153.208455,50.7638398 C153.113992,50.4344173 152.97147,50.1230229 152.729513,49.8771852 C152.421266,49.5608741 152.175995,49.6280697 152.056674,50.0541883 C151.95061,50.4213059 151.962211,50.7998959 152.018557,51.178486 C152.151136,51.994667 152.28703,52.8010146 152.381493,53.6237513 C152.550531,55.0397763 152.570418,56.4541623 152.340062,57.9390219 Z M151.965525,59.889334 C152.053359,59.571384 152.260514,59.3255463 152.098105,58.992846 C151.816374,58.4225026 151.735169,57.8029917 151.721911,57.1703694 C151.708653,56.160796 151.687109,55.1545005 151.647336,54.1465661 C151.592647,52.7944589 151.405379,51.4669355 150.999355,50.1738293 C150.898263,49.8231009 150.757398,49.4904006 150.384519,49.3576483 C150.09616,49.2511186 149.892319,49.2937305 149.973524,49.6903486 C150.028213,50.0033819 150.089531,50.3246098 150.135933,50.6425598 C150.482296,52.8305151 150.556872,55.0037201 149.91552,57.1507024 C149.772998,57.6341831 149.990096,58.215999 150.475667,58.4831426 C151.082217,58.832232 151.605905,59.2386837 151.965525,59.889334 Z M130.737948,30.7969043 C131.074367,30.7969043 131.142314,30.583845 131.18706,30.3691467 C131.491992,29.0399844 131.821782,27.7239334 132.246036,26.4308273 C132.340498,26.1472945 132.110142,25.7867326 131.873157,25.8309834 C131.733949,25.858845 131.617942,25.9506243 131.496963,26.0276535 C129.765148,27.2043965 128.56365,28.9006764 127.35718,30.5936785 C127.337293,30.6215401 127.330664,30.6575963 127.312434,30.6903746 C127.203056,30.9575182 127.319063,31.1148543 127.56102,31.0197971 C128.628282,30.5969563 129.685601,30.3330905 130.737948,30.7969043 Z M145.339883,2.12403746 C145.203989,2.04700832 145.102898,2.14534339 145.016721,2.2748179 C144.874199,2.4780437 144.731676,2.67471384 144.582525,2.87793965 C144.239476,3.35322581 144.252734,3.41386576 144.83111,3.5646462 C146.543039,4.01698751 148.261596,4.43491155 149.922149,5.09211759 C151.08056,5.54773673 151.087189,5.53462539 151.816374,4.51194069 C151.829632,4.49227367 151.836261,4.47752341 151.849519,4.46605099 C152.026843,4.27757544 151.978783,4.1726847 151.743455,4.10221124 C151.400407,3.99240375 151.057358,3.85309573 150.71431,3.72689906 C148.964265,3.08608221 147.171132,2.58129553 145.339883,2.12403746 Z M138.415937,14.8141779 C138.185581,14.7748439 138.14415,14.8977627 138.099405,15.0141259 C137.990027,15.3140479 137.888935,15.6270812 137.756356,15.9204475 C137.613833,16.2334807 137.63372,16.3645942 138.011571,16.4645682 C139.387079,16.8251301 140.752645,17.2283039 142.128153,17.6134495 C143.367768,17.9576223 143.361139,17.9494277 144.077067,16.8234912 C144.280907,16.5006243 144.251077,16.4006504 143.88317,16.308871 C142.123182,15.8417794 140.364851,15.3550208 138.609834,14.8715401 C138.517029,14.8469563 138.435824,14.8240114 138.415937,14.8141779 Z M143.135755,5.82307492 C143.288221,5.87552029 143.430743,5.93452133 143.573266,5.98368887 C145.203989,6.50650364 146.823112,7.02440166 148.442235,7.54885536 C149.512811,7.89630593 149.501211,7.88319459 150.137591,6.95065036 C150.374576,6.60975546 150.309943,6.50978148 149.943694,6.40325182 C148.299712,5.9132154 146.655731,5.3969563 145.010092,4.8905307 C143.734018,4.5037461 143.734018,4.5037461 143.135755,5.82307492 Z M145.876828,13.8636056 C145.795624,13.7472425 145.663045,13.7472425 145.547038,13.7177419 C143.869912,13.2834287 142.184499,12.8441988 140.504059,12.4098855 C139.488171,12.1476587 139.501429,12.1574922 139.034088,13.1211759 C138.871678,13.457154 138.966141,13.5341831 139.271073,13.6112123 C140.759274,14.0143861 142.252446,14.4241155 143.734018,14.8420395 C145.109527,15.2173517 145.109527,15.2206296 145.843684,13.9619407 C145.863571,13.9275234 145.863571,13.8996618 145.876828,13.8636056 Z M148.939407,9.27299688 C148.897976,9.05993757 148.728937,9.10091051 148.609616,9.06649324 C146.803225,8.55187305 144.99352,8.04380853 143.188786,7.53246618 C142.29222,7.27679501 142.312107,7.28662851 141.768532,8.07330905 C141.513317,8.44042664 141.639268,8.51253902 141.982316,8.60923517 C143.866597,9.15171696 145.745907,9.71878252 147.626873,10.2694589 C147.814141,10.3235432 148.037868,10.5218522 148.206907,10.3087929 C148.472065,9.97445369 148.702421,9.61716961 148.939407,9.27299688 Z M147.272224,11.5937045 C145.427717,11.0545005 143.611382,10.526769 141.785105,9.99248179 C140.855393,9.71878252 140.87528,9.73025494 140.376451,10.5726587 C140.185869,10.9151925 140.260445,10.9987773 140.596864,11.0954735 C142.121524,11.564204 143.652813,12.0542404 145.170844,12.5377211 C146.478406,12.9507284 146.478406,12.9507284 147.207592,11.7543184 C147.225821,11.7264568 147.23245,11.6887617 147.272224,11.5937045 Z M149.544299,56.9294485 C149.579101,56.7360562 149.605617,56.63936 149.618875,56.541025 C149.806143,54.9774974 149.550928,53.4565817 149.214508,51.9504162 C149.058728,51.2637097 148.902947,50.5835588 149.15319,49.882102 C149.227766,49.6755983 149.146561,49.462539 149.058728,49.2625911 C148.939407,49.0134755 148.821743,49.0364204 148.695792,49.2347294 C148.472065,49.58218 148.433949,49.982076 148.447207,50.3754162 C148.480351,51.178486 148.344458,51.9487773 148.104158,52.7043184 C147.948377,53.1812435 147.792597,53.6581686 147.663332,54.1383715 C147.530753,54.5956296 147.401489,55.1282778 147.843971,55.4314776 C148.453835,55.8494017 149.000724,56.3230489 149.544299,56.9294485 Z M67.4595812,39.9584547 C67.4595812,40.4566857 67.4794681,40.88936 67.4529523,41.3187565 C67.423122,41.7317638 67.6733651,41.6793184 67.921951,41.6825963 C68.1771658,41.6891519 68.3876352,41.6973465 68.3743773,41.308923 C68.3412325,40.5894381 68.3677483,39.8650364 68.3677483,39.1488293 C68.3677483,38.5424298 68.2384837,38.437539 67.6717078,38.5489854 C67.5159274,38.5801249 67.4413516,38.6932102 67.3551752,38.7997399 C67.181165,39.0193548 66.9922398,39.2324142 66.8314875,39.4684183 C66.688965,39.6863944 66.5762727,39.714256 66.4072343,39.4782518 C66.2332242,39.216025 66.0161258,38.9783819 65.8272006,38.7194329 C65.5902153,38.417872 65.2736826,38.5325963 65.0052099,38.5719303 C64.7334226,38.6079865 64.8626873,38.8947971 64.8626873,39.0685224 C64.8428004,39.8257024 64.8759452,40.5763267 64.8428004,41.3318678 C64.8361715,41.7596254 65.0980153,41.6629292 65.3283715,41.6825963 C65.5769574,41.6940687 65.7774834,41.6924298 65.7526248,41.3253122 C65.7294234,40.88936 65.7459958,40.4484912 65.7459958,39.9027315 C66.0824154,40.2813215 66.3061427,40.7828304 66.5812444,40.810692 C66.9441798,40.8516649 67.0485859,40.232154 67.4595812,39.9584547 Z M142.270676,19.2572841 C142.229245,19.0409469 142.028719,19.0770031 141.897797,19.0409469 C140.563719,18.660718 139.218041,18.2936004 137.880649,17.923205 C136.945966,17.664256 136.964196,17.6740895 136.559829,18.5853278 C136.39742,18.9360562 136.485254,19.0327523 136.808415,19.1163371 C138.203811,19.4719823 139.599206,19.8489334 140.999573,20.216051 C141.258103,20.2848855 141.546462,20.4815557 141.750303,20.0685484 C141.899454,19.7833767 142.096666,19.5244277 142.270676,19.2572841 Z M134.3441,11.2675598 C134.693778,11.2675598 135.036826,11.2528096 135.373246,11.2675598 C135.926764,11.2921436 136.36759,11.4904527 136.704009,11.9837669 C137.14152,12.6245838 137.552516,12.5639438 137.882306,11.8379032 C138.193867,11.1544745 138.46234,10.4546566 138.765615,9.76795005 C138.871678,9.54014048 138.952883,9.32708117 138.68441,9.17466181 C138.429195,9.03043704 138.172323,8.7042924 137.85579,8.96815817 C136.932708,9.7450052 135.83893,10.1449011 134.774983,10.607076 C134.463422,10.7332726 134.337471,10.9266649 134.3441,11.2675598 Z M155.347951,11.4330905 C155.185541,11.46423 155.004902,11.4019511 154.89221,11.6051769 C154.655225,12.0263788 154.406639,12.4295525 154.176283,12.858949 C154.047018,13.1015088 154.053647,13.3194849 154.393381,13.3522633 C155.034733,13.4096254 155.463958,13.7865765 155.84678,14.2864464 C156.169941,14.712565 156.503047,15.1222945 156.947187,15.4287721 C157.215659,15.6156087 157.581909,15.6041363 157.721117,15.3828824 C157.883527,15.1222945 158.148685,14.7191207 157.656485,14.4159209 C157.333323,14.2126951 157.164285,13.8734391 157.028391,13.5145161 C156.859353,13.0670916 156.685343,12.6147503 156.474873,12.180437 C156.244517,11.7199011 155.861695,11.4675078 155.347951,11.4330905 Z M136.276441,5.88371488 C136.344388,6.0049948 136.467024,6.02630073 136.581373,6.07546826 C137.433194,6.45569719 138.354619,6.70317378 139.115292,7.30137877 C139.426853,7.54393861 139.703612,7.42265869 139.917396,7.10962539 C140.396338,6.40816857 140.813962,5.65590531 141.16364,4.87578044 C141.273018,4.6332206 141.254788,4.39557752 141.130495,4.15301769 C141.029404,3.94651405 140.929969,3.89079084 140.746016,4.07271072 C139.612464,5.23306452 138.19221,5.60345994 136.660921,5.68540583 C136.506798,5.69360042 136.344388,5.6919615 136.276441,5.88371488 Z M151.929066,13.2162331 C152.313546,12.7130853 152.651623,12.2935224 153.148794,12.0558793 C153.650938,11.8133195 154.161367,11.583871 154.660196,11.3265609 C154.948556,11.1757804 155.226972,10.9938606 155.508703,10.805385 C155.763918,10.6251041 155.913069,10.3710718 155.961129,10.0514828 C156.055592,9.50408429 155.838494,9.24841311 155.394353,9.50736212 C154.759631,9.88103538 154.060276,9.87447971 153.407324,10.0826223 C152.026843,10.5316857 151.460067,11.6297607 151.929066,13.2162331 Z M73.1621415,41.7137357 C74.1912871,41.7104579 74.8674407,41.0581686 74.8574973,40.0813736 C74.8442394,39.1406348 74.1714002,38.5129292 73.1621415,38.4998179 C72.1561973,38.4899844 71.433641,39.155385 71.433641,40.1059573 C71.4402699,41.0630853 72.1429394,41.7170135 73.1621415,41.7137357 Z M84.857279,41.7137357 C85.889739,41.7170135 86.5692071,41.0794745 86.5692071,40.1075963 C86.5625781,39.1406348 85.8831101,38.4949011 84.857279,38.5014568 C83.8546492,38.5047347 83.1702094,39.1422737 83.1652377,40.0830125 C83.1569515,41.049974 83.8364196,41.7104579 84.857279,41.7137357 Z M139.047345,24.0265349 C138.011571,23.7364464 137.005627,23.4561915 136.00134,23.1726587 C134.890989,22.8645421 134.904247,22.8727367 134.402104,23.9495057 C134.262896,24.242872 134.301012,24.3362903 134.592686,24.4100416 C135.379875,24.6165453 136.168721,24.841077 136.959224,25.0574142 C138.328104,25.4327263 138.328104,25.4327263 139.047345,24.0265349 Z M89.6566438,40.0944849 C89.6566438,40.5074922 89.6566438,40.9204995 89.6566438,41.3302289 C89.6632728,41.4613424 89.6085839,41.6137617 89.8057954,41.6809573 C90.2913665,41.8350156 90.5532103,41.6465401 90.5598392,41.130281 C90.5598392,41.0221124 90.5465813,40.9139438 90.5598392,40.8074142 C90.5730972,40.691051 90.5051503,40.5369927 90.6609308,40.4812695 C90.8100824,40.4255463 90.939347,40.4894641 91.0454103,40.5943548 C91.2459363,40.7943028 91.33377,41.0712799 91.4497767,41.3335068 C91.5757269,41.6252341 92.1773048,41.8612383 92.3977176,41.6563736 C92.6347028,41.4465921 92.3397142,41.2564776 92.2717674,41.0647242 C92.2104495,40.8614984 92.102729,40.6681061 91.9734643,40.4976587 C91.8475141,40.3468783 91.8176838,40.2764048 91.9933512,40.1256243 C92.2651384,39.8863424 92.3198273,39.5520031 92.1839337,39.194719 C92.0414111,38.8325182 91.7861963,38.5997919 91.4066885,38.5735692 C90.9012305,38.5424298 90.4040587,38.5604579 89.9052297,38.5506243 C89.6815024,38.5424298 89.6566438,38.6653486 89.6566438,38.8505463 C89.6632728,39.2668314 89.6566438,39.6781998 89.6566438,40.0944849 Z M139.872651,22.7449011 C140.20907,22.6613163 140.267074,22.2319199 140.49743,21.9795265 C140.646581,21.8074402 140.600179,21.6976327 140.391366,21.6402706 C138.967798,21.2403746 137.545887,20.8372008 136.119004,20.4307492 C135.93505,20.3733871 135.82733,20.4405827 135.77927,20.6372529 C135.678178,20.9683143 135.422963,21.2403746 135.44285,21.6156868 C135.44285,21.6386316 135.530684,21.6681322 135.572115,21.6779657 C136.972482,22.0270552 138.381135,22.3728668 139.872651,22.7449011 Z M137.295644,41.0827523 C137.275757,39.2766649 137.115004,37.6344693 137.003969,35.9840791 C136.99734,35.8709938 136.922765,35.7529917 136.87139,35.6399063 C136.770299,35.40718 136.702352,35.1170916 136.405706,35.128564 C136.082544,35.1400364 136.007969,35.4530697 135.933393,35.7005463 C135.719609,36.4101977 135.784241,37.1296826 135.906877,37.8409729 C136.095802,38.9865765 136.453766,40.0567898 137.295644,41.0827523 Z M146.617614,52.373257 C146.647445,51.2702653 147.021981,50.221358 147.065069,49.1281998 C147.071698,48.9479188 147.078327,48.76436 147.051811,48.5873569 C146.935804,47.7613424 146.634187,47.0353018 145.924888,46.551821 C145.818825,46.4879032 145.70779,46.4174298 145.588469,46.4977367 C145.490692,46.5682102 145.500635,46.6812955 145.53378,46.7927419 C145.818825,47.8826223 145.770765,49.0020031 145.818825,50.1115505 C145.863571,50.9359261 146.161874,51.6668835 146.617614,52.373257 Z M118.091555,40.0961238 C118.091555,40.5091311 118.098184,40.9221384 118.088241,41.3351457 C118.081612,41.5859001 118.162816,41.6924298 118.414717,41.6858741 C118.958291,41.6629292 119.491922,41.6727627 120.030525,41.6858741 C120.279111,41.6924298 120.360316,41.6022893 120.366945,41.3417014 C120.376888,41.030307 120.204535,41.0483351 120.004009,41.049974 C119.773653,41.0565297 119.551583,41.0417794 119.324541,41.0565297 C119.087556,41.069641 118.988121,41.0024454 118.984807,40.730385 C118.978178,40.4353798 119.082584,40.3534339 119.351057,40.3731009 C119.558212,40.3894901 119.762052,40.3681842 119.972522,40.3796566 C120.212821,40.3993236 120.260881,40.2764048 120.26751,40.053512 C120.274139,39.8224246 120.192934,39.733923 119.962578,39.7552289 C119.800169,39.7667014 119.61953,39.7634235 119.445519,39.7552289 C119.238365,39.7421176 118.979835,39.8470083 118.986464,39.4438345 C118.996408,39.0291883 119.284767,39.1832466 119.472035,39.1635796 C119.644388,39.1422737 119.818398,39.1455515 119.992408,39.1619407 C120.229394,39.1766909 120.342086,39.1127732 120.342086,38.8390739 C120.328828,38.5801249 120.216136,38.5424298 120.012295,38.5489854 C119.495237,38.5539022 118.973206,38.5604579 118.449519,38.5424298 C118.181046,38.5325963 118.070011,38.6194589 118.083269,38.9095473 C118.111442,39.2996098 118.091555,39.6995057 118.091555,40.0961238 Z M109.608147,39.5126691 C109.669465,38.6932102 109.669465,38.6899324 109.003255,38.5670135 C108.809358,38.5309573 108.623747,38.4998179 108.42985,38.5030957 C107.471966,38.5244017 106.830614,39.0898283 106.772611,39.9469823 C106.73118,40.5943548 106.928391,41.1319199 107.485224,41.4580645 C108.133204,41.8399324 108.822616,41.7940427 109.495455,41.5023153 C109.787129,41.369563 109.689352,41.0401405 109.618091,40.8401925 C109.536886,40.591077 109.369505,40.8565817 109.238583,40.8828044 C109.034742,40.9286941 108.834217,40.989334 108.623747,40.9860562 C108.086802,40.9729448 107.727181,40.6468002 107.700665,40.1633195 C107.66752,39.6552549 108.017198,39.2930541 108.577344,39.2324142 C108.935308,39.194719 109.251841,39.3373049 109.608147,39.5126691 Z M98.1085641,39.5126691 C98.2179418,38.7030437 98.2113129,38.696488 97.5517317,38.5702914 C97.3777215,38.5424298 97.2053687,38.5096514 97.0363303,38.4998179 C96.0519301,38.4801509 95.3459462,39.0816337 95.2978863,39.9682882 C95.2597698,40.6091051 95.4669247,41.1433923 96.0204426,41.4629813 C96.6750521,41.8366545 97.3661209,41.7924037 98.0306738,41.4973985 C98.3190334,41.367924 98.2245708,41.0352237 98.163253,40.8287201 C98.0754193,40.5763267 97.9014091,40.8451093 97.7837452,40.8778876 C97.5384738,40.9368887 97.3081175,40.9975286 97.0578744,40.9795005 C96.5855612,40.9385276 96.2557706,40.6254943 96.2259403,40.1862643 C96.1878238,39.6863944 96.4629255,39.4192508 96.8805498,39.2799428 C97.3014885,39.1422737 97.6909398,39.275026 98.1085641,39.5126691 Z M137.409993,26.7012487 C136.47531,26.4373829 135.545599,26.1735172 134.607601,25.9047347 C133.752466,25.6670916 133.765724,25.6670916 133.462449,26.5603018 C133.356386,26.8471124 133.424333,26.933975 133.679547,26.9978928 C134.372273,27.1781738 135.051742,27.3764828 135.734524,27.5649584 C136.878019,27.8763528 136.878019,27.8763528 137.409993,26.7012487 Z M136.082544,29.2743496 C136.062658,29.1006243 135.920135,29.1088189 135.814072,29.0825963 C135.219123,28.9121488 134.605944,28.7531738 134.007681,28.5827263 C133.016652,28.310666 133.02991,28.3139438 132.700119,29.3235172 C132.605656,29.6070499 132.64543,29.7365245 132.937104,29.8201093 C133.667947,30.0298907 134.390503,30.2691727 135.118031,30.4871488 C135.227409,30.5215661 135.373246,30.6477627 135.454451,30.5133715 C135.684807,30.1101977 135.87539,29.6873569 136.082544,29.2743496 Z M144.287536,51.9094433 C144.529493,50.6950052 144.854312,49.4920395 144.860941,48.2431842 C144.860941,47.808871 144.812881,47.3794745 144.53115,47.0205515 C144.428401,46.8697711 144.282564,46.7288241 144.103582,46.7468522 C143.929572,46.7697971 143.929572,46.9926899 143.876541,47.1385536 C143.323023,48.785666 143.652813,50.3557492 144.287536,51.9094433 Z M78.9923092,38.5506243 C78.5945718,38.5506243 78.1968344,38.5506243 77.7974397,38.5506243 C77.7841818,38.5506243 77.7642949,38.5506243 77.7460653,38.5506243 C77.522338,38.5194849 77.4610201,38.6292924 77.4411333,38.8538241 C77.4079885,39.2569979 77.5703979,39.3733611 77.9200754,39.315999 C78.4735933,39.2045525 78.6360028,39.4569459 78.5796566,40.0043444 C78.5382257,40.4304631 78.5862856,40.8631374 78.5663987,41.2941727 C78.5465119,41.608845 78.6674903,41.6727627 78.9508782,41.6924298 C79.3685025,41.7202914 79.5010817,41.5695109 79.4629652,41.1466701 C79.4281631,40.8270812 79.4563362,40.5058533 79.4563362,40.1829865 C79.4563362,39.3635276 79.4563362,39.3487773 80.2501538,39.3258325 C80.5484569,39.315999 80.5733155,39.1766909 80.5766299,38.9242976 C80.5766299,38.6637097 80.52857,38.5276795 80.2368959,38.5440687 C79.8259006,38.5637357 79.4033046,38.5506243 78.9923092,38.5506243 Z M103.91553,26.9929761 C104.795524,27.0126431 105.416989,26.5832466 105.566141,25.9325963 C105.660603,25.5638398 105.532996,25.299974 105.223092,25.1262487 C104.556882,24.7509365 103.388528,25.1164152 103.038851,25.8080385 C102.763749,26.3177419 102.922844,26.7291103 103.449846,26.9028356 C103.630485,26.9601977 103.821068,26.9798647 103.91553,26.9929761 Z M142.804307,45.096462 C141.635953,46.5190427 141.765218,48.0661811 142.356852,49.6837929 C143.323023,47.8744277 143.714131,46.0093392 142.804307,45.096462 Z M112.776789,40.0764568 C112.776789,40.4878252 112.790047,40.9008325 112.776789,41.3171176 C112.763531,41.5940947 112.857993,41.6940687 113.129781,41.687513 C113.641868,41.6629292 114.139039,41.6596514 114.651126,41.6907908 C114.962687,41.7055411 115.062122,41.6137617 115.062122,41.2712279 C115.068751,40.8959157 114.868225,40.9270552 114.637868,40.9368887 C114.495346,40.9401665 114.349509,40.9204995 114.213615,40.9401665 C113.795991,41.0073621 113.621981,40.8680541 113.666726,40.4009625 C113.708157,39.9010926 113.679984,39.394667 113.673355,38.8882414 C113.666726,38.7620447 113.734673,38.6112643 113.517575,38.5522633 C113.018746,38.4080385 112.776789,38.5719303 112.776789,39.1013007 C112.776789,39.4225286 112.776789,39.7503122 112.776789,40.0764568 Z M138.88825,43.8590791 C139.136836,43.8590791 139.282673,43.8623569 139.418567,43.8590791 C139.849449,43.8426899 139.866022,43.6492976 139.619093,43.34282 C139.06889,42.6675858 138.352962,42.3529136 137.512742,42.385692 C136.853161,42.4069979 136.392448,42.803616 136.089173,43.4001821 C135.956594,43.6558533 135.969852,43.7886056 136.306272,43.7705775 C137.20781,43.7164932 138.104376,43.7263267 138.88825,43.8590791 Z M134.052426,33.1241675 C134.18832,33.1930021 134.249638,33.0930281 134.294383,32.9914152 C134.443535,32.6341311 134.586057,32.2653746 134.74681,31.9080905 C134.852873,31.6704475 134.692121,31.6442248 134.549598,31.6065297 C133.863501,31.4164152 133.17409,31.2394121 132.494621,31.0460198 C132.252664,30.9739074 132.17146,31.0984651 132.144944,31.300052 C132.110142,31.6933923 131.747207,32.039204 131.975906,32.476795 C131.975906,32.476795 131.995792,32.4899063 132.020651,32.5013788 C132.700119,32.7062435 133.379587,32.9143861 134.052426,33.1241675 Z M137.451424,52.1995317 C137.950253,52.0208897 138.460683,51.8488033 138.966141,51.6652445 C140.040032,51.2735432 140.296904,50.7753122 140.059919,49.6100416 C139.991972,49.2757024 139.872651,49.20359 139.629036,49.4592612 C139.324104,49.782128 139.02083,50.121384 138.616463,50.2885536 C137.801102,50.6261707 137.338732,51.1834027 137.451424,52.1995317 Z M101.056793,38.6030697 C101.056793,38.6522373 101.056793,38.6719043 101.063422,38.6833767 C101.600367,39.5388918 102.422358,40.2436264 102.18703,41.4597034 C102.115769,41.826821 102.513506,41.6301509 102.707403,41.6727627 C102.93113,41.7219303 103.091883,41.6301509 103.043823,41.3630073 C102.856555,40.4271852 103.335497,39.7503122 103.852555,39.0816337 C103.965248,38.93577 104.114399,38.7997399 104.134286,38.5604579 C103.865813,38.5604579 103.577454,38.4867066 103.353726,38.5735692 C102.980847,38.7276275 102.912901,39.2324142 102.538365,39.4962799 C102.190344,38.9537981 101.905299,38.2720083 101.056793,38.6030697 Z M131.854927,33.7830125 C131.627885,33.7174558 131.599712,33.7944849 131.55331,33.8747919 C131.180431,34.5877211 131.301409,34.8860042 132.04551,35.1170916 C132.197976,35.167898 132.347127,35.207232 132.494621,35.2514828 C133.296725,35.507154 133.296725,35.507154 133.639774,34.6975286 C133.66629,34.6467222 133.681205,34.5975546 133.701092,34.550026 C133.749152,34.4533299 133.745837,34.3746618 133.639774,34.3435224 C133.006708,34.1402966 132.3753,33.9436264 131.854927,33.7830125 Z M162.102858,25.3278356 C161.355443,25.2327784 161.111829,25.3770031 160.750551,25.9604579 C160.434018,26.4734391 160.581512,26.953642 160.770438,27.4436785 C160.808554,27.5338189 160.871529,27.5879032 160.977593,27.5010406 C161.362072,27.2191467 161.860901,27.0126431 161.847643,26.3996878 C161.841014,26.0292924 161.91559,25.6949532 162.102858,25.3278356 Z" id="Shape" fill="#000000" fill-rule="nonzero"></path>
                <path d="M94.7793178,31.832582 C94.9682914,31.8701513 95.1007344,31.8934085 95.2364078,31.9166657 C96.0246055,32.0687319 96.6302902,31.6805159 96.9339401,30.8217891 C97.0260042,30.6035294 97.1035318,30.3602235 96.9468614,30.159854 C96.7950364,29.9684295 96.5834505,29.9720075 96.3815557,30.0507241 C96.1102089,30.1562759 95.8227106,30.2332035 95.5707458,30.3781137 C93.8893651,31.3423922 92.8508177,32.9864961 92.0916929,34.8882179 C91.8268068,35.541208 92.1579145,36.0099297 92.8007478,35.9491032 C92.9590334,35.9330021 93.1286251,35.8936438 93.2804501,35.8185052 C94.3189974,35.3748297 94.9214518,34.4141292 95.4544543,33.3693451 C95.5642851,33.1653975 95.4173056,33.100993 95.3284719,32.9990192 C95.0345129,32.7074099 94.8164664,32.3728643 94.7793178,31.832582 Z M107.732894,31.8665733 C107.884719,31.8844635 108.017162,31.9005646 108.149605,31.9202437 C108.924882,32.0615758 109.553179,31.6805159 109.890747,30.8468353 C109.963429,30.6536218 110.066799,30.4425182 109.940817,30.2349926 C109.805143,30.0095768 109.593558,30.0059988 109.394893,30.0453571 C108.798899,30.165221 108.272357,30.4818765 107.779734,30.8772486 C106.668504,31.7645995 105.886767,32.9864961 105.261701,34.3461467 C105.053345,34.7862441 104.712547,35.285379 105.103415,35.7397886 C105.503975,36.2013542 105.999828,35.9508922 106.437537,35.7362106 C106.758953,35.5859334 107.017379,35.3426275 107.267728,35.0778534 C107.655367,34.6592241 107.949326,34.1493552 108.240054,33.6537983 C108.422567,33.3532439 108.495249,33.1689755 108.193215,32.9059904 C107.918637,32.6734186 107.766813,32.3102488 107.732894,31.8665733 Z" id="Shape" fill="#000000" fill-rule="nonzero"></path>
                <path d="M79.91672,24.7172358 C79.3349033,24.5161306 78.8175394,24.4297182 78.2862398,24.4014377 C77.3299004,24.3433057 77.194027,24.4312893 77.0442179,25.3189804 C76.9832491,25.6237805 76.9971849,25.9380075 77.0163465,26.247521 C77.0442179,26.6183088 77.2271244,26.9325358 77.5406783,27.1744905 C77.7183588,27.3127504 77.8542322,27.3614555 78.0110091,27.1210719 C78.5562445,26.2867994 79.19903,25.5106588 79.91672,24.7172358 Z M78.0859137,23.4210497 C78.993478,23.5278868 79.7460073,23.6441508 80.481117,23.8421138 C80.6309261,23.8766787 80.7528637,23.8908189 80.8800273,23.7761261 C81.5402324,23.1492434 82.2474706,22.5647812 83,22.0054573 C81.2336464,21.9598944 79.5700688,22.1798532 78.0859137,23.4210497 Z M82.2979877,25.7369022 C81.8154631,26.5051871 81.3695197,27.2310514 80.892221,27.9977651 C81.8590122,28.0307589 82.4808941,27.6976784 82.7491569,27.0487997 C82.9721285,26.5318964 82.7839962,26.118688 82.2979877,25.7369022 Z" id="Shape" fill="#000000" fill-rule="nonzero"></path>
                <path d="M104.125556,26.999358 C104.020244,26.9847532 103.807771,26.9652801 103.606383,26.9084835 C103.018849,26.7380937 102.84148,26.3291584 103.14818,25.8244802 C103.538022,25.1396757 104.840574,24.7761776 105.583306,25.1494123 C105.930653,25.3214248 106.07107,25.5843118 105.965758,25.9478099 C105.799474,26.5936682 105.106628,27.0188311 104.125556,26.999358 Z" id="Shape" fill="#FFFFFF"></path>
                <path d="M83,31.1101599 C83.036,31.0681599 83.11,30.9961599 83.118,31.0001599 C83.216,31.0841599 83.118,31.1341599 83.082,31.2001599 C83.058,31.1681599 83.026,31.1361599 83,31.1101599 Z" id="Shape" fill="#801931"></path>
                <path d="M83,31.114 C83.042,31.08 83.098,31.038 83.136,31 C83.164,31.026 83.194,31.056 83.218,31.09 C83.186,31.132 83.164,31.166 83.136,31.204 C83.09,31.178 83.04,31.148 83,31.114 Z" id="Shape" fill="#801931"></path>
            </g>
        </g>
    </g>
</svg>