<?xml version="1.0" encoding="UTF-8"?>
<svg width="200px" height="200px" viewBox="0 0 200 200" version="1.1" xmlns="http://www.w3.org/2000/svg" xmlns:xlink="http://www.w3.org/1999/xlink">
    <!-- Generator: Sketch 46.2 (44496) - http://www.bohemiancoding.com/sketch -->
    <title>clients/mahindra</title>
    <desc>Created with Sketch.</desc>
    <defs></defs>
    <g id="Page-1" stroke="none" stroke-width="1" fill="none" fill-rule="evenodd">
        <g id="clients/mahindra">
            <g id="Group" transform="translate(26.000000, 49.000000)">
                <path d="M54,75.4959557 C53.6989113,81.7453613 53.2563471,87.2838118 51.4389321,92.5791378 C50.347032,95.7563334 49.0120844,98.8303852 46.7702431,101.377667 C45.9377146,102.313328 45.0271933,103.077697 43.8645555,103.565788 C41.5519765,104.534602 39.6910305,103.877061 38.4903032,101.644736 C37.4945339,99.8120926 37.3185965,97.7768456 37.1045696,95.7673845 C36.614847,91.0504002 37.3131551,86.3536763 37.4582581,81.6551105 C37.4727684,81.2812144 37.7811123,80.7654957 37.3276654,80.5849942 C36.9068667,80.4155437 36.7109777,80.9515228 36.4588612,81.2296426 C33.9503931,84.0292584 31.9570407,87.2709188 29.0513531,89.7095316 C28.0320046,90.5567837 26.9509872,91.2787899 25.7502599,91.8184527 C23.9963274,92.614133 22.2188157,92.2089254 21.1269156,90.628616 C18.8234055,87.2764444 18.5132479,83.5448512 19.6105893,79.7469513 C20.9673023,75.0483855 23.6027355,71.1307652 26.9364769,67.5833572 C29.795006,64.5424587 32.8185898,61.7299499 36.179538,59.2931791 C38.8004609,57.3905454 41.5501627,55.7126178 44.5465396,54.4712092 C45.3681854,54.1378339 46.207969,53.973909 47.0858421,54.0033786 C47.9473912,54.0273227 48.5586375,54.373591 49.0030155,55.1453272 C51.047154,58.6669492 52.4709772,62.4095935 53.21463,66.4450924 C53.8077385,69.6812273 53.7877869,72.9376225 54,75.4959557 Z" id="Shape" fill="#000000" fill-rule="nonzero"></path>
                <path d="M11.1579583,64 C8.44083633,63.9387044 5.87284691,63.4807905 3.70860654,61.6797826 C-0.521664975,58.1570905 -1.5801422,52.0888296 2.89565239,47.8594357 C5.25085514,45.627556 7.98616398,43.9599561 11.0161005,42.7791151 C11.9108957,42.4347782 12.7984161,42.0742161 13.6022768,41.5459925 C14.8880902,40.6986715 15.0663218,39.8765898 14.4625169,38.4505665 C13.6386506,36.4566579 12.8675263,34.4537352 12.974829,32.2092359 C13.0821316,29.9917787 14.3424834,28.6090229 16.1939092,27.7382653 C17.9198454,26.9251976 19.7949142,26.8440712 21.6918072,27.2028305 C24.878151,27.8103777 27.7262186,29.1192183 30.2141857,31.1726197 C34.4171769,34.6412275 37.5598721,38.865213 39.3294569,44.0284629 C39.5949855,44.7982631 39.7695797,45.6167391 39.9041627,46.4189899 C40.2278895,48.2885046 39.7441181,49.8533443 38.2600675,51.1820158 C34.000697,55.0021717 29.1957196,57.9389504 24.0051801,60.370942 C20.6315113,61.9592183 17.1287155,63.0264822 13.4949741,63.7566206 C12.7274872,63.904451 11.9418134,63.9206763 11.1579583,64 Z" id="Shape" fill="#000000" fill-rule="nonzero"></path>
                <path d="M62.9590717,8.55099475 C63.21162,12.6699183 62.2486662,16.6117427 61.3547543,20.5827794 C60.5208,24.259868 59.4633677,27.84932 58.0788945,31.3438322 C56.5745062,35.1085576 54.9374848,38.8203357 52.9370845,42.3550148 C52.3229743,43.428564 51.470851,44.310408 50.5351506,45.0973123 C49.0053259,46.3570894 46.9049964,46.2895362 45.3969744,44.9494254 C44.5066963,44.1661727 43.8035584,43.2569422 43.2112509,42.2089537 C40.3550936,37.1351556 37.7224142,31.9609405 36.3797295,26.2536023 C35.1587767,21.095819 34.3393575,15.8814371 35.720197,10.5721155 C36.061773,9.27582304 36.5468837,8.07629611 37.3245144,7.01917877 C38.6017909,5.27739993 41.1472593,5.14777069 42.8751255,6.7288823 C44.7883149,8.47978995 45.7857897,10.8185936 46.7614618,13.1610488 C47.0703338,13.8840513 47.3646706,14.6125312 47.6372047,15.3537913 C47.9279077,16.1242637 48.3112724,16.0859227 48.694637,15.4523826 C49.4577325,14.141484 50.2353631,12.8196309 50.9330504,11.4630883 C52.6645504,8.07812187 54.4887119,4.76070873 57.0468987,1.90886539 C57.9626133,0.890089093 58.8855954,-0.269271033 60.4154202,0.0557149555 C61.908907,0.37887518 62.183258,1.86322129 62.5975098,3.08100587 C63.2188876,4.85747422 62.8991142,6.71975348 62.9590717,8.55099475 Z" id="Shape" fill="#000000" fill-rule="nonzero"></path>
                <path d="M79.5140197,35.0125759 C80.9139613,34.9244893 82.2553503,35.3014999 83.5470581,36.0696149 C86.4054941,37.7608773 86.5793778,41.1821603 85.0268444,43.6679638 C82.7219975,47.3623152 79.2673887,49.687801 75.7879393,52.0344277 C75.2609651,52.3885357 74.6683409,52.6633659 74.1874991,53.0562321 C73.0235426,53.9969968 73.0306399,54.5167077 74.2354058,55.4275229 C75.9156907,56.6906846 77.434512,58.1053552 78.2684443,60.0608774 C79.4253035,62.7528034 78.9125239,64.9655384 76.7017162,66.9087285 C74.4288072,68.9047706 71.8400685,70.0992247 68.7137096,69.9935208 C66.0273831,69.9036724 63.7757659,68.8043518 61.8204609,67.0901869 C59.0684844,64.6678058 56.7086335,61.8525585 54.9626987,58.6655858 C53.5148503,56.0071327 51.8824722,53.3134449 52.0066749,50.0401474 C52.0758735,48.2590366 52.8139923,46.8901711 54.0471475,45.715096 C55.9882579,43.8881802 58.4545683,42.8698993 60.7292516,41.5873586 C64.7534184,39.3112012 69.0153447,37.4772385 73.4334114,36.0801853 C75.3691989,35.4706261 77.3404728,34.9121571 79.5140197,35.0125759 Z" id="Shape" fill="#000000" fill-rule="nonzero"></path>
                <path d="M96.3884409,84.2854475 C95.756507,84.7446029 95.6574168,85.4603452 95.3994083,86.0757679 C95.1189643,86.7220581 94.7020375,87.1580628 93.993449,87.1889304 C93.226902,87.2294441 92.9445884,86.6641813 92.6379696,86.0661217 C92.320133,85.4680621 92.4341802,84.2603675 91.5965874,84.4069886 C90.9721321,84.5208129 91.3086649,85.6359047 91.2320102,86.2976287 C90.9983069,88.5625383 90.8038657,88.9001526 89.4614737,88.9541709 C88.2200415,89.0120476 87.5806291,88.1612596 88.3041747,87.1349121 C89.0819394,86.0313957 88.913673,84.8777194 89.0426773,83.7201847 C89.1959867,82.2481863 89.3567746,80.7819756 89.4988662,79.3061189 C89.5680424,78.6752624 89.6596541,78.0984243 90.4598544,78.0733444 C91.1572252,78.0521229 91.7816805,78.0405475 92.1462577,78.8566095 C92.7482775,80.1530484 93.271773,81.4784257 93.6587858,82.8558921 C93.7204835,83.122125 93.7616153,83.4115087 94.1224532,83.5446252 C94.6889501,82.0610515 95.2647952,80.5755486 95.8350314,79.0977626 C96.1304324,78.3222143 96.6202746,77.9961754 97.4859118,78.0000338 C98.3908112,78.001963 98.7497795,78.2855591 98.7927809,79.2521006 C98.8918712,81.283574 99.0919212,83.3054014 99.2564484,85.3252995 C99.303189,85.8789869 99.3667564,86.3960191 99.7126373,86.8821837 C100.118346,87.4397296 100.077215,88.1824811 99.6976803,88.6917964 C99.3461905,89.1644564 98.6862122,88.9753924 98.1720648,88.8885773 C97.5214347,88.7766822 97.1680753,88.3271729 97.0839421,87.6519443 C96.9362415,86.5329941 96.928763,85.3716009 96.3884409,84.2854475 Z" id="Shape" fill="#000000" fill-rule="nonzero"></path>
                <path d="M132.841804,81.8709624 C132.76978,81.6189915 132.76978,81.4529198 132.690729,81.3784739 C132.121562,80.8382637 131.844006,80.1548883 132.262097,79.440971 C132.636272,78.8110439 133.316109,79.0095664 133.892302,79.1145542 C134.663488,79.2539017 135.100903,79.7826587 135.106173,80.6168348 C135.12374,82.1687461 135.106173,83.7225661 135.113199,85.2744774 C135.120226,86.2995405 134.934017,87.3589633 135.808847,88.1893217 C136.114511,88.4832877 136.007353,89.0712196 135.808847,89.491171 C135.564668,89.9874771 135.11847,89.9836594 134.700378,89.8786716 C133.591909,89.5885233 132.548437,89.5999766 131.413618,89.9244844 C129.890571,90.3597068 128.35347,88.8516996 128.08294,86.9943691 C127.582285,83.5717654 129.370591,81.5865407 132.841804,81.8709624 Z M132.955989,86.0361165 C132.76451,85.1580363 132.613435,84.2436876 131.541856,84.2704118 C130.472034,84.3047715 130.268258,85.2439355 130.241908,86.0933826 C130.227854,86.9294676 130.572165,87.7674615 131.534829,87.7521905 C132.513304,87.7292841 132.841804,86.9542829 132.955989,86.0361165 Z" id="Shape" fill="#000000" fill-rule="nonzero"></path>
                <path d="M106.671855,84.3657598 C106.565471,82.7543901 107.070792,81.0755588 106.158223,79.5355057 C105.827438,78.9823202 106.008622,78.1785628 106.76494,78.0764066 C107.521258,77.9781053 108.719732,77.7718654 108.651581,79.0208697 C108.531899,81.1892799 109.381303,80.9811125 110.72273,80.8500441 C112.336763,80.6862087 112.852057,81.5439354 113.041552,83.398167 C113.167882,84.6818659 113.074797,86.056156 113.83444,87.2068591 C114.110371,87.6270488 114.015624,88.2650432 113.739692,88.640901 C113.290888,89.2788954 112.629317,88.879908 112.06748,88.8432859 C111.567147,88.8182288 111.274593,88.4076764 111.24301,87.8371436 C111.174858,86.7789594 111.141614,85.7149928 111.073462,84.6625911 C111.038555,84.0515813 110.943807,83.4116594 110.235694,83.3808198 C109.550852,83.3519076 109.151914,83.7932996 108.937486,84.5469426 C108.664878,85.581997 108.73303,86.6421087 108.719732,87.7041478 C108.719732,88.2727531 108.900916,88.9897741 108.044864,88.9666444 C107.301843,88.9454421 106.685153,88.7430572 106.671855,87.6810181 C106.665206,86.5804294 106.671855,85.4663485 106.671855,84.3657598 Z" id="Shape" fill="#000000" fill-rule="nonzero"></path>
                <path d="M100.771877,85.1713437 C100.269978,84.7386677 99.2957022,85.1915966 99.4085862,84.0703213 C99.5197335,83.0981811 99.8392819,82.3617113 100.813557,82.1536585 C102.862836,81.7080943 105.262922,82.0781704 105.111832,85.3388906 C105.061468,86.3165543 105.118778,87.283171 105.752665,88.2019171 C106.360502,89.1022515 105.783925,90.0025858 104.721079,89.846086 C103.69644,89.6914273 102.736058,89.7024744 101.706209,89.9399859 C100.499219,90.2235268 99.4745799,89.4686452 99.1480847,88.3860345 C98.7364924,87.06223 99.1532947,86.1950368 100.771877,85.1713437 Z" id="Shape" fill="#000000" fill-rule="nonzero"></path>
                <path d="M145.869636,84.7749079 C145.472952,84.0636413 145.077992,84.2290521 144.610595,84.5690633 C143.924159,85.0891885 143.154936,85.370387 142.58923,84.4606273 C142.208068,83.8320661 142.896229,82.497752 143.703395,82.2772042 C146.02486,81.6376156 147.947917,81.8985971 148.187652,85.2931952 C148.258365,86.3665278 148.194551,87.4049403 148.824072,88.423136 C149.360458,89.3034892 148.594685,90.1820046 147.547783,89.867724 C146.671628,89.597553 145.914479,89.6435004 145.045223,89.9026441 C143.724092,90.2922785 142.440904,89.4689001 142.090788,88.2081019 C141.754468,86.923411 142.356393,85.8997017 143.832749,85.3722249 C144.481241,85.1424876 145.155605,84.9844283 145.869636,84.7749079 Z" id="Shape" fill="#000000" fill-rule="nonzero"></path>
                <path d="M120.008644,87.3154884 C119.986657,86.1799647 120.290798,85.0163802 119.264782,84.0754108 C118.896515,83.7386821 118.949648,83.0409056 119.196991,82.5470369 C119.471817,82.0269783 120.052616,82.0438147 120.499666,82.1504454 C121.641109,82.4179576 122.692776,82.3955091 123.878191,82.1055483 C125.649901,81.6696718 126.626449,82.6050291 126.915932,84.5187701 C127.111975,85.8900039 126.716226,87.364127 127.821025,88.5782208 C128.192956,88.989778 127.982257,89.7006495 127.216409,89.8970745 C125.985189,90.2169667 124.937186,89.7773488 124.829088,88.7709044 C124.724655,87.8430299 124.799774,86.8945776 124.697172,85.9629618 C124.651368,85.3830402 124.719158,84.5898573 123.845212,84.5356065 C122.951112,84.486968 122.438104,85.0762431 122.328173,85.9012282 C122.220075,86.8253612 122.214579,87.7756842 122.227404,88.7091708 C122.238397,89.6276916 121.826158,89.9868688 120.954044,89.9980931 C119.962839,90.005576 119.955511,89.3882402 120.008644,88.6493079 C120.036126,88.2059486 120.008644,87.7607185 120.008644,87.3154884 Z" id="Shape" fill="#000000" fill-rule="nonzero"></path>
                <path d="M82.0958725,82.293626 C82.5052385,82.134391 82.8061401,81.992633 83.1175382,81.8974804 C84.8197312,81.3498674 86.3049951,82.3130449 86.7703429,84.1966782 C87.0607478,85.3521027 87.0992352,86.4842246 86.7493497,87.6182884 C86.128303,89.6242608 84.5415722,90.4631573 82.7694021,89.7485418 C82.5139857,89.6436797 82.2953072,89.3640475 81.9664148,89.5737716 C80.7698064,90.3408182 80.7050776,89.3795826 80.6910822,88.4940808 C80.6770867,86.3580018 80.7050776,84.2258065 80.6910822,82.0916694 C80.6910822,81.551824 80.8065444,80.9556637 80.4076749,80.5012615 C80.0997757,80.1458956 79.8303638,79.7672271 80.1312653,79.2856383 C80.3569415,78.9360981 80.7295696,78.9827035 81.0602114,79.0390183 C81.5587982,79.1225196 81.9454217,79.3963261 81.9856585,80.0002539 C82.0451391,80.7168113 82.0573851,81.4547295 82.0958725,82.293626 Z M85.559739,85.913309 C85.5090056,85.6336768 85.4302814,85.1792745 85.3165686,84.7306979 C85.1118856,83.9248136 84.7637495,83.2529196 83.8855369,83.2606872 C83.0318162,83.2723385 82.6346962,83.9151041 82.3792797,84.7015696 C82.1780956,85.3093812 82.0503874,85.9346698 82.2008381,86.6085056 C82.4440086,87.6804289 82.8061401,88.5911753 84.0149945,88.4610687 C84.9386922,88.3523228 85.5807321,87.3483657 85.559739,85.913309 Z" id="Shape" fill="#000000" fill-rule="nonzero"></path>
                <path d="M64.5938423,78 C65.3968687,78.0286091 66.3026277,78.2536677 67.1518837,78.7838905 C67.790538,79.1863257 68.0422328,79.8119122 67.9942909,80.61869 C67.97032,81.0058671 67.9035438,81.3568059 67.4926135,81.440726 C67.1655814,81.5074807 66.990936,81.2938657 66.811154,81.0001452 C65.7906769,79.2969477 63.6076095,79.0757037 62.3371498,80.6244118 C61.3440682,81.8202739 61.1762716,83.3003201 61.5786409,84.860472 C61.9364927,86.2832999 62.819993,87.0748195 64.0459352,87.4467383 C65.0424413,87.7461806 65.8916973,87.299878 66.7341045,86.7620262 C67.1090785,86.5102657 67.5063111,86.0601486 67.8607386,86.7410461 C68.1483898,87.3075071 67.7973868,87.6908696 67.4429594,88.0341793 C65.9447758,89.5237619 62.8473883,89.2491142 61.3372193,87.4944202 C59.0497071,84.8146973 59.808216,80.0236199 62.7652023,78.3719188 C63.3131094,78.0667547 63.8575921,78.0038146 64.5938423,78 Z" id="Shape" fill="#000000" fill-rule="nonzero"></path>
                <path d="M79.126545,85.0556284 C79.2815974,86.0111758 78.6613878,87.2035256 79.9055887,88.0640185 C80.0908952,88.1974283 79.9831149,88.5326203 79.7580998,88.7093883 C79.4139592,88.9812107 78.9336749,89.0312393 78.6141157,88.8344599 C77.8275085,88.3425114 77.1656995,88.5976576 76.367747,88.8377952 C74.4730824,89.4114571 72.8885226,88.4175544 72.6162355,86.5815025 C72.430929,85.295766 72.8677229,83.9600007 72.0697704,82.7192899 C71.8371918,82.3607512 72.221041,82.0355649 72.705107,82.0072153 C73.4444422,81.9638571 74.1232691,82.0989345 74.2007953,82.8810493 C74.2896668,83.588121 74.2518491,84.3085337 74.2594127,85.0322817 C74.2745397,85.4691987 74.2518491,85.9061156 74.2934486,86.3480355 C74.3369389,86.9250327 74.5222454,87.4870213 75.2823803,87.6271016 C76.029279,87.7655142 76.6041073,87.4570041 77.029556,86.9350384 C77.4833678,86.3647117 77.6138387,85.6826543 77.6611108,85.0055997 C77.7121646,84.448614 77.6611108,83.8866253 77.7121646,83.3296396 C77.7594367,82.8210149 77.4909314,82.0389001 78.4590633,82.057244 C79.304288,82.0772554 79.0906182,82.7926653 79.1208723,83.2779433 C79.1530173,83.8349291 79.126545,84.4035882 79.126545,85.0556284 Z" id="Shape" fill="#000000" fill-rule="nonzero"></path>
                <path d="M136.941258,87.0593347 C136.846069,86.0062989 137.085011,84.9401002 136.269112,83.9848463 C135.907785,83.5579907 135.882531,82.7794964 136.3643,82.3507604 C136.989823,81.7997971 137.844575,82.0893819 138.466212,82.3206737 C139.138358,82.5726501 139.612356,82.6572691 140.230108,82.2811849 C140.75073,81.969035 141.46367,81.7678299 141.778374,82.5087158 C142.069767,83.1743848 142.180496,84.2123773 141.428703,84.434267 C138.965465,85.1657507 139.186923,87.0236067 139.247144,88.802485 C139.26657,89.8122711 138.829482,90.052965 137.914509,89.9909111 C137.296757,89.9420202 136.950971,89.6655983 136.939315,89.0751461 C136.917946,88.4057162 136.941258,87.7362863 136.941258,87.0593347 Z" id="Shape" fill="#000000" fill-rule="nonzero"></path>
                <path d="M119.010336,85.3960906 C119.205446,86.21055 118.695295,87.3955603 119.737078,88.3003062 C120.146989,88.6539283 120.118349,89.5266977 119.359387,89.8521053 C118.442904,90.2546325 117.220331,89.7956762 116.9572,88.9567642 C116.670799,88.0426135 116.76925,87.0814385 116.76925,86.1484781 C116.76925,85.4186623 116.8319,84.7565613 116.321748,84.1226749 C115.915417,83.6223372 115.870667,82.8549021 116.321748,82.3733741 C116.83906,81.8109645 117.605182,82.0065852 118.269274,82.1739914 C118.881455,82.3225879 119.031816,82.8172827 119.017496,83.4135497 C118.997806,84.0004119 119.010336,84.5872741 119.010336,85.3960906 Z" id="Shape" fill="#000000" fill-rule="nonzero"></path>
                <path d="M71.7638469,83.9084837 C71.7638469,84.9799089 71.7542463,86.0532892 71.7734475,87.1266696 C71.7734475,87.5919966 71.7254445,88.0807855 72.2510774,88.4112068 C72.8511151,88.7807311 73.4031498,89.2577891 72.594299,89.7426676 C71.8070496,90.2236359 70.9429954,89.9909724 70.3309569,89.3711881 C69.9517331,88.9899328 69.9229313,88.5011439 69.9229313,88.0338617 C69.9133307,86.3074595 69.9517331,84.5810572 69.9229313,82.8585652 C69.9133307,81.900539 70.1941484,80.8838581 69.1764845,80.0861547 C68.9316691,79.8906392 68.9508703,79.5406663 69.1764845,79.3001822 C69.5605086,78.9228372 70.1053428,78.9814919 70.6165749,79.0518774 C71.2598152,79.1320388 71.670241,79.4585498 71.6798416,79.9883969 C71.7278446,81.2963959 71.6894422,82.604395 71.6894422,83.912394 C71.7254445,83.9084837 71.7446457,83.9084837 71.7638469,83.9084837 Z" id="Shape" fill="#000000" fill-rule="nonzero"></path>
                <path d="M132,86.0287131 C131.917165,87.0811098 131.673836,87.9734545 130.95291,87.9997644 C130.242339,88.0173043 129.98995,87.0526074 130.000305,86.0944879 C130.021013,85.1188285 130.169858,84.0379294 130.958087,84.000657 C131.746317,83.9699621 131.857627,85.0201663 132,86.0287131 Z" id="Shape"></path>
                <path d="M86.9994161,85.5445241 C87.0239295,86.9192032 86.2742295,87.8840863 85.1956422,87.988398 C83.7840818,88.1113368 83.3612265,87.2395891 83.0772802,86.2113739 C82.9016012,85.5631512 83.0486813,84.9652217 83.2856437,84.3821939 C83.5838895,83.6277968 84.0476003,83.0112402 85.0444765,83.000064 C86.0699516,82.9926131 86.4764647,83.6371104 86.7154698,84.4101345 C86.8482505,84.8404202 86.9401755,85.2781568 86.9994161,85.5445241 Z" id="Shape"></path>
            </g>
        </g>
    </g>
</svg>