<?xml version="1.0" encoding="UTF-8"?>
<svg width="200px" height="200px" viewBox="0 0 200 200" version="1.1" xmlns="http://www.w3.org/2000/svg" xmlns:xlink="http://www.w3.org/1999/xlink">
    <!-- Generator: Sketch 46.2 (44496) - http://www.bohemiancoding.com/sketch -->
    <title>clients/only</title>
    <desc>Created with Sketch.</desc>
    <defs></defs>
    <g id="Page-1" stroke="none" stroke-width="1" fill="none" fill-rule="evenodd">
        <g id="clients/only" fill-rule="nonzero" fill="#000000">
            <g id="Group" transform="translate(33.000000, 72.000000)">
                <g transform="translate(3.000000, 0.000000)" id="Shape">
                    <path d="M18.1399785,31.3516522 C15.5101183,31.4226087 12.6619247,31.218087 9.83626882,30.7506087 C8.13890323,30.4653913 6.46548387,30.0716522 5.0413871,29.0518261 C4.02015054,28.3172174 3.3412043,27.277913 2.77212903,26.1773913 C1.55368817,23.8344348 1.08603226,21.3078261 0.863473118,18.7213913 C0.652182796,16.306087 0.698666667,13.888 1.00715054,11.4810435 C1.30436559,9.16034783 1.87907527,6.92313043 3.04539785,4.85426087 C4.13143011,2.93565217 5.77949462,1.8253913 7.89521505,1.24521739 C10.5476129,0.516173913 13.2605806,0.281043478 15.9834086,0.23373913 C18.4188817,0.189217391 20.8557634,0.243478261 23.2856022,0.350608696 C25.4266774,0.443826087 27.5395806,0.802782609 29.5862796,1.44278261 C31.8668065,2.15652174 33.2641398,3.79965217 34.2107204,5.87826087 C35.2615376,8.17947826 35.7207419,10.605913 35.9109032,13.1005217 C36.1475484,16.2852174 36.0235914,19.4532174 35.2756237,22.5753043 C34.9262903,24.0389565 34.3980645,25.4372174 33.652914,26.7603478 C32.480957,28.8375652 30.6483656,29.952 28.3537527,30.4570435 C25.0618495,31.1805217 21.7305054,31.3961739 18.1399785,31.3516522 Z M18.3090108,6.24 C18.3061935,6.27895652 18.2977419,6.31652174 18.2949247,6.35547826 C16.4510645,6.35269565 14.6114301,6.37356522 12.8013763,6.83408696 C11.1589462,7.24869565 9.8883871,8.10991304 9.16154839,9.64591304 C8.89532258,10.2107826 8.67417204,10.8118261 8.5121828,11.4156522 C7.92056989,13.6264348 7.88535484,15.8789565 8.11354839,18.1370435 C8.2544086,19.4949565 8.55162366,20.813913 9.20803226,22.029913 C9.58835484,22.7353043 10.0334731,23.3655652 10.720871,23.8330435 C11.8238065,24.5885217 13.0845054,24.8292174 14.3663333,24.9933913 C17.4145484,25.3885217 20.4543118,25.3412174 23.4898495,24.8292174 C25.6858602,24.4549565 27.1437634,23.2375652 27.8973656,21.1728696 C28.3537527,19.917913 28.5903978,18.624 28.6763226,17.2966957 C28.82,14.994087 28.7509785,12.7067826 27.9551183,10.5113043 C27.5367634,9.35930435 26.8930323,8.36313043 25.814043,7.6493913 C24.9801505,7.09843478 24.0617419,6.83408696 23.1179785,6.70191304 C21.5248495,6.48069565 19.912,6.39026087 18.3090108,6.24 Z"></path>
                    <path d="M47.9220538,11.218087 C47.9220538,11.5631304 47.9220538,11.8177391 47.9220538,12.0709565 C47.9220538,18.1356522 47.9220538,24.2031304 47.9333226,30.272 C47.9333226,30.6615652 47.8319032,30.7645217 47.443129,30.7617391 C45.4344624,30.7422609 43.4229785,30.7422609 41.4157204,30.7617391 C41.0142688,30.7645217 40.8903118,30.6518261 40.8903118,30.2441739 C40.9015806,20.544 40.9015806,10.8493913 40.8874946,1.14643478 C40.8874946,0.717913043 41.0086344,0.596869565 41.4410753,0.602434783 C43.5187634,0.620521739 45.5922258,0.602434783 47.6670968,0.620521739 C47.8896559,0.623304348 48.1756022,0.759652174 48.3220968,0.922434783 C52.8535699,6.02573913 57.3737742,11.1415652 61.8967957,16.2546087 C62.8264731,17.3106087 63.7617849,18.3707826 64.6970968,19.424 C64.7872473,19.5255652 64.9013441,19.616 65.1126344,19.8135652 C65.1126344,19.4782609 65.1126344,19.2765217 65.1126344,19.0733913 C65.1126344,13.1227826 65.1154516,7.16521739 65.0985484,1.20904348 C65.0985484,0.702608696 65.2492688,0.589913043 65.733828,0.59826087 C67.6269892,0.624695652 69.5215591,0.621913043 71.4175376,0.606608696 C71.8246237,0.603826087 71.9866129,0.68173913 71.9866129,1.13113043 C71.9753441,10.8493913 71.9753441,20.5676522 71.9866129,30.2789565 C71.9866129,30.6810435 71.8401183,30.7631304 71.4809247,30.7575652 C69.4694409,30.7464348 67.4607742,30.765913 65.4535161,30.7436522 C65.2337742,30.7353043 64.9534624,30.5906087 64.8069677,30.4236522 C61.4333656,26.5864348 58.0752581,22.7422609 54.7157419,18.893913 C52.5676237,16.4424348 50.420914,13.9923478 48.2756129,11.5394783 C48.2023656,11.4518261 48.1122151,11.3906087 47.9220538,11.218087 Z"></path>
                    <path d="M113.641796,13.7544348 C114.12072,13.088 114.563022,12.4772174 114.99828,11.8608696 C117.540806,8.24069565 120.079108,4.61913043 122.632903,1.00591304 C122.751226,0.836173913 123.001957,0.658086957 123.196344,0.64973913 C125.57829,0.628869565 127.96728,0.637217391 130.349226,0.637217391 C130.426699,0.637217391 130.505581,0.658086957 130.643624,0.673391304 C130.560516,0.816695652 130.511215,0.929391304 130.442194,1.03095652 C126.117785,7.38643478 121.794785,13.7502609 117.45629,20.1057391 C117.167527,20.530087 117.040753,20.941913 117.04357,21.4497391 C117.066108,24.3213913 117.054839,27.1972174 117.054839,30.066087 C117.054839,30.2775652 117.054839,30.4876522 117.054839,30.72 C114.743323,30.72 112.482516,30.72 110.141419,30.72 C110.141419,30.5057391 110.141419,30.3012174 110.141419,30.1036522 C110.141419,27.1165217 110.149871,24.1293913 110.132968,21.1450435 C110.130151,20.8751304 110.034366,20.5732174 109.882237,20.3478261 C105.422602,13.8963478 100.951699,7.456 96.4864301,1.01426087 C96.423043,0.928 96.3765591,0.827826087 96.3019032,0.684521739 C96.4455806,0.669217391 96.5526344,0.641391304 96.656871,0.641391304 C99.0092366,0.638608696 101.364419,0.646956522 103.719602,0.63026087 C104.071753,0.624695652 104.245011,0.788869565 104.421086,1.03791304 C107.331258,5.06713043 110.248473,9.10330435 113.161462,13.1283478 C113.303731,13.3231304 113.454452,13.5067826 113.641796,13.7544348 Z"></path>
                    <path d="M102.791333,23.9123478 C102.791333,24.1558261 102.791333,24.3255652 102.791333,24.498087 C102.791333,26.4194783 102.780065,28.3366957 102.799785,30.2608696 C102.802602,30.6476522 102.709634,30.7895652 102.285645,30.7895652 C94.5270645,30.7784348 86.7656667,30.7812174 79.0113118,30.7812174 C78.8634086,30.7812174 78.7197312,30.765913 78.5492903,30.7547826 C78.5492903,20.7151304 78.5492903,10.7088696 78.5492903,0.638608696 C78.8028387,0.638608696 79.0225806,0.638608696 79.247957,0.638608696 C81.1270323,0.638608696 83.0032903,0.638608696 84.8823656,0.638608696 C85.5091935,0.638608696 85.5091935,0.638608696 85.5091935,1.2786087 C85.5091935,8.58713043 85.5091935,15.8942609 85.5091935,23.2069565 C85.5091935,23.9137391 85.5091935,23.9137391 86.2332151,23.9137391 C91.5267419,23.9137391 96.823086,23.9137391 102.115204,23.9137391 C102.32086,23.9123478 102.527925,23.9123478 102.791333,23.9123478 Z"></path>
                </g>
                <g transform="translate(0.000000, 41.000000)" id="Shape">
                    <path d="M0.977691489,1.09227273 C2.13790426,1.08954545 3.29387234,1.07181818 4.45408511,1.08954545 C4.88279787,1.09227273 5.32141489,1.11954545 5.74729787,1.18636364 C7.1367234,1.41272727 8.23468085,2.04272727 8.54878723,3.45136364 C8.8671383,4.86954545 8.68461702,6.19772727 7.29943617,7.11 C7.26689362,7.13045455 7.25274468,7.18772727 7.19473404,7.27636364 C9.02985106,8.09863636 9.38640426,9.59181818 9.1105,11.3386364 C8.88694681,12.7336364 7.93047872,13.7795455 6.46606383,13.9186364 C4.8106383,14.0740909 3.13823404,14.0154545 1.47856383,14.0604545 C1.31302128,14.0631818 1.14464894,14.07 0.977691489,14.0754545 C0.977691489,9.74727273 0.977691489,5.41909091 0.977691489,1.09227273 Z M3.1467234,12.1254545 C3.92067021,12.1254545 4.61962766,12.1772727 5.31292553,12.1104545 C6.33023404,12.0218182 6.84667021,11.5145455 6.95703191,10.6472727 C7.07871277,9.66681818 6.68112766,8.83090909 5.76003191,8.58545455 C4.93090426,8.36454545 4.0352766,8.36454545 3.10144681,8.25818182 C3.10144681,9.49772727 3.10144681,10.5436364 3.1042766,11.5868182 C3.10569149,11.7518182 3.12974468,11.9045455 3.1467234,12.1254545 Z M3.12974468,6.39272727 C3.89803191,6.39272727 4.59698936,6.45272727 5.28038298,6.37227273 C6.07838298,6.27954545 6.49860638,5.71636364 6.57925532,4.84363636 C6.65424468,3.99272727 6.31184043,3.29318182 5.55345745,3.12818182 C4.78234043,2.95772727 3.9673617,2.97 3.12974468,2.89772727 C3.12974468,4.14818182 3.12974468,5.23772727 3.12974468,6.39272727 Z"></path>
                    <path d="M58.4987766,14.4954545 C57.9215,14.2745455 57.3046064,14.1136364 56.7711915,13.8245455 C55.5826809,13.1809091 54.9445638,12.1513636 54.8030745,10.725 C55.540234,10.725 56.2759787,10.7072727 57.0060638,10.7440909 C57.1164255,10.7468182 57.2607447,10.9745455 57.3215851,11.1245455 C57.6837979,11.9931818 58.2285319,12.3313636 59.2996064,12.3054545 C60.155617,12.2877273 60.7923191,11.8568182 61.059734,11.1068182 C61.352617,10.2804545 61.1432128,9.39818182 60.4187872,8.92363636 C59.8471702,8.55 59.1949043,8.28545455 58.5638617,8.00318182 C58.1351489,7.80409091 57.6625745,7.67863636 57.2324468,7.47545455 C55.6237128,6.72681818 54.8780638,5.49272727 55.0520957,3.90272727 C55.2091489,2.41636364 56.2788085,1.26 57.8875426,0.830454545 C58.0445957,0.789545455 58.200234,0.725454545 58.3516277,0.672272727 C58.8326915,0.672272727 59.3194149,0.672272727 59.8018936,0.672272727 C60.2079681,0.800454545 60.6197021,0.912272727 61.0144574,1.06909091 C62.3487021,1.59681818 63.162266,2.74227273 63.0787872,3.97909091 C62.3161596,3.97909091 61.5535319,3.97909091 60.7626064,3.97909091 C60.5249043,3.33545455 60.1131702,2.865 59.3760106,2.72318182 C58.532734,2.55818182 57.695117,2.925 57.3810106,3.62045455 C57.0414362,4.37454545 57.2423511,5.30863636 57.9469681,5.73409091 C58.532734,6.09 59.1934894,6.32318182 59.8287766,6.59727273 C60.2023085,6.75545455 60.5998936,6.86318182 60.967766,7.03227273 C62.8524043,7.88863636 63.5541915,9.07090909 63.3660106,11.0413636 C63.2061277,12.765 62.1053404,13.9172727 60.1966489,14.3754545 C60.1089255,14.3986364 60.0282766,14.4559091 59.9447979,14.4940909 C59.4609043,14.4954545 58.9798404,14.4954545 58.4987766,14.4954545 Z"></path>
                    <path d="M31.8393511,14.4954545 C31.1672766,14.1968182 30.4386064,13.9827273 29.8358617,13.5886364 C28.8411915,12.9368182 28.2766489,11.9863636 28.208734,10.7522727 C29.0322021,10.7522727 29.7976596,10.7522727 30.6211277,10.7522727 C30.8277021,11.7872727 31.494117,12.3245455 32.6274468,12.3081818 C33.5414681,12.2972727 34.1668511,11.9059091 34.4625638,11.1163636 C34.7639362,10.3090909 34.592734,9.45681818 33.8994362,8.97272727 C33.3575319,8.60318182 32.730734,8.33727273 32.1251596,8.05909091 C31.6723936,7.84909091 31.1771809,7.71 30.7215851,7.51090909 C29.0364468,6.74318182 28.3473936,5.625 28.4803936,3.90409091 C28.5907553,2.46272727 29.605234,1.33636364 31.2380213,0.846818182 C31.3922447,0.796363636 31.5393936,0.729545455 31.6907872,0.673636364 C32.1775106,0.673636364 32.6614043,0.673636364 33.1410532,0.673636364 C33.5527872,0.796363636 33.9701809,0.895909091 34.3705957,1.04590909 C35.697766,1.55181818 36.4434149,2.55136364 36.5396277,4.01318182 C36.163266,4.01318182 35.7883191,4.01318182 35.417617,4.01318182 C35.0313511,4.01318182 34.6465,4.01318182 34.260234,4.01318182 C34.2956064,3.95454545 34.3323936,3.89863636 34.3705957,3.83727273 C33.8371809,3.465 33.3476277,2.97545455 32.7533723,2.74772727 C31.9935745,2.46272727 31.1474681,2.91681818 30.8192128,3.59045455 C30.4485106,4.34045455 30.6310319,5.27454545 31.3299894,5.71636364 C31.8690638,6.05454545 32.4845426,6.285 33.0787979,6.54 C33.4933617,6.71727273 33.9404681,6.83454545 34.3522021,7.02272727 C36.3203191,7.90909091 37.0079574,9.12681818 36.7532766,11.235 C36.5566064,12.8386364 35.4246915,13.9581818 33.5471277,14.3877273 C33.4594043,14.4081818 33.370266,14.46 33.2811277,14.4954545 C32.8043085,14.4954545 32.3204149,14.4954545 31.8393511,14.4954545 Z"></path>
                    <path d="M126.024574,13.9936364 C125.300149,13.9936364 124.659202,13.9936364 123.934777,13.9936364 C123.917798,13.7604545 123.890915,13.5395455 123.890915,13.3145455 C123.888085,9.49772727 123.905064,5.68227273 123.873936,1.86545455 C123.868277,1.25045455 124.050798,1.05272727 124.691745,1.08954545 C126.109468,1.16181818 127.54417,1.08545455 128.950574,1.22590909 C130.572043,1.39227273 131.40966,2.16818182 131.647362,3.43909091 C131.968543,5.16136364 131.418149,6.43636364 130.017404,7.21090909 C129.854691,7.30227273 129.691979,7.39090909 129.440128,7.52318182 C130.417819,8.06181818 130.758809,8.94954545 131.075745,9.84545455 C131.537,11.1422727 131.995426,12.4377273 132.446777,13.7372727 C132.472245,13.7986364 132.463755,13.8736364 132.476489,14.0277273 C131.812904,14.0277273 131.169128,14.0645455 130.53667,14.0031818 C130.365468,13.9909091 130.168798,13.6963636 130.095223,13.4918182 C129.625479,12.2236364 129.205255,10.9404545 128.727021,9.67636364 C128.361979,8.72454545 127.624819,8.33727273 126.563649,8.42863636 C126.116543,8.46954545 125.989202,8.60318182 125.997691,9.01636364 C126.025989,10.41 126.02033,11.8118182 126.025989,13.2040909 C126.024574,13.455 126.024574,13.7031818 126.024574,13.9936364 Z M126.035894,6.42272727 C126.737681,6.42272727 127.364479,6.45818182 127.984202,6.41454545 C128.935011,6.34772727 129.427394,5.85409091 129.537755,4.96363636 C129.648117,4.08409091 129.230723,3.29863636 128.386032,3.10909091 C127.637553,2.94 126.843798,2.96181818 126.037309,2.89909091 C126.035894,4.15636364 126.035894,5.24727273 126.035894,6.42272727 Z"></path>
                    <path d="M69.5505106,13.9909091 C69.5505106,9.67227273 69.5505106,5.42181818 69.5505106,1.125 C71.9827128,1.125 74.3837872,1.125 76.8372128,1.125 C76.8372128,1.68954545 76.8372128,2.25136364 76.8372128,2.91545455 C75.4138298,2.91545455 74.001766,2.91272727 72.5868723,2.91545455 C71.6360638,2.91545455 71.6360638,2.91545455 71.6360638,3.81954545 C71.6360638,4.65136364 71.6360638,5.48454545 71.6360638,6.40636364 C73.0948191,6.40636364 74.5012234,6.40636364 75.9642234,6.40636364 C75.9642234,7.08136364 75.9642234,7.66909091 75.9642234,8.33454545 C74.5521596,8.33454545 73.1400957,8.33454545 71.6841702,8.33454545 C71.6841702,9.63272727 71.6841702,10.8504545 71.6841702,12.1554545 C73.4145851,12.1554545 75.1138723,12.1554545 76.8485319,12.1554545 C76.8485319,12.81 76.8485319,13.3745455 76.8485319,13.9895455 C74.4191596,13.9909091 72.0180851,13.9909091 69.5505106,13.9909091 Z"></path>
                    <path d="M109.831117,1.11 C112.271809,1.11 114.650245,1.11 117.082447,1.11 C117.082447,1.70454545 117.082447,2.27318182 117.082447,2.91545455 C115.57983,2.91545455 114.11683,2.94818182 112.652415,2.89636364 C111.99166,2.87318182 111.809138,3.09 111.851585,3.69136364 C111.898277,4.43181818 111.877053,5.17909091 111.860074,5.91954545 C111.848755,6.30954545 112.001564,6.45409091 112.410468,6.44863636 C113.468809,6.42681818 114.532809,6.46909091 115.591149,6.42681818 C116.151447,6.40636364 116.321234,6.60136364 116.270298,7.10863636 C116.232096,7.49181818 116.261809,7.88727273 116.261809,8.33045455 C114.783245,8.33045455 113.390989,8.33045455 111.930819,8.33045455 C111.930819,9.615 111.930819,10.8531818 111.930819,12.1527273 C113.641426,12.1527273 115.323734,12.1527273 117.123479,12.1527273 C117.123479,12.7186364 117.146117,13.215 117.1065,13.7154545 C117.098011,13.8286364 116.868798,14.0127273 116.741457,14.0127273 C114.453574,14.0372727 112.168521,14.0263636 109.829702,14.0263636 C109.831117,9.70363636 109.831117,5.44227273 109.831117,1.11 Z"></path>
                    <path d="M96.5438511,13.9745455 C96.5438511,9.68454545 96.5438511,5.44227273 96.5438511,1.14136364 C97.210266,1.14136364 97.8710213,1.14136364 98.6081809,1.14136364 C98.6081809,4.76045455 98.6081809,8.39318182 98.6081809,12.1281818 C100.382457,12.1281818 102.073255,12.1281818 103.827723,12.1281818 C103.827723,12.7909091 103.827723,13.3581818 103.827723,13.9745455 C101.429479,13.9745455 99.031234,13.9745455 96.5438511,13.9745455 Z"></path>
                    <path d="M83.8706489,1.11 C84.5497979,1.11 85.1723511,1.11 85.8939468,1.11 C85.8939468,1.38 85.8939468,1.62954545 85.8939468,1.87636364 C85.8939468,5.04 85.9137553,8.20909091 85.8741383,11.37 C85.8656489,12.0354545 86.0835426,12.1963636 86.7358085,12.1827273 C88.1804149,12.1363636 89.6264362,12.1636364 91.1347128,12.1636364 C91.1347128,12.7868182 91.1347128,13.3554545 91.1347128,13.9745455 C88.7308085,13.9745455 86.3311489,13.9745455 83.869234,13.9745455 C83.8706489,9.70363636 83.8706489,5.44227273 83.8706489,1.11 Z"></path>
                    <path d="M46.9504149,13.995 C46.2288191,13.995 45.6105106,13.995 44.9087234,13.995 C44.900234,13.7413636 44.8733511,13.5 44.8733511,13.2559091 C44.8705213,10.1195455 44.8705213,6.98181818 44.8705213,3.84681818 C44.8705213,2.91681818 44.8705213,2.91681818 43.8701915,2.91681818 C43.0056915,2.91681818 42.1397766,2.91681818 41.217266,2.91681818 C41.217266,2.30454545 41.217266,1.73863636 41.217266,1.12772727 C44.3512553,1.12772727 47.4710957,1.12772727 50.6234787,1.12772727 C50.6234787,1.69909091 50.6234787,2.24727273 50.6234787,2.91681818 C49.6811596,2.91681818 48.7246915,2.95772727 47.7767128,2.89772727 C47.0805851,2.85545455 46.9334362,3.11863636 46.936266,3.73227273 C46.9645638,6.87409091 46.9504149,10.0104545 46.9504149,13.1468182 C46.9504149,13.4168182 46.9504149,13.6827273 46.9504149,13.995 Z"></path>
                    <path d="M17.5248723,6.43909091 C18.9723085,6.43909091 20.3872021,6.43909091 21.838883,6.43909091 C21.838883,7.09909091 21.838883,7.67045455 21.838883,8.34 C20.6362234,8.34 19.4349787,8.37 18.2379787,8.33045455 C17.6295745,8.30863636 17.4442234,8.49272727 17.4725213,9.07227273 C17.516383,10.0663636 17.4838404,11.0659091 17.4838404,12.1527273 C19.2411383,12.1527273 20.9404255,12.1527273 22.6793298,12.1527273 C22.6793298,12.8154545 22.6793298,13.3813636 22.6793298,13.9922727 C20.2612766,13.9922727 17.8785957,13.9922727 15.4336596,13.9922727 C15.4336596,9.71318182 15.4336596,5.45318182 15.4336596,1.13181818 C17.8290745,1.13181818 20.228734,1.13181818 22.6736702,1.13181818 C22.6736702,1.71136364 22.6736702,2.28 22.6736702,2.94818182 C20.9574043,2.94818182 19.258117,2.94818182 17.5248723,2.94818182 C17.5248723,4.14818182 17.5248723,5.25 17.5248723,6.43909091 Z"></path>
                </g>
            </g>
        </g>
    </g>
</svg>