<?xml version="1.0" encoding="UTF-8"?>
<svg width="200px" height="200px" viewBox="0 0 200 200" version="1.1" xmlns="http://www.w3.org/2000/svg" xmlns:xlink="http://www.w3.org/1999/xlink">
    <!-- Generator: Sketch 46.2 (44496) - http://www.bohemiancoding.com/sketch -->
    <title>clients/ottersclub</title>
    <desc>Created with Sketch.</desc>
    <defs></defs>
    <g id="Page-1" stroke="none" stroke-width="1" fill="none" fill-rule="evenodd">
        <g id="clients/ottersclub" fill-rule="nonzero" fill="#000000">
            <g id="Group" transform="translate(32.000000, 45.000000)">
                <path d="M56.2246049,0.00187721188 C58.422263,0.563163564 60.7591309,0.825973227 62.8045864,1.74768426 C68.118687,4.12798892 70.9437172,9.5606401 69.714959,14.8731497 C68.5363163,19.9622711 65.009669,22.8456686 60.2394145,24.3230343 C59.2612339,24.621511 58.2236571,24.7472842 57.1006983,24.9725496 C57.2194907,25.2822896 57.3252901,25.5976612 57.4737805,25.8848746 C58.6524232,28.2726881 59.8811813,30.6267118 60.9967156,33.0426835 C61.2974087,33.6959532 61.4347623,34.5238037 61.3475242,35.2296353 C60.618065,40.9382367 59.6899999,46.6412063 59.9257285,52.4267733 C60.048233,55.2350823 60.3433577,58.0490229 60.5716618,61 C54.9847099,60.778489 49.4348807,60.5551008 43.8405044,60.3335898 C43.7718275,59.2297892 43.7606908,58.2254808 43.6270494,57.243699 C43.4748467,56.1793199 43.3616228,55.0661333 42.9421374,54.0937375 C42.4131403,52.8566549 42.5876165,51.9330666 43.2873776,50.8123711 C46.2200632,46.0611479 49.0747915,41.2536082 51.9016777,36.4385598 C52.3155947,35.740237 52.4807903,34.8823511 52.6886769,34.0826589 C52.8019008,33.6415141 52.7796273,33.1590706 52.7647782,32.6972765 C52.6738279,30.1667949 53.0951694,27.7808586 54.5522316,25.657732 C54.6784485,25.4737652 54.7341324,25.2447453 54.813946,25.0513925 C53.3420347,24.6684413 51.8849725,24.3981228 50.507724,23.9025389 C45.1342271,21.9596246 41.7078108,17.2478227 42.0196407,11.978489 C42.3314705,6.70164641 45.3773801,3.28887521 50.0214178,1.34971534 C51.8162957,0.606339437 53.8469021,0.433635944 55.7642846,0 C55.9164873,0.00187721188 56.06869,0.00187721188 56.2246049,0.00187721188 Z M50.1958941,12.350177 C50.2385851,14.9426066 50.765726,17.2478227 52.3230193,19.2020003 C54.4223025,21.8225881 57.4013914,21.8451146 59.5730637,19.2902293 C62.5595772,15.7779658 62.4704829,8.94679181 59.3874507,5.51900292 C57.4477947,3.36208647 54.7397008,3.28324358 52.7462169,5.37070319 C50.8548203,7.35303893 50.2682832,9.8290814 50.1958941,12.350177 Z" id="Shape"></path>
                <path d="M136.998139,57.7057896 C136.048909,61.1506232 134.999173,64.5624919 133.634888,68 C133.867542,65.9561753 132.475339,65.6576596 131.098025,65.2950456 C128.214973,64.5313584 125.335643,63.7640084 122.46748,62.9728505 C121.21673,62.6248875 120.103712,62.5424752 119.461586,63.9379899 C119.439251,63.9856059 119.335022,64.000257 119.27174,64.0167394 C119.228932,64.0277277 119.19543,64.0057511 119,63.9672921 C119.046531,63.6815961 119.061421,63.3739236 119.152621,63.0863963 C119.865474,60.7440559 120.591356,58.4072097 121.326543,56.0648694 C121.475442,55.5996978 121.650398,55.1363576 121.853273,54.6913312 C122.761555,52.7445699 123.980664,51.9057959 125.685555,52.0083534 C127.585875,52.1347189 128.503464,52.9441907 129.229345,55.2114443 C129.439665,55.0283059 129.622066,54.876301 129.789577,54.7133079 C132.119843,52.3489909 135.80881,53.2335494 136.806432,56.4091696 C136.839934,56.5465234 136.936718,56.6692261 137,56.797423 C136.998139,57.0941073 136.998139,57.407274 136.998139,57.7057896 Z M128.434598,59.9620549 C130.197187,60.4235637 131.916968,60.9455082 133.672113,61.2843143 C134.141144,61.3813776 135.056871,61.0315832 135.159239,60.7001027 C135.315583,60.2276056 135.082928,59.4071455 134.705098,59.0481942 C133.651639,58.0409329 132.272464,57.6453539 130.796505,57.8394806 C129.594147,57.9951483 128.782649,58.6690977 128.434598,59.9620549 Z M127.450005,59.6946728 C127.952539,57.98416 127.260159,57.0318402 125.264916,56.4915819 C123.392514,55.9934454 122.175266,56.5538489 121.771378,58.1782867 C123.62889,58.6764232 125.51246,59.1763911 127.450005,59.6946728 Z" id="Shape"></path>
                <path d="M0.00186911197,65.1799661 C0.519613128,62.3364532 1.98686603,60.2612486 4.56810966,59.0392909 C10.7156189,56.118561 15.6668965,59.6666783 16.8406989,65.7803276 C17.8743178,71.191303 13.704329,74.3977355 9.35677453,74.9363235 C4.82604711,75.4980765 1.11399074,72.2935745 0.229900773,67.2783358 C0.175696525,66.9694681 0.0766335908,66.672183 0,66.3691066 C0.00186911197,65.9733699 0.00186911197,65.5776332 0.00186911197,65.1799661 Z M5.4951892,70.9210438 C7.28392935,70.8225923 9.40163322,69.9809279 11.4127977,68.8902389 C12.5548251,68.2725036 13.6987216,67.5408733 14.6145865,66.6181312 C16.0313734,65.1761053 15.3528857,62.8769716 13.4239622,62.2920535 C12.8464066,62.1183154 12.1903483,62.0353072 11.6090545,62.1260371 C8.5250197,62.6202253 5.66527839,63.7282881 3.15879923,65.6760848 C1.85976641,66.6953481 1.46164556,67.8902799 1.89527954,69.0794204 C2.33078263,70.2743522 3.40739112,70.9210438 5.4951892,70.9210438 Z" id="Shape"></path>
                <path d="M46.1589891,103.21852 C45.2044409,104.456704 44.2498927,105.700465 43.2554131,107 C38.9922714,105.15202 34.7880758,103.324491 30.5762743,101.502538 C30.6143041,101.387272 30.6504324,101.264569 30.6846593,101.151162 C30.8843158,101.151162 31.0972827,101.11212 31.2779243,101.158598 C32.2952217,101.439328 32.9892658,100.981981 33.4094952,100.165821 C34.9763234,97.1168395 36.5070232,94.0659993 37.9996933,90.9947086 C38.2145617,90.5652485 38.1784334,90.0130854 38.2525915,89.5166965 C38.1404036,89.4720772 38.0301172,89.4218806 37.9141262,89.3661065 C37.157333,90.1785484 36.4024413,90.9872721 35.455499,91.993064 C35.6418451,90.7864855 36.0867938,89.7844119 35.8453045,88.9831248 C35.5886033,88.1242045 34.6796909,87.4530568 33.9704349,86.5978548 C31.7019567,89.1857705 29.6179231,91.5673221 27.5300865,93.9414373 C27.3779672,94.1143368 27.225848,94.2909546 27.0737288,94.4694315 C25.4403484,96.3676082 25.4403484,96.3676082 26.0012881,98.6859492 C23.6643563,96.9402217 21.3369319,95.1851984 19,93.4338935 C19.0665522,93.3242045 19.1331043,93.2163747 19.1996565,93.110404 C19.3707907,93.1364319 19.5628412,93.1215588 19.709256,93.1996425 C20.7075385,93.7573829 21.5289824,93.44133 22.2078145,92.6679299 C24.7672208,89.7695388 27.3038091,86.8599928 30.0590689,83.703182 C28.8231,83.1268502 27.7164326,82.6100107 26.6268785,82.1043261 C26.8873827,81.8737934 27.3323315,81.4870933 27.8818622,81 C31.1277066,83.7701108 35.0162547,85.8467644 38.1061768,88.9942796 C38.0548365,88.8158026 37.9939888,88.6447622 37.9065203,88.3528781 C41.9433847,90.0911691 45.8984849,91.8015731 50,93.5696103 C49.3306753,94.8245263 48.6993805,96.0087951 48.0680856,97.1949231 C47.9121634,97.2060779 47.7600442,97.2246693 47.6079249,97.2302467 C48.8077654,93.2814444 45.6493897,92.8966035 43.2135803,91.6956024 C42.3484021,93.413443 41.5117463,95.0792277 40.6427651,96.7859135 C42.7382077,98.2453343 43.7174753,96.2634966 45.0180948,95.3488023 C45.084647,95.4361816 45.1588051,95.5309975 45.2291603,95.620236 C44.1491137,97.7470862 43.0785745,99.8795138 42.0023309,102.004505 C41.8844384,101.969181 41.7608416,101.935717 41.6353432,101.894816 C41.7018954,101.110261 41.9738085,100.264355 41.7722505,99.5485878 C41.5859044,98.8811584 40.8956634,98.3401502 40.2605655,97.5221309 C39.3212292,99.4240257 38.5188002,100.952235 37.8323621,102.526922 C37.7106667,102.803933 37.9692695,103.437898 38.2525915,103.64798 C40.5590996,105.360243 43.0177268,105.209653 45.1835245,103.317054 C45.390787,103.136718 45.6741091,103.027029 45.9155984,102.883876 C45.995461,102.991705 46.0772251,103.101394 46.1589891,103.21852 Z" id="Shape"></path>
                <path d="M63.632998,112 C62.6055128,111.823477 61.5798856,111.506887 60.5486843,111.491537 C58.512294,111.462756 57.4922408,110.461179 57.0983405,108.423489 C56.8326436,107.045842 56.2603733,105.727676 55.8200225,104.380728 C55.7011092,104.029601 55.5617577,103.688067 55.4316963,103.342696 C55.318357,103.342696 55.2143079,103.338858 55.1084007,103.331183 C54.9671912,103.820459 54.8222656,104.307816 54.7163584,104.802848 C54.5064022,105.767969 54.309452,106.735008 54.1496622,107.707804 C53.9898725,108.713218 54.2258411,109.50949 55.2923448,109.84143 C55.4744307,109.902829 55.6193563,110.08319 55.7791461,110.211745 C55.7457017,110.32495 55.7066833,110.424724 55.680671,110.528335 C52.7840173,109.981497 49.8966537,109.438497 47,108.882066 C47.0111481,108.774617 47.0111481,108.667168 47.0148642,108.553963 C47.2006662,108.490645 47.3846102,108.369765 47.5704122,108.369765 C48.5904654,108.369765 49.1311493,107.771122 49.3262415,106.830945 C50.019283,103.432876 50.6937444,100.029051 51.3774959,96.6233073 C51.6431928,95.2974657 50.7569171,94.7448718 49.7145677,94.3054829 C49.7535861,94.2114652 49.7981786,94.1097725 49.8371971,94.0176736 C50.0954619,94.0176736 50.3630168,93.9754615 50.6101335,94.021511 C53.3581456,94.5376491 56.1117317,95.0134938 58.8411636,95.6102185 C59.9113833,95.8519783 60.9741709,96.2568301 61.9514896,96.7652932 C63.3078445,97.4637105 64.1402376,98.6283789 63.9804478,100.293836 C63.8057939,101.986154 62.7857408,103.166173 61.159973,103.645855 C60.8664058,103.72836 60.5728385,103.812784 60.1009014,103.945176 C61.4089477,106.527785 61.3940835,109.653395 63.632998,112 Z M55.22174,102.300826 C57.510821,102.753646 58.6832319,101.78085 58.9805151,99.3747644 C59.2313479,97.3562617 58.4101029,96.2779361 56.4331692,96.1436251 C56.0411269,98.1698027 55.6286464,100.201737 55.22174,102.300826 Z" id="Shape"></path>
                <path d="M65.4106484,73.0519191 C62.8051079,73.0519191 60.184452,72.9073913 57.5978059,73.0889324 C53.9266203,73.3409749 50.2724396,73.8538726 46.6107011,74.2222424 C43.6480561,74.5130607 40.6797428,74.803879 37.7095401,74.9959953 C37.0595721,75.0382961 36.3264686,74.7386652 35.7388522,74.4196463 C35.3741899,74.2222424 35.0038592,73.7058196 35.0000804,73.3233495 C34.9925226,73.0431065 35.5196769,72.5760347 35.8900075,72.4931955 C39.0491544,71.7599809 42.1969647,70.9263019 45.4109054,70.4627552 C52.2714691,69.4704479 59.1395906,70.3182273 66.0039331,70.7482858 C69.654335,70.9756529 73.2952896,71.2294579 76.9381336,71.513226 C77.3065748,71.5414266 77.6466744,71.7917066 78,71.9327094 C77.7524831,72.2728786 77.5824333,72.7752011 77.2328866,72.9109163 C76.6603857,73.1488586 75.9707394,73.2510856 75.3245502,73.2581357 C72.0218057,73.2880988 68.7077245,73.272236 65.4087589,73.272236 C65.4106484,73.1982095 65.4106484,73.1294707 65.4106484,73.0519191 Z" id="Shape"></path>
                <path d="M77.2869721,95 C77.4246553,96.6417445 77.5660597,98.200267 77.6981612,99.7625723 C77.5995503,99.7947263 77.5083816,99.8212061 77.4190736,99.8552514 C77.2813903,99.6812417 77.1064954,99.5129061 76.9929997,99.3161994 C75.8878125,97.173231 73.896987,96.1064753 71.5898622,96.4582777 C70.6372429,96.6001335 69.7516047,96.9727414 69.5357769,98.0357143 C69.2957615,99.1724522 70.1962844,99.6339564 71.0037781,99.9668447 C72.6783042,100.634513 74.4123689,101.133845 76.0701498,101.82421 C78.2433125,102.715065 79.3075669,104.632955 78.9224259,106.957499 C78.5596119,109.142078 77.0692837,110.407432 75.0989246,110.81976 C73.5937117,111.129951 71.9954696,110.957833 70.4511845,110.944593 C69.3032038,110.929462 67.9468377,109.76057 67.2677243,112 C67.161671,111.877058 67.0723629,111.754117 66.9811943,111.631175 C66.8062994,109.86838 66.6388468,108.103694 66.4658124,106.333333 C66.5848898,106.287939 66.6983855,106.242546 66.8007176,106.199043 C66.996079,106.50356 67.2230703,106.791055 67.3681959,107.118269 C68.4938495,109.505229 71.3945008,110.827325 73.8467512,110.063195 C74.743553,109.783267 75.4859262,109.293391 75.6310518,108.296618 C75.7761774,107.277147 75.0319436,106.73053 74.2616616,106.357922 C73.26997,105.869938 72.2187398,105.49733 71.1916971,105.083111 C70.2279143,104.702937 69.2287804,104.41166 68.3208152,103.935024 C65.5522654,102.484312 65.2024755,99.0135737 67.5858843,96.9595016 C69.3329732,95.4520472 71.4019432,95.3083 73.5565001,95.5844459 C74.0030403,95.6430797 74.4439989,95.7887183 74.8905392,95.9040943 C75.7147781,96.1159324 76.5836711,96.4620605 76.7846142,95.1229417 C76.790196,95.0775478 76.9929997,95.0680908 77.2869721,95 Z" id="Shape"></path>
                <path d="M110,77.4420577 C111.677682,74.9963654 113.284422,72.6561227 114.906501,70.2862802 C115.134665,70.4860796 115.243954,70.5452794 115.236285,70.5804293 C114.962104,72.4415234 115.034963,72.582123 116.733736,73.5552199 C119.22054,74.9630655 121.668997,76.4116109 124.190313,77.7565567 C126.230374,78.8369533 127.770007,78.2505051 128.699922,76.2266115 C129.213772,75.125865 129.033541,74.1009682 128.224419,73.2592208 C127.591693,72.5950729 126.83434,72.0215747 126.048226,71.5424262 C124.314941,70.4842296 122.5203,69.5185326 120.764007,68.4991858 C119.431448,67.7240383 118.11998,66.7342914 116.555422,68.3789362 C117.239916,66.7768413 118.11998,65.4392955 119.364341,64 C119.423779,64.4384486 119.50239,64.5938481 119.450622,64.6992978 C118.869665,65.8777441 119.494721,66.5751919 120.468735,67.1375901 C122.504962,68.3049364 124.543105,69.4593328 126.569745,70.6285291 C127.014571,70.8856783 127.457479,71.1372775 127.865874,71.4277266 C129.831159,72.8115222 130.51757,74.4450671 129.595325,76.6021603 C129.002863,78.0137059 128.097874,79.3790016 127.029909,80.500098 C125.375236,82.2316926 123.139605,82.4407419 120.842619,81.2474957 C118.595483,80.0727494 116.405869,78.7796034 114.198998,77.5105074 C112.996819,76.8167596 111.829153,76.1600117 110.619304,77.4920075 C110.569453,77.5586073 110.337454,77.4753576 110,77.4420577 Z" id="Shape"></path>
                <path d="M105.957887,81.2639577 C105.889546,81.4268252 105.867381,81.6159013 105.763945,81.7319678 C105.086073,82.5200969 105.183967,83.2820174 105.835981,84.0083691 C108.137421,86.5674485 110.457333,89.1246559 112.77355,91.6743751 C113.469893,92.4456558 114.197636,92.4007268 114.967861,91.7305363 C116.425194,90.4669089 116.656077,88.4900341 115.581086,86.3428037 C115.392686,85.9777558 115.267085,85.5977315 115.108238,85.2139632 C115.230144,85.1353375 115.357591,85.0585839 115.486886,84.9780861 C116.633912,86.5000551 117.777244,88.020152 119,89.6432111 C115.725157,92.3801343 112.485408,95.0758727 108.992612,98 C109.068341,97.4589803 109.035094,97.215615 109.144071,97.0939324 C109.93092,96.2140733 109.692649,95.4184561 108.992612,94.6415593 C106.759512,92.1742099 104.522719,89.6993723 102.282231,87.2282788 C101.567418,86.4364057 100.756557,86.1050545 99.7572959,86.7359322 C99.6667898,86.7939654 99.5411895,86.820174 99.4359069,86.8239181 C99.3823421,86.8239181 99.3066125,86.7640128 99,86.5805528 C101.28297,84.6766876 103.492058,82.845832 105.680827,81 C105.762098,81.0954741 105.859993,81.18346 105.957887,81.2639577 Z" id="Shape"></path>
                <path d="M97.5309039,88.0443351 C98.2039364,89.4390446 98.8863952,90.8485324 99.5556572,92.2469364 C99.4783621,92.3226756 99.3859851,92.3984148 99.3086901,92.4778486 C99.0692639,92.3226756 98.8336083,92.1619608 98.6017232,92.0067878 C97.8683628,91.5227959 97.2066418,90.8651581 96.4035273,90.5862162 C93.6793482,89.6625675 91.0946771,91.7352351 91.4622999,94.524654 C91.7865621,97.0406729 92.8913157,99.2685134 94.5559871,101.174924 C96.8654124,103.816559 100.115575,103.315942 101.663361,100.158911 C101.833033,99.8171607 101.895246,99.4199918 102.108279,99.1133404 C102.293033,98.8399404 102.617295,98.6625999 103,98.551762 C102.977377,100.288221 102.249672,101.618276 101.075165,102.730348 C98.2472971,105.397846 93.6812334,105.759916 90.5781199,103.572716 C87.4335311,101.344876 86.1082038,97.1293431 87.6333671,93.9889378 C89.0001698,91.1847405 91.5000048,89.9747608 94.4900036,89.4981581 C94.7181182,89.4630594 94.9500034,89.4501284 95.178118,89.43535 C96.1245111,89.3910148 97.0445107,89.3208176 97.1595106,88 C97.2839368,88.0129311 97.4064777,88.0295568 97.5309039,88.0443351 Z" id="Shape"></path>
                <path d="M13.5079079,88 C11.6725726,85.7960719 9.83723724,83.5959047 8,81.3919766 C8.04754755,81.3092353 8.096997,81.2358964 8.14454454,81.156916 C8.35565566,81.2170915 8.62002002,81.2170915 8.77597598,81.3449645 C9.57097097,81.9918512 10.3697698,81.9354367 11.1495495,81.3750522 C14.3960961,79.0244463 17.6312312,76.6625575 20.873974,74.2987881 C19.6738739,71.9500627 17.8803804,71.664229 15.5923924,72.8432929 C15.5733734,72.6966151 15.5581582,72.5367739 15.5448448,72.3844547 C16.5927928,71.6115754 17.6445445,70.8349352 18.7837838,70 C21.5472472,73.3096532 24.2593594,76.5553698 27,79.8368157 C26.5321321,80.3802758 26.0870871,80.8992896 25.8151151,81.2058086 C25.3472472,80.1376933 24.8641642,79.0394902 24.2954955,77.7720435 C23.4073073,78.4076473 22.7682683,78.8345173 22.1558559,79.2952361 C19.8868869,80.9481822 17.6122122,82.6011283 15.3584585,84.2691183 C14.1697698,85.1416632 12.6501502,85.8788132 14.0613614,87.8909319 C13.874975,87.9266611 13.6942943,87.9623903 13.5079079,88 Z" id="Shape"></path>
                <path d="M73,69.6412789 C72.1681011,69.8072167 71.6185551,70.0290317 71.1050138,69.99686 C68.615002,69.8376951 66.1306751,69.5921748 63.6368733,69.4262369 C62.7481248,69.3635869 61.8499013,69.4143842 60.8095539,69.4143842 C61.0312673,69.1214531 61.205606,68.8945584 61.4311094,68.5999341 C61.2491907,68.5406705 61.0938018,68.4543151 60.927043,68.4475421 C58.2058429,68.2748313 55.4751678,68.1647705 52.7615476,67.9344893 C51.8140545,67.8582934 50.8703514,67.5789082 49.9778129,67.2656581 C49.5855507,67.1234256 49.3221477,66.6764093 49,66.3665457 C49.0511646,66.2734174 49.1004343,66.1785957 49.1515989,66.0803876 C51.0067904,66.0803876 52.8562969,66.0837741 54.7076984,66.0770011 C58.2645874,66.0634551 61.8176865,66.1091727 65.3669957,66.0041916 C67.4647454,65.9432348 69.1759179,66.5477228 70.6862219,67.7787109 C71.3418871,68.3188556 72.0146072,68.8471476 73,69.6412789 Z" id="Shape"></path>
                <path d="M84,74.0995102 C82.7317423,75.2175524 81.268796,75.553708 79.7743286,75.7152855 C77.0764998,75.9975819 74.3675459,76.1275868 71.6919672,76.4934577 C69.2759734,76.8314705 66.915605,77.4536369 64.5033196,77.8566521 C63.4631258,78.0312301 62.3784317,77.9847998 61.3085711,77.9996575 C61.015611,78.0033719 60.6503379,77.9792281 60.4389617,77.8102218 C58.243615,76.1461589 55.6180992,75.6001383 53.0370836,74.9501137 C53.0259585,74.8442526 53.0111251,74.7365342 53,74.6306731 C54.0105269,74.4560951 55.0284706,74.1199395 56.0315808,74.1496549 C58.4327412,74.2128002 60.8264848,74.4635239 63.2202285,74.6251015 C69.6375381,75.0522605 76.0251809,74.8405382 82.3998445,74.0215072 C82.9208685,73.9527904 83.4715593,74.0679376 84,74.0995102 Z" id="Shape"></path>
                <path d="M43.0726376,66 C42.6437809,63.5239831 44.1534333,61.8263494 46.5573384,62.0141727 C50.6516695,62.3302215 54.7421543,62.6968382 58.8287929,63.1140226 C59.6845831,63.2025163 60.7403783,63.3162939 61,64.6057731 C54.9863911,65.0753314 49.0593228,65.5394717 43.0726376,66 Z" id="Shape"></path>
                <path d="M75,76.5872947 C77.9480769,76.1840411 80.7884615,75.839885 83.6096154,75.3671049 C84.4653846,75.2193611 85.3076923,74.7848205 86.0653846,74.3537563 C86.8346154,73.9140013 87.5596154,73.8618564 88.2673077,74.3242075 C89.6115385,75.2158847 91.1134615,75.6295673 92.7711538,75.7773111 C93.2038462,75.8155507 93.5865385,76.3422138 94,76.6429159 C93.5942308,77.0148826 93.2480769,77.4946154 92.7711538,77.7327436 C92.3961538,77.9187269 91.825,77.9013453 91.3807692,77.8161754 C88.4923077,77.2599635 85.6461538,77.779674 82.775,77.9656573 C80.9903846,78.0751615 79.1653846,77.9100361 77.3846154,77.65105 C76.5173077,77.5311168 75.7403846,76.933189 75,76.5872947 Z" id="Shape"></path>
                <path d="M102,79.624136 C100.823349,79.8116772 99.7314019,80.1533365 98.630248,80.1254839 C95.8902529,80.0679217 93.1999754,80.2591766 90.5354775,80.9777753 C90.1432605,81.0799017 89.5687454,80.8106593 89.1691628,80.5655559 C88.4970538,80.1681913 87.9059661,79.6557023 87,78.9760974 C88.1895409,78.742135 89.2078321,78.3856209 90.2408544,78.3577683 C92.7801375,78.2983493 95.2623373,78.3800504 97.6892954,77.2845124 C99.4109993,76.5046379 100.7055,77.3420746 102,79.624136 Z" id="Shape"></path>
                <path d="M84.8858488,83.9779912 C83.7119934,83.9779912 82.5343331,84.0380203 81.3737954,83.9598006 C79.8879267,83.857933 78.4229857,83.6669314 76.9561422,83.4468247 C76.5927608,83.3940719 75.9706365,83.0102496 76.0010768,82.8738198 C76.1095205,82.3062721 76.3359205,81.3676355 76.6669591,81.3057874 C79.4161016,80.7873544 82.1252911,80.7364206 84.3988034,82.7101042 C84.6328135,82.9283917 84.8002353,83.2321753 85,83.5013966 C84.9638521,83.656017 84.9200941,83.8197327 84.8858488,83.9779912 Z" id="Shape"></path>
                <path d="M70,79.0623201 C71.2382119,78.6941195 72.4047765,78.3108561 73.602572,78.0112747 C73.8395591,77.94935 74.273117,78.153534 74.4384568,78.3543707 C75.0061237,79.0388892 75.4892835,79.7786377 76,80.491608 C75.1236987,80.6623192 74.2602572,80.8849132 73.369259,80.9853316 C72.7336191,81.0606453 72.2578077,80.8497668 71.8224127,80.2639931 C71.4164115,79.7200603 70.5878751,79.4305207 70,79.0623201 Z" id="Shape"></path>
            </g>
        </g>
    </g>
</svg>