<?xml version="1.0" encoding="UTF-8"?>
<svg width="200px" height="200px" viewBox="0 0 200 200" version="1.1" xmlns="http://www.w3.org/2000/svg" xmlns:xlink="http://www.w3.org/1999/xlink">
    <!-- Generator: Sketch 46.2 (44496) - http://www.bohemiancoding.com/sketch -->
    <title>clients/wri</title>
    <desc>Created with Sketch.</desc>
    <defs></defs>
    <g id="Page-1" stroke="none" stroke-width="1" fill="none" fill-rule="evenodd">
        <g id="clients/wri" fill-rule="nonzero">
            <g id="Group" transform="translate(19.000000, 72.000000)">
                <g transform="translate(70.000000, 4.000000)" id="Shape" fill="#000000">
                    <path d="M4.53947368,9.673825 C4.45715789,9.482725 4.36031579,9.29775 4.29615789,9.102975 C3.49236842,6.6836 2.69584211,4.26545 1.89689474,1.84975 C1.72136842,1.316875 1.63178947,0.714175 0.911526316,0.584325 C1.86421053,0.584325 2.81689474,0.584325 3.76957895,0.584325 C3.18368421,0.7791 3.29021053,1.182125 3.41973684,1.61945 C3.956,3.445925 4.48136842,5.278525 5.06242105,7.292425 C5.93763158,4.935525 6.74384211,2.77095 7.55005263,0.6027 C7.62994737,0.6027 7.71105263,0.60025 7.78610526,0.5978 C8.66615789,2.732975 9.54742105,4.8657 10.4843684,7.142975 C10.7494737,6.2524 10.9734211,5.49045 11.201,4.72605 C11.4939474,3.7387 11.7893158,2.745225 12.0834737,1.75665 C12.2372105,1.2348 12.3764211,0.714175 11.5629474,0.5929 C12.3594737,0.5929 13.156,0.5929 13.9561579,0.5929 C13.1874737,0.76195 13.0857895,1.444275 12.8872632,2.0335 C12.0931579,4.3855 11.3123684,6.7424 10.5255263,9.0944 C10.4589474,9.294075 10.3742105,9.485175 10.2979474,9.681175 C10.2241053,9.69465 10.1538947,9.710575 10.0776316,9.71915 C9.19152632,7.579075 8.29936842,5.43655 7.36847368,3.183775 C6.47994737,5.43165 5.63015789,7.57785 4.784,9.71915 C4.70168421,9.70445 4.61936842,9.688525 4.53947368,9.673825 Z"></path>
                    <path d="M48.8762105,0.483875 C50.8651053,0.56105 52.8697368,0.49735 54.8368421,0.746025 C57.0024737,1.02655 58.2650526,2.60925 58.3388947,4.707675 C58.4127368,6.954325 57.1852632,8.7955 55.1188947,9.333275 C54.2461053,9.555 53.3152105,9.5893 52.4097368,9.597875 C51.2815263,9.615025 50.1545263,9.5109 48.9488421,9.43005 C49.9063684,9.362675 49.8446316,8.6828 49.8494737,8.051925 C49.8615789,6.06865 49.864,4.08415 49.8664211,2.105775 C49.8664211,0.9555 49.864,0.9555 48.8616842,0.665175 C48.8653158,0.60025 48.8725789,0.542675 48.8762105,0.483875 Z M56.7712632,5.388775 C56.8208947,2.21725 54.3574737,0.883225 51.7972105,1.138025 C51.4074211,1.177225 51.3432632,1.38425 51.3456842,1.706425 C51.3650526,3.796275 51.3904737,5.883675 51.3880526,7.9723 C51.3832105,8.605625 51.7003684,8.86655 52.2656842,8.9964 C54.8888947,9.590525 56.7567368,8.1046 56.7712632,5.388775 Z"></path>
                    <path d="M39.9376842,24.17905 C39.9401053,27.06025 37.9451579,29.068025 35.0786316,29.068025 C32.3198421,29.068025 30.3684737,27.1558 30.3575789,24.43385 C30.3454737,21.693525 32.3125789,19.780075 35.1827368,19.74945 C38.0746842,19.721275 39.9328421,21.4473 39.9376842,24.17905 Z M31.9336842,23.9806 C31.9591053,25.46285 32.4469474,26.7736 33.3052105,27.587 C34.684,28.89775 36.8520526,28.73605 37.7333158,27.255025 C38.6508947,25.711525 38.4898947,22.9565 37.3762105,21.558775 C36.5482105,20.519975 35.4587368,20.13655 34.1792105,20.39625 C32.9941053,20.635125 32.3888421,21.490175 32.1225263,22.61105 C32.0147895,23.058175 31.993,23.52245 31.9336842,23.9806 Z"></path>
                    <path d="M25.8265789,4.805675 C25.8338421,7.679525 23.8292105,9.70445 20.9723684,9.702 C18.2111579,9.69955 16.2694737,7.7959 16.2464737,5.0715 C16.2246842,2.3422 18.2256842,0.3969 21.0667895,0.37975 C23.9805263,0.363825 25.8205263,2.0678 25.8265789,4.805675 Z M24.2286842,5.491675 C24.1863158,4.171125 23.9708421,3.087 23.2469474,2.164575 C21.9746842,0.545125 19.5161053,0.525525 18.4762632,2.118025 C17.3601579,3.828125 17.7862632,6.991075 19.3151579,8.32265 C21.0958421,9.8735 23.4781579,9.117675 24.0313684,6.817125 C24.1512105,6.32835 24.1838947,5.819975 24.2286842,5.491675 Z"></path>
                    <path d="M8.66252632,48.028575 C9.87305263,48.178025 9.73868421,47.3928 9.752,46.742325 C9.79436842,44.407475 9.82947368,42.072625 9.86578947,39.73655 C9.86821053,39.549125 9.88757895,39.35435 10.0594737,39.0432 C12.2674737,41.325375 14.4730526,43.606325 16.6398947,45.845625 C16.6398947,43.932175 16.652,42.0273 16.6302105,40.124875 C16.6229474,39.46215 16.0370526,39.485425 15.5952105,39.3078 C16.5503158,39.3078 17.503,39.3078 18.4556842,39.3078 C17.4461053,39.4597 17.6071053,40.252275 17.595,40.952975 C17.5526316,43.24005 17.5102632,45.529575 17.4654737,47.817875 C17.4606316,47.991825 17.4279474,48.153525 17.388,48.550425 C15.0093158,46.28785 12.8364211,44.0706 10.6974211,41.72105 C10.6502105,41.83865 10.5933158,41.903575 10.5933158,41.9734 C10.6308421,43.57815 10.6356842,45.186575 10.7349474,46.7901 C10.8087895,47.98325 10.7966842,47.8583 11.7965789,48.222125 C11.3075263,48.222125 10.8172632,48.222125 10.3306316,48.222125 C9.82947368,48.222125 9.33073684,48.222125 8.83442105,48.222125 C8.77389474,48.153525 8.71942105,48.0935 8.66252632,48.028575 Z"></path>
                    <path d="M57.6864211,25.238675 C57.6864211,25.951625 57.6743158,26.632725 57.6888421,27.311375 C57.7142632,28.489825 57.7408947,28.514325 58.7904211,28.83895 C57.6622105,28.83895 56.5376316,28.83895 55.407,28.83895 C56.2301579,28.756875 56.2483158,28.156625 56.2507368,27.54535 C56.2604211,25.4751 56.2676842,23.40485 56.2676842,21.33705 C56.2701053,20.2762 56.2555789,20.26395 55.0874211,20.01405 C55.3028947,19.96505 55.3827895,19.931975 55.4651053,19.931975 C56.6804737,19.934425 57.9006842,19.922175 59.1184737,19.95035 C60.0977895,19.976075 60.996,20.21985 61.4208947,21.24885 C61.8506316,22.28765 61.5007895,23.1868 60.8059474,23.976925 C60.5783684,24.236625 60.2878421,24.4363 59.9646316,24.71315 C61.4426842,26.14885 62.1496316,28.220325 64.2607895,28.8512 C63.1846316,28.862225 62.0285789,29.190525 61.1654737,28.168875 C60.5904737,27.482875 60.007,26.7834 59.5578947,26.012875 C59.1184737,25.253375 58.535,25.091675 57.6864211,25.238675 Z M57.6864211,22.528975 C57.6864211,23.0594 57.6646316,23.584925 57.6985263,24.11045 C57.7082105,24.26725 57.8401579,24.52205 57.9539474,24.5441 C59.1547895,24.790325 59.8363158,24.62985 60.1195789,23.352175 C60.2285263,22.859725 60.1837368,22.288875 60.0602632,21.7952 C59.8351053,20.8838 59.0603684,20.409725 58.1379474,20.46975 C57.8135263,20.490575 57.6670526,20.59715 57.6791579,20.943825 C57.6985263,21.46935 57.6864211,21.999775 57.6864211,22.528975 Z"></path>
                    <path d="M5.23431579,28.84875 C4.232,28.84875 3.10136842,28.84875 1.97194737,28.84875 C2.73821053,28.754425 2.83989474,28.24605 2.83989474,27.612725 C2.83989474,25.43835 2.84957895,23.25295 2.87984211,21.0749 C2.88952632,20.34235 2.51305263,20.059375 1.86057895,20.05325 C3.40157895,20.05325 4.96073684,19.912375 6.48236842,20.091225 C7.94831579,20.2615 8.61289474,21.742525 7.96042105,23.0937 C7.67231579,23.692725 7.18447368,24.190075 6.71236842,24.836875 C8.00521053,26.150075 8.75089474,28.161525 10.8075789,28.788725 C10.0340526,29.1452 8.43857895,28.928375 7.86115789,28.2583 C7.16631579,27.446125 6.51384211,26.586175 5.93157895,25.684575 C5.54421053,25.081875 5.00673684,25.23255 4.49347368,25.201925 C4.42689474,25.199475 4.28042105,25.41875 4.28042105,25.5339 C4.29252632,26.3914 4.255,27.2587 4.40147368,28.095375 C4.45594737,28.404075 4.96921053,28.627025 5.23431579,28.84875 Z M4.26952632,22.5057 C4.26952632,23.033675 4.25015789,23.56165 4.28163158,24.092075 C4.29131579,24.2501 4.40026316,24.488975 4.52494737,24.5441 C5.43526316,24.954475 6.44,24.533075 6.64821053,23.5641 C6.77773684,22.9712 6.74989474,22.293775 6.61552632,21.698425 C6.43394737,20.902175 5.75484211,20.512625 4.95347368,20.46485 C4.40510526,20.43545 4.21384211,20.640025 4.26105263,21.18515 C4.29978947,21.622475 4.26710526,22.0647 4.26952632,22.5057 Z"></path>
                    <path d="M31.5911053,5.8702 C31.5911053,6.760775 31.5911053,7.65625 31.5911053,8.55295 C31.5911053,9.27325 32.1661053,9.30265 32.6503158,9.485175 C32.5728421,9.494975 32.499,9.517025 32.4227368,9.517025 C31.3828947,9.521925 30.337,9.521925 29.2196842,9.457 C30.1917368,9.370025 30.1203158,8.676675 30.1227368,8.044575 C30.1372632,6.06375 30.1348421,4.080475 30.1372632,2.095975 C30.1372632,0.966525 30.1348421,0.966525 29.1349474,0.657825 C29.1567368,0.625975 29.1797368,0.56595 29.2039474,0.56595 C30.7219474,0.59535 32.2544737,0.523075 33.7555263,0.699475 C35.1766842,0.8673 35.8763684,2.323825 35.259,3.66275 C34.9733158,4.28505 34.4745789,4.805675 34.0412105,5.4145 C34.7723684,6.9041 36.708,8.8396 38.1194737,9.43985 C36.3133684,9.8147 35.4998947,9.524375 34.4552105,8.1144 C34.0884211,7.6244 33.6816842,7.147875 33.3935789,6.608875 C32.9844211,5.8408 32.3948947,5.668075 31.5911053,5.8702 Z M34.1138421,3.2977 C34.0496842,1.8914 33.2979474,1.0633 32.0874211,1.103725 C31.7303158,1.115975 31.5342105,1.19805 31.5438947,1.6317 C31.5717368,2.664375 31.5463158,3.698275 31.5632632,4.73095 C31.5656842,4.87795 31.6431579,5.084975 31.7521053,5.1499 C32.4711579,5.5762 33.5376316,5.219725 33.8511579,4.4394 C33.994,4.080475 34.0291053,3.67745 34.1138421,3.2977 Z"></path>
                    <path d="M57.8183684,39.249 C58.0265789,39.249 58.2299474,39.249 58.4381579,39.249 C59.3605789,39.249 60.2842105,39.249 61.2066316,39.249 C60.3362632,39.4303 60.3580526,40.093025 60.3628947,40.734925 C60.3774211,42.315175 60.3580526,43.900325 60.4379474,45.4867 C60.5117895,46.830525 61.3107368,47.65495 62.4619474,47.768875 C63.8165263,47.8975 64.8878421,47.13065 64.9628947,45.766 C65.0742632,43.92115 65.0076842,42.070175 65.0403684,40.222875 C65.0524737,39.507475 64.5246842,39.482975 64.0586316,39.30045 C65.0137368,39.30045 65.9736842,39.30045 66.9312105,39.30045 C65.7896842,39.517275 66.0971579,40.44215 66.0681053,41.1894 C66.0160526,42.6839 66.0935263,44.191875 65.9071053,45.67045 C65.6686316,47.52755 64.3891053,48.412 62.3493684,48.3924 C60.3604737,48.374025 59.2116842,47.5104 58.9853158,45.6337 C58.8218947,44.31315 58.8908947,42.954625 58.8594211,41.61325 C58.8521579,41.32905 58.8594211,41.0424 58.857,40.756975 C58.857,39.64835 58.8521579,39.64345 57.8183684,39.249 Z"></path>
                    <path d="M42.7739474,19.9626 C43.9941579,19.9626 45.1102632,19.9626 46.2239474,19.9626 C45.2942632,20.103475 45.3935263,20.818875 45.4080526,21.468125 C45.4334737,23.119425 45.3935263,24.778075 45.54,26.41345 C45.6610526,27.75605 46.5277895,28.4298 47.7722105,28.4298 C49.0444737,28.4298 49.8882105,27.791575 49.9874737,26.422025 C50.1218421,24.540425 50.0988421,22.641675 50.0443684,20.7515 C50.0346842,20.4624 49.4984211,20.18555 49.2732632,19.968725 C50.0516316,19.968725 51.0091579,19.968725 51.9691053,19.968725 C50.9498421,20.09735 51.1411053,20.885025 51.1302105,21.55755 C51.1084211,22.920975 51.1302105,24.290525 51.0660526,25.6515 C50.9316842,28.4396 48.9331053,29.3314 46.7154211,29.02025 C45.0158421,28.778925 44.0667895,27.757275 43.9723684,26.017775 C43.8876316,24.520825 43.9154737,23.026325 43.9009474,21.529375 C43.8876316,20.35215 43.8924737,20.35215 42.7739474,19.9626 Z"></path>
                    <path d="M73.9195789,26.77605 C73.8227368,27.326075 73.7658421,27.8908 73.6024211,28.42 C73.5431053,28.616 73.2525789,28.8218 73.0346842,28.86835 C71.4767368,29.197875 69.9187895,29.197875 68.4237895,28.56455 C66.4821053,27.747475 65.4192632,25.84015 65.7170526,23.7944 C66.0451053,21.55755 67.5401053,19.992 69.7057368,19.838875 C71.0506316,19.748225 72.4148947,19.9038 73.8312105,19.943 C73.7864211,20.875225 73.7561579,21.6139 73.7174211,22.352575 C73.6605263,22.384425 73.5987895,22.4126 73.5406842,22.442 C73.4716842,20.953625 72.4911579,20.51875 71.3205789,20.377875 C70.1378947,20.233325 69.0084737,20.350925 68.1647368,21.357875 C66.3731579,23.49305 67.5171053,27.44 70.1560526,28.23625 C71.8084211,28.73605 72.9475263,28.26565 73.9195789,26.77605 Z"></path>
                    <path d="M77.1589474,19.922175 C78.9771579,19.922175 80.7953684,19.922175 82.6862105,19.922175 C82.6511053,20.412175 82.6111579,20.960975 82.57,21.504875 C82.0095263,19.94055 80.7239474,20.8446 79.7591579,20.46485 C79.7591579,21.6335 79.7591579,22.6723 79.7591579,23.8287 C80.6718947,23.766225 81.5555789,23.70865 82.478,23.64985 C82.4477368,24.092075 82.3981053,24.696 82.3363684,25.495925 C81.8993684,23.822575 80.7021579,24.589425 79.7615789,24.332175 C79.7615789,25.540025 79.7543158,26.644975 79.7712632,27.7536 C79.7712632,27.86385 79.8681053,27.999825 79.9625263,28.083125 C80.6912632,28.725025 82.4755789,28.2142 82.7782105,27.29055 C82.7927368,27.2538 82.8254211,27.218275 82.8472105,27.183975 C83.2963158,28.061075 82.8278421,28.943075 81.9151053,28.935725 C80.4794211,28.930825 79.0473684,28.925925 77.6141053,28.91 C77.5196842,28.91 77.4228421,28.8708 77.2969474,28.7924 C78.1673158,28.75075 78.1927368,28.1603 78.1951579,27.544125 C78.2024211,25.476325 78.2145263,23.406075 78.2145263,21.338275 C78.2157368,20.27375 78.1963684,20.2615 77.1589474,19.922175 Z"></path>
                    <path d="M12.6245789,28.700525 C13.4005263,28.786275 13.5772632,28.3514 13.5821053,27.78055 C13.6014737,25.535125 13.6038947,23.288475 13.6293158,21.0406 C13.639,20.29335 13.1753684,20.09245 12.5676842,19.931975 C14.3907368,19.931975 16.2137895,19.931975 18.0925263,19.931975 C18.0453158,20.419525 17.9908421,20.96465 17.9387895,21.509775 C17.3904211,19.936875 16.0951579,20.85195 15.1412632,20.46485 C15.1412632,21.63105 15.1412632,22.6723 15.1412632,23.812775 C16.0491579,23.771125 16.9376842,23.7258 17.8601053,23.67925 C17.8298421,24.158225 17.7862632,24.7401 17.7487368,25.324425 C17.5526316,24.78175 17.3298947,24.3677 16.6653158,24.4118 C16.169,24.44855 15.6702632,24.4167 15.1001053,24.4167 C15.1001053,25.483675 15.088,26.5335 15.1146316,27.583325 C15.1194737,27.767075 15.2877368,28.0819 15.4245263,28.107625 C15.9704737,28.2142 16.5333684,28.2534 17.0914211,28.271775 C17.756,28.2975 18.0610526,27.87855 18.1808947,27.2685 C18.1881579,27.2391 18.2426316,27.223175 18.4169474,27.0872 C18.3394737,27.68745 18.3055789,28.171325 18.1966316,28.641725 C18.1687895,28.763 17.9157895,28.92225 17.7644737,28.923475 C16.1121053,28.930825 14.4597368,28.9149 12.8085789,28.89775 C12.7807368,28.896525 12.7528947,28.83895 12.6245789,28.700525 Z"></path>
                    <path d="M82.961,39.970525 C82.961,40.982375 82.961,42.004025 82.961,43.1347 C83.8882632,43.0955 84.7743684,43.05385 85.7040526,43.01465 C85.6762105,43.447075 85.6326316,44.0314 85.5926842,44.615725 C85.0963684,43.09795 83.8785789,43.9922 82.9779474,43.659 C82.9779474,44.8546 82.9706842,45.941175 82.9900526,47.0302 C82.9900526,47.161275 83.099,47.325425 83.2031053,47.4173 C83.9173158,48.043275 85.6992105,47.567975 86.0006316,46.6823 C86.0224211,46.622275 86.0526842,46.56225 86.2439474,46.519375 C86.1725263,47.028975 86.1253158,47.545925 86.0163684,48.04695 C85.9945789,48.146175 85.7379474,48.246625 85.5878421,48.249075 C83.9209474,48.266225 82.2516316,48.261325 80.5254211,48.1866 C81.535,48.053075 81.443,47.303375 81.4502632,46.646775 C81.4696316,44.730875 81.4829474,42.810075 81.4575263,40.896625 C81.4405789,39.79045 81.7008421,39.686325 80.3910526,39.279625 C82.2116842,39.279625 84.0298947,39.279625 85.9304211,39.279625 C85.8880526,39.767175 85.8384211,40.3172 85.7742632,40.99585 C85.2331579,39.88355 84.6133684,39.67285 82.961,39.970525 Z"></path>
                    <path d="M30.2510526,39.198775 C32.8488421,39.198775 35.3606842,39.198775 37.8858421,39.198775 C37.8858421,39.803925 37.8858421,40.35395 37.8858421,41.0669 C37.1982632,39.414375 35.8933158,40.146925 34.8002105,39.85415 C34.8002105,40.78025 34.8002105,41.582625 34.8002105,42.3899 C34.8002105,43.71045 34.7929474,45.032225 34.8002105,46.350325 C34.8098947,47.7309 34.8147368,47.7309 36.1342105,48.18905 C34.7941579,48.18905 33.6042105,48.18905 32.4106316,48.18905 C32.6733158,48.016325 33.028,47.8975 33.1672105,47.6574 C33.3161053,47.394025 33.2882632,47.01795 33.2882632,46.690875 C33.2979474,44.454025 33.2931053,42.217175 33.2931053,39.862725 C32.177,40.159175 30.8793158,39.421725 29.9811053,40.764325 C30.0706842,40.222875 30.1675263,39.67775 30.2510526,39.198775 Z"></path>
                    <path d="M77.3804737,39.198775 C77.3804737,39.811275 77.3804737,40.345375 77.3804737,40.8856 C76.7001579,39.382525 75.3782632,40.1653 74.2766842,39.848025 C74.2766842,40.3662 74.2766842,40.7778 74.2766842,41.1845 C74.2766842,42.883575 74.2742632,44.57775 74.2766842,46.2756 C74.2791053,47.6917 74.2839474,47.6917 75.5646842,48.19395 C74.2742632,48.19395 73.1036842,48.19395 71.9306842,48.19395 C72.8857895,48.099625 72.7768421,47.332775 72.7841053,46.71415 C72.8119474,44.471175 72.7962105,42.229425 72.7962105,39.860275 C71.6728421,40.176325 70.3509474,39.3764 69.4624211,40.769225 C69.5544211,40.232675 69.6488421,39.69735 69.7347895,39.19755 C72.3168421,39.198775 74.8298947,39.198775 77.3804737,39.198775 Z"></path>
                    <path d="M50.7186316,39.8517 C49.588,40.16775 48.2733684,39.41315 47.3751579,40.7778 C47.4695789,40.2437 47.5615789,39.7145 47.656,39.203675 C50.2186842,39.203675 52.7293158,39.203675 55.2811053,39.203675 C55.2811053,39.774525 55.2811053,40.335575 55.2811053,41.0767 C54.6189474,39.392325 53.2970526,40.17265 52.2802105,39.8566 C52.2402632,40.0281 52.2003158,40.129775 52.2003158,40.230225 C52.1978947,42.32375 52.1482632,44.4185 52.2124211,46.50835 C52.2620526,47.98325 52.0889474,47.75785 53.3660526,48.180475 C52.2003158,48.180475 51.0321579,48.180475 49.8857895,48.180475 C50.1085263,48.02245 50.4486842,47.891375 50.5830526,47.643925 C50.7295263,47.376875 50.715,47.0008 50.715,46.67495 C50.7234737,44.45525 50.7186316,42.2331 50.7186316,39.8517 Z"></path>
                    <path d="M22.2857895,26.573925 C22.3208947,26.740525 22.3596316,26.901 22.3947368,27.066375 C22.6501579,28.232575 23.7468947,28.8218 24.8436316,28.374675 C25.645,28.0476 25.99,27.073725 25.4791579,26.2787 C25.1692632,25.794825 24.6850526,25.424875 24.2686316,25.010825 C23.7626316,24.50245 23.1549474,24.062675 22.7554737,23.4808 C21.6611579,21.894425 22.4879474,20.052025 24.3896842,19.8156 C25.1293158,19.72495 25.8858947,19.8009 26.6521579,19.8009 C26.6521579,20.59715 26.6521579,21.193725 26.6521579,21.789075 C26.6073684,21.798875 26.5625789,21.80745 26.5202105,21.818475 C26.4584737,21.629825 26.4064211,21.438725 26.3313684,21.257425 C25.9694211,20.355825 24.7564737,19.99445 23.9647895,20.5408 C23.3353158,20.97445 23.2408947,21.823375 23.8304211,22.43465 C24.3618421,22.979775 24.9864737,23.42935 25.5590526,23.937725 C26.174,24.479175 26.7078421,25.0733 26.8833684,25.919775 C27.1484737,27.2244 26.5589474,28.3612 25.3326842,28.825475 C24.3824211,29.180725 23.4055263,29.168475 22.4649474,28.80955 C22.2712632,28.73605 22.0557895,28.426125 22.0388421,28.21175 C22.0013158,27.673975 22.0691053,27.127625 22.0981579,26.5874 C22.1574737,26.586175 22.2216316,26.578825 22.2857895,26.573925 Z"></path>
                    <path d="M26.7368947,41.2678 C26.2732632,39.9448 25.7721053,39.505025 24.8024737,39.674075 C24.4102632,39.7488 23.9091053,40.058725 23.7602105,40.394375 C23.6113158,40.734925 23.7202632,41.320475 23.9308947,41.6598 C24.196,42.091 24.6850526,42.376425 25.0639474,42.7378 C25.5844737,43.231475 26.1776316,43.674925 26.5940526,44.2519 C27.7501053,45.8542 26.9705263,47.9122 25.0457895,48.271125 C24.2819474,48.410775 23.4551579,48.26745 22.6695263,48.158425 C22.4782632,48.13515 22.2131579,47.7603 22.1913684,47.53 C22.1514211,46.992225 22.2385789,46.440975 22.2736842,45.89585 C22.3281579,45.89095 22.3850526,45.88115 22.4419474,45.875025 C22.4818947,46.06245 22.5133684,46.252325 22.5557368,46.438525 C22.747,47.308275 23.3377368,47.81175 24.2129474,47.8387 C24.8424211,47.857075 25.3907895,47.6672 25.7006842,47.0792 C26.0105789,46.4961 25.9185789,45.90075 25.5239474,45.4083 C25.1995263,45.00405 24.7722105,44.6831 24.3981579,44.316825 C23.9018421,43.831725 23.3195789,43.3944 22.9297895,42.83335 C21.8161053,41.222475 22.6743684,39.36905 24.6015263,39.12405 C24.84,39.09465 25.0808947,39.07995 25.3205789,39.0971 C27.1823684,39.233075 26.9378421,39.098325 26.7368947,41.2678 Z"></path>
                    <path d="M86.9048947,26.571475 C86.9521053,26.755225 87.0017368,26.9402 87.0513684,27.12885 C87.3443158,28.26565 88.4083684,28.810775 89.4821053,28.374675 C90.2931579,28.0427 90.6260526,27.09455 90.1224737,26.284825 C89.8440526,25.836475 89.3913158,25.488575 89.0160526,25.101475 C88.4507368,24.520825 87.7728421,24.0296 87.3418947,23.371775 C86.3371579,21.838075 87.1603158,20.071625 88.964,19.831525 C89.6358421,19.74455 90.3379474,19.868275 91.0255263,19.93565 C91.149,19.944225 91.3475263,20.127975 91.3475263,20.240675 C91.3572105,20.7564 91.3172632,21.274575 91.1768421,21.8246 C91.1296316,21.7021 91.0678947,21.583275 91.0303684,21.458325 C90.7228947,20.463625 89.7133158,20.005475 88.7848421,20.44525 C87.9931579,20.818875 87.8297368,21.7903 88.5064211,22.477525 C89.0596316,23.036125 89.7,23.499175 90.2895263,24.02225 C90.9722632,24.62985 91.5145789,25.3232 91.5799474,26.301975 C91.6465263,27.330975 91.1780526,28.237475 90.275,28.690725 C89.2182105,29.21135 88.1287368,29.180725 87.0404737,28.800975 C86.8915789,28.75075 86.7003158,28.551075 86.6906316,28.4102 C86.6506842,27.8075 86.6736842,27.2048 86.6736842,26.600875 C86.7511579,26.58985 86.8237895,26.583725 86.9048947,26.571475 Z"></path>
                    <path d="M39.9134737,0.58555 C41.0646842,0.58555 42.2134737,0.58555 43.4312632,0.58555 C43.0572105,0.775425 42.6468421,0.858725 42.4931053,1.10495 C42.3272632,1.363425 42.3793158,1.784825 42.3793158,2.1315 C42.3793158,4.02535 42.3768947,5.9192 42.4035263,7.811825 C42.4156316,8.649725 42.5766316,8.786925 43.4034211,8.87145 C43.5765263,8.89105 43.7484211,8.902075 43.9239474,8.9082 C44.7797895,8.92045 45.6404737,8.9376 45.7566842,7.655025 C45.8256842,7.7028 45.8958947,7.7518 45.9648947,7.806925 C45.9031579,8.296925 45.8777368,8.801625 45.7445789,9.272025 C45.7046316,9.411675 45.3620526,9.548875 45.1586842,9.551325 C43.4445789,9.57705 41.7256316,9.566025 39.9340526,9.472925 C40.8915789,9.4276 40.8540526,8.767325 40.8564737,8.1438 C40.8734211,6.030675 40.8758421,3.916325 40.9012632,1.80565 C40.9061053,1.086575 40.6422105,0.67865 39.9134737,0.58555 Z"></path>
                    <path d="M5.51515789,48.197625 C4.34457895,48.197625 3.17642105,48.197625 2.00705263,48.197625 C2.79147368,48.072675 2.84594737,47.50795 2.84594737,46.8832 C2.84594737,44.72475 2.85563158,42.565075 2.87136842,40.40785 C2.87621053,39.79535 2.65347368,39.39845 2.001,39.301675 C3.06021053,39.301675 4.12184211,39.301675 5.18347368,39.301675 C4.16421053,39.443775 4.36031579,40.23635 4.35789474,40.903975 C4.35063158,42.777 4.35063158,44.6537 4.35547368,46.52305 C4.36152632,47.7946 4.36394737,47.7946 5.51515789,48.197625 Z"></path>
                    <path d="M44.6115263,48.217225 C43.4433684,48.217225 42.2776316,48.217225 41.1118947,48.217225 C42.2183158,47.98325 41.9580526,47.068175 41.9701579,46.355225 C42.0101053,44.463825 41.9846842,42.5712 41.9822632,40.6798 C41.9822632,40.03545 41.9774211,39.3862 41.0743684,39.31515 C42.1408421,39.31515 43.2073158,39.31515 44.2713684,39.31515 C43.3416842,39.40335 43.4433684,40.100375 43.4433684,40.734925 C43.4433684,42.626325 43.4433684,44.5165 43.4433684,46.41035 C43.4433684,47.746825 43.4457895,47.746825 44.6115263,48.217225 Z"></path>
                </g>
                <g fill="#EEAC32">
                    <rect id="Rectangle-path" transform="translate(47.632300, 16.364984) rotate(44.979744) translate(-47.632300, -16.364984) " x="45.216848" y="14.278856" width="4.83090425" height="4.17225526"></rect>
                    <rect id="Rectangle-path" transform="translate(40.139307, 48.505627) rotate(45.000000) translate(-40.139307, -48.505627) " x="37.7234168" y="46.4220817" width="4.83177975" height="4.16709047"></rect>
                    <rect id="Rectangle-path" transform="translate(15.594539, 8.079605) rotate(45.020256) translate(-15.594539, -8.079605) " x="13.1790865" y="5.99530358" width="4.83090425" height="4.16860286"></rect>
                    <rect id="Rectangle-path" transform="translate(7.877772, 40.110386) rotate(45.020256) translate(-7.877772, -40.110386) " x="5.46231939" y="37.7746779" width="4.83090425" height="4.67141623"></rect>
                    <rect id="Rectangle-path" transform="translate(44.315990, 36.340853) rotate(45.008103) translate(-44.315990, -36.340853) " x="36.169285" y="34.2566993" width="16.2934091" height="4.16830789"></rect>
                    <rect id="Rectangle-path" transform="translate(27.860630, 19.718540) rotate(45.000000) translate(-27.860630, -19.718540) " x="19.7145344" y="17.6356038" width="16.2921916" height="4.16587309"></rect>
                    <rect id="Rectangle-path" transform="translate(28.027726, 36.553270) rotate(45.000000) translate(-28.027726, -36.553270) " x="19.8804127" y="34.4691159" width="16.2946263" height="4.16830785"></rect>
                    <rect id="Rectangle-path" transform="translate(11.466352, 19.987551) rotate(45.008103) translate(-11.466352, -19.987551) " x="3.31964726" y="17.904006" width="16.2934091" height="4.16709051"></rect>
                    <rect id="Rectangle-path" transform="translate(19.902485, 28.164944) rotate(135.000000) translate(-19.902485, -28.164944) " x="11.7551722" y="25.8306187" width="16.2946263" height="4.66865088"></rect>
                    <rect id="Rectangle-path" transform="translate(35.730160, 28.324400) rotate(135.008103) translate(-35.730160, -28.324400) " x="27.5840641" y="25.9900741" width="16.2921917" height="4.66865093"></rect>
                    <rect id="Rectangle-path" transform="translate(35.729479, 12.405129) rotate(134.991897) translate(-35.729479, -12.405129) " x="28.1847687" y="10.0689777" width="15.0894207" height="4.67230306"></rect>
                    <rect id="Rectangle-path" transform="translate(19.775485, 44.275177) rotate(134.991897) translate(-19.775485, -44.275177) " x="11.7779093" y="41.9384169" width="15.9951511" height="4.67352044"></rect>
                    <polygon id="Shape" points="52.0690435 31.3928696 48.0126957 35.4467826 45.0641739 32.501913 49.1205217 28.441913 36.9186087 16.246087 39.8671304 13.2987826 55.0126957 28.441913"></polygon>
                    <polygon id="Shape" points="30.6953043 52.7933913 27.7467826 55.741913 20.7066087 48.7005217 23.6551304 45.752 27.7467826 49.8436522 40.4782609 37.1194783 43.4255652 40.0643478"></polygon>
                    <polygon id="Shape" points="3.55843478 31.0142609 0.608695652 28.0657391 7.77182609 20.9050435 10.7203478 23.849913 6.50208696 28.0681739 18.6455652 40.2128696 15.6970435 43.1589565 3.55356522 31.0142609"></polygon>
                    <polygon id="Shape" points="27.8928696 6.67495652 15.4803478 19.0935652 12.5318261 16.1438261 27.8928696 0.784 30.8426087 3.72886957 34.8977391 7.78521739 31.9492174 10.7313043"></polygon>
                </g>
            </g>
        </g>
    </g>
</svg>